<svg id="Career" xmlns="http://www.w3.org/2000/svg" viewBox="0 0 321.49 292.05">
  <path d="M412.75,392.93V167.56l-4.64-22.72q-1.47-2.11-3,0l-4.63,22.94V392.93Q406.63,402.2,412.75,392.93ZM401.86,169a.79.79,0,1,1,0-1.57h9.75a.79.79,0,1,1,0,1.57Zm-.11,221.67a.79.79,0,0,1,0-1.58h9.76a.79.79,0,0,1,0,1.58Zm0,2.66a.79.79,0,0,1,0-1.57h9.76a.79.79,0,1,1,0,1.57Z" transform="translate(-91.25 -105.98)"/>
  <g>
    <path d="M181.64,233.18h-.12v-8a12.09,12.09,0,0,0-12.09-12.09h-66a12.08,12.08,0,0,0-12.08,12.09V228h-.13V384.11h.13v1.83A12.08,12.08,0,0,0,103.46,398h66a12.08,12.08,0,0,0,12.09-12.08v-3.33h.12Zm-49.46-10.57h13.41a1.51,1.51,0,1,1,0,3H132.18a1.51,1.51,0,0,1,0-3Zm-4.87,0a1.51,1.51,0,1,1-1.51,1.51A1.51,1.51,0,0,1,127.31,222.61Zm9.14,173.21a8.81,8.81,0,1,1,8.81-8.81A8.82,8.82,0,0,1,136.45,395.82ZM96.3,376V235.13h80.29V376Z" transform="translate(-91.25 -105.98)"/>
    <circle cx="45.2" cy="281.03" r="6.8"/>
  </g>
  <path d="M369.66,109.33A14.38,14.38,0,0,1,384,123.69V380.31a14.38,14.38,0,0,1-14.36,14.36H212.5a14.38,14.38,0,0,1-14.36-14.36V123.69a14.38,14.38,0,0,1,14.36-14.36H369.66m0-3.35H212.5a17.71,17.71,0,0,0-17.72,17.71V380.31A17.71,17.71,0,0,0,212.5,398H369.66a17.71,17.71,0,0,0,17.72-17.71V123.69A17.71,17.71,0,0,0,369.66,106Z" transform="translate(-91.25 -105.98)"/>
  <g>
    <path d="M230,142.56v11.5h-5.47V124.63h9a18.89,18.89,0,0,1,5.16.62,9.59,9.59,0,0,1,3.52,1.74,6.74,6.74,0,0,1,2,2.68,8.84,8.84,0,0,1,.64,3.43,8.6,8.6,0,0,1-.44,2.8,8,8,0,0,1-1.26,2.41,8.54,8.54,0,0,1-2,1.89,10.64,10.64,0,0,1-2.76,1.3,5.42,5.42,0,0,1,1.79,1.69l7.37,10.87h-4.93a2.41,2.41,0,0,1-1.21-.29,2.49,2.49,0,0,1-.84-.81l-6.19-9.42a2.2,2.2,0,0,0-.76-.76,2.7,2.7,0,0,0-1.24-.22Zm0-3.93h3.42a8.45,8.45,0,0,0,2.7-.39,5.07,5.07,0,0,0,1.89-1.06,4.27,4.27,0,0,0,1.11-1.62,5.51,5.51,0,0,0,.37-2.06,4.17,4.17,0,0,0-1.48-3.44,7,7,0,0,0-4.51-1.2H230Z" transform="translate(-91.25 -105.98)"/>
    <path d="M257.35,132.85a10.18,10.18,0,0,1,3.63.63,8,8,0,0,1,2.86,1.84,8.45,8.45,0,0,1,1.87,3,11.15,11.15,0,0,1,.67,4,6.25,6.25,0,0,1-.05.94,1.42,1.42,0,0,1-.18.59.77.77,0,0,1-.36.31,1.55,1.55,0,0,1-.57.09h-12.9a7.21,7.21,0,0,0,1.73,4.72,5.4,5.4,0,0,0,4,1.51,6.94,6.94,0,0,0,2.11-.29,9.82,9.82,0,0,0,1.54-.63c.44-.23.83-.44,1.16-.63a2,2,0,0,1,1-.28,1.12,1.12,0,0,1,.53.12,1,1,0,0,1,.38.34l1.47,1.83a8.26,8.26,0,0,1-1.87,1.64,10.37,10.37,0,0,1-2.17,1.06,11.52,11.52,0,0,1-2.3.56,16.27,16.27,0,0,1-2.27.16,11.2,11.2,0,0,1-4-.72,9,9,0,0,1-3.26-2.14,10,10,0,0,1-2.17-3.5,13.51,13.51,0,0,1-.8-4.83,11.41,11.41,0,0,1,.7-4,9.73,9.73,0,0,1,2-3.28,9.26,9.26,0,0,1,3.15-2.2A10.34,10.34,0,0,1,257.35,132.85Zm.1,3.6A4.64,4.64,0,0,0,254,137.7a6.08,6.08,0,0,0-1.59,3.52h9.44a6.22,6.22,0,0,0-.26-1.85,4.39,4.39,0,0,0-.81-1.51,3.8,3.8,0,0,0-1.39-1A4.71,4.71,0,0,0,257.45,136.45Z" transform="translate(-91.25 -105.98)"/>
    <path d="M280.83,137.25a1.36,1.36,0,0,1-.42.46,1.2,1.2,0,0,1-.57.13,1.76,1.76,0,0,1-.79-.21l-1-.45a8.34,8.34,0,0,0-1.26-.46,5.8,5.8,0,0,0-1.66-.2,3.87,3.87,0,0,0-2.34.63,2,2,0,0,0-.85,1.64,1.57,1.57,0,0,0,.44,1.13,3.85,3.85,0,0,0,1.16.81,10.64,10.64,0,0,0,1.64.62c.61.18,1.23.38,1.87.6s1.26.46,1.87.74a6.5,6.5,0,0,1,1.64,1.06,4.92,4.92,0,0,1,1.16,1.54,4.85,4.85,0,0,1,.44,2.15,7,7,0,0,1-.55,2.78,6.24,6.24,0,0,1-1.61,2.2,7.61,7.61,0,0,1-2.62,1.45,11.43,11.43,0,0,1-3.57.51,11.16,11.16,0,0,1-2.1-.19,12.53,12.53,0,0,1-2-.54,11.24,11.24,0,0,1-1.75-.81,7.74,7.74,0,0,1-1.41-1l1.16-1.91a1.58,1.58,0,0,1,.53-.53,1.49,1.49,0,0,1,.77-.19,1.57,1.57,0,0,1,.88.27c.28.18.6.37,1,.57a9.91,9.91,0,0,0,1.29.57,5.67,5.67,0,0,0,1.89.26,4.92,4.92,0,0,0,1.53-.21,3.22,3.22,0,0,0,1.06-.56,2.11,2.11,0,0,0,.61-.8,2.41,2.41,0,0,0,.19-.95,1.68,1.68,0,0,0-.43-1.2,4,4,0,0,0-1.16-.82,11.93,11.93,0,0,0-1.65-.62q-.93-.27-1.89-.6a16.36,16.36,0,0,1-1.9-.76,6.64,6.64,0,0,1-1.65-1.11,5.22,5.22,0,0,1-1.16-1.65,5.79,5.79,0,0,1-.43-2.36,6,6,0,0,1,.51-2.44,5.66,5.66,0,0,1,1.49-2,7.66,7.66,0,0,1,2.46-1.38,10.18,10.18,0,0,1,3.41-.52,10.53,10.53,0,0,1,3.93.71,8.79,8.79,0,0,1,3,1.88Z" transform="translate(-91.25 -105.98)"/>
    <path d="M288.79,133.18v13.27a4.47,4.47,0,0,0,.89,3,3.27,3.27,0,0,0,2.65,1.05,5.38,5.38,0,0,0,2.44-.58,8.63,8.63,0,0,0,2.16-1.6v-15.1h5v20.88h-3.07a1.25,1.25,0,0,1-1.29-.92l-.34-1.67a13.38,13.38,0,0,1-1.35,1.19,8,8,0,0,1-1.47.92,8.22,8.22,0,0,1-1.69.59,8.61,8.61,0,0,1-1.94.21,7.41,7.41,0,0,1-3-.58,6.09,6.09,0,0,1-2.21-1.63,7.44,7.44,0,0,1-1.35-2.52,10.8,10.8,0,0,1-.46-3.2V133.18Z" transform="translate(-91.25 -105.98)"/>
    <path d="M305.3,154.06V133.18h3.07a1.23,1.23,0,0,1,1.28.91l.33,1.55a11,11,0,0,1,1.15-1.12,6.88,6.88,0,0,1,1.28-.87,6.45,6.45,0,0,1,1.46-.58,6.28,6.28,0,0,1,1.72-.22,4.89,4.89,0,0,1,3.25,1.07,6.4,6.4,0,0,1,1.9,2.84,6.44,6.44,0,0,1,2.83-3,7.71,7.71,0,0,1,1.86-.69,8.94,8.94,0,0,1,2-.23,8.37,8.37,0,0,1,3.07.53,5.82,5.82,0,0,1,2.26,1.55,6.67,6.67,0,0,1,1.39,2.48,10.81,10.81,0,0,1,.48,3.36v13.29h-5V140.77a4.48,4.48,0,0,0-.88-3,3.18,3.18,0,0,0-2.56-1,4,4,0,0,0-1.44.26,3.36,3.36,0,0,0-1.16.77,3.5,3.5,0,0,0-.78,1.25,4.86,4.86,0,0,0-.29,1.73v13.29h-5V140.77a4.54,4.54,0,0,0-.85-3.05,3.13,3.13,0,0,0-2.49-1,4,4,0,0,0-2,.54,7,7,0,0,0-1.76,1.47v15.29Z" transform="translate(-91.25 -105.98)"/>
    <path d="M346.16,132.85a10.19,10.19,0,0,1,3.64.63,8.18,8.18,0,0,1,2.86,1.84,8.45,8.45,0,0,1,1.87,3,11.15,11.15,0,0,1,.67,4,7.94,7.94,0,0,1-.05.94,1.79,1.79,0,0,1-.18.59.77.77,0,0,1-.36.31,1.55,1.55,0,0,1-.57.09h-12.9a7.11,7.11,0,0,0,1.73,4.72,5.4,5.4,0,0,0,4,1.51,6.87,6.87,0,0,0,2.1-.29,10,10,0,0,0,1.55-.63c.44-.23.83-.44,1.16-.63a1.91,1.91,0,0,1,1-.28,1.09,1.09,0,0,1,.53.12,1.14,1.14,0,0,1,.39.34l1.47,1.83a8.09,8.09,0,0,1-1.88,1.64,10.3,10.3,0,0,1-2.16,1.06,11.69,11.69,0,0,1-2.3.56,16.27,16.27,0,0,1-2.27.16,11.2,11.2,0,0,1-4.05-.72,8.94,8.94,0,0,1-3.26-2.14,10.06,10.06,0,0,1-2.18-3.5,13.51,13.51,0,0,1-.79-4.83,11.63,11.63,0,0,1,.69-4,9.59,9.59,0,0,1,2-3.28,9.26,9.26,0,0,1,3.15-2.2A10.25,10.25,0,0,1,346.16,132.85Zm.1,3.6a4.62,4.62,0,0,0-3.43,1.25,6.08,6.08,0,0,0-1.59,3.52h9.44a6.56,6.56,0,0,0-.26-1.85,4.25,4.25,0,0,0-.82-1.51,3.77,3.77,0,0,0-1.38-1A4.76,4.76,0,0,0,346.26,136.45Z" transform="translate(-91.25 -105.98)"/>
  </g>
  <g>
    <line x1="133.8" y1="68.17" x2="266.99" y2="68.17"/>
    <path d="M358.24,175.15H225.06a1,1,0,1,1,0-2H358.24a1,1,0,1,1,0,2Z" transform="translate(-91.25 -105.98)"/>
  </g>
  <g>
    <line x1="133.8" y1="79.87" x2="266.99" y2="79.87"/>
    <path d="M358.24,186.86H225.06a1,1,0,1,1,0-2H358.24a1,1,0,1,1,0,2Z" transform="translate(-91.25 -105.98)"/>
  </g>
  <g>
    <line x1="133.8" y1="91.58" x2="266.99" y2="91.58"/>
    <path d="M358.24,198.56H225.06a1,1,0,1,1,0-2H358.24a1,1,0,1,1,0,2Z" transform="translate(-91.25 -105.98)"/>
  </g>
  <g>
    <line x1="133.8" y1="103.29" x2="266.99" y2="103.29"/>
    <path d="M358.24,210.27H225.06a1,1,0,1,1,0-2H358.24a1,1,0,1,1,0,2Z" transform="translate(-91.25 -105.98)"/>
  </g>
  <g>
    <line x1="133.8" y1="114.99" x2="266.99" y2="114.99"/>
    <path d="M358.24,222H225.06a1,1,0,0,1,0-2H358.24a1,1,0,0,1,0,2Z" transform="translate(-91.25 -105.98)"/>
  </g>
  <g>
    <line x1="140.74" y1="148.04" x2="267" y2="148.04"/>
    <path d="M358.26,255H232a1,1,0,0,1,0-2H358.26a1,1,0,0,1,0,2Z" transform="translate(-91.25 -105.98)"/>
  </g>
  <g>
    <line x1="140.74" y1="155.78" x2="267" y2="155.78"/>
    <path d="M358.26,262.76H232a1,1,0,0,1,0-2H358.26a1,1,0,0,1,0,2Z" transform="translate(-91.25 -105.98)"/>
  </g>
  <g>
    <line x1="133.55" y1="126.7" x2="235.64" y2="126.7"/>
    <path d="M326.89,233.68H224.8a1,1,0,0,1,0-2H326.89a1,1,0,1,1,0,2Z" transform="translate(-91.25 -105.98)"/>
  </g>
  <g>
    <line x1="134.54" y1="251.33" x2="267.03" y2="251.33"/>
    <path d="M358.29,358.45H225.79a1.15,1.15,0,0,1,0-2.3h132.5a1.15,1.15,0,0,1,0,2.3Z" transform="translate(-91.25 -105.98)"/>
  </g>
  <g>
    <line x1="134.54" y1="259.45" x2="267.03" y2="259.45"/>
    <path d="M358.29,366.57H225.79a1.15,1.15,0,0,1,0-2.3h132.5a1.15,1.15,0,0,1,0,2.3Z" transform="translate(-91.25 -105.98)"/>
  </g>
  <g>
    <line x1="134.54" y1="267.56" x2="267.03" y2="267.56"/>
    <path d="M358.29,374.69H225.79a1.15,1.15,0,0,1,0-2.3h132.5a1.15,1.15,0,0,1,0,2.3Z" transform="translate(-91.25 -105.98)"/>
  </g>
  <g>
    <line x1="140.74" y1="163.52" x2="242.83" y2="163.52"/>
    <path d="M334.09,270.5H232a1,1,0,0,1,0-2h102.1a1,1,0,0,1,0,2Z" transform="translate(-91.25 -105.98)"/>
  </g>
  <g>
    <circle cx="133.57" cy="148.04" r="0.94"/>
    <path d="M224.82,255.84a1.83,1.83,0,1,1,1.83-1.83A1.83,1.83,0,0,1,224.82,255.84Zm0-1.89v.13l.06-.07A.06.06,0,0,0,224.82,254Z" transform="translate(-91.25 -105.98)"/>
  </g>
  <g>
    <line x1="140.77" y1="179.95" x2="267.03" y2="179.95"/>
    <path d="M358.29,286.93H232a1,1,0,1,1,0-2H358.29a1,1,0,0,1,0,2Z" transform="translate(-91.25 -105.98)"/>
  </g>
  <g>
    <line x1="140.77" y1="187.69" x2="267.03" y2="187.69"/>
    <path d="M358.29,294.67H232a1,1,0,1,1,0-2H358.29a1,1,0,0,1,0,2Z" transform="translate(-91.25 -105.98)"/>
  </g>
  <g>
    <line x1="140.77" y1="195.43" x2="242.86" y2="195.43"/>
    <path d="M334.12,302.42H232a1,1,0,0,1,0-2H334.12a1,1,0,0,1,0,2Z" transform="translate(-91.25 -105.98)"/>
  </g>
  <g>
    <circle cx="133.6" cy="179.95" r="0.94"/>
    <path d="M224.85,287.75a1.83,1.83,0,1,1,1.83-1.82A1.83,1.83,0,0,1,224.85,287.75Zm0-1.89V286l.06-.06S224.89,285.86,224.85,285.86Z" transform="translate(-91.25 -105.98)"/>
  </g>
  <g>
    <line x1="140.77" y1="211.86" x2="267.03" y2="211.86"/>
    <path d="M358.29,318.84H232a1,1,0,1,1,0-2H358.29a1,1,0,0,1,0,2Z" transform="translate(-91.25 -105.98)"/>
  </g>
  <g>
    <line x1="140.77" y1="219.6" x2="267.03" y2="219.6"/>
    <path d="M358.29,326.59H232a1,1,0,0,1,0-2H358.29a1,1,0,0,1,0,2Z" transform="translate(-91.25 -105.98)"/>
  </g>
  <g>
    <line x1="140.77" y1="227.34" x2="242.86" y2="227.34"/>
    <path d="M334.12,334.33H232a1,1,0,0,1,0-2H334.12a1,1,0,0,1,0,2Z" transform="translate(-91.25 -105.98)"/>
  </g>
  <g>
    <circle cx="133.6" cy="211.86" r="0.94"/>
    <path d="M224.85,319.66a1.83,1.83,0,1,1,1.83-1.82A1.83,1.83,0,0,1,224.85,319.66Zm0-1.89v.13l.06-.06S224.89,317.77,224.85,317.77Z" transform="translate(-91.25 -105.98)"/>
  </g>
</svg>
