<svg xmlns="http://www.w3.org/2000/svg" viewBox="0 0 1050.18 624.81">
  <g class="default-fill">
    <path d="M101.6,849.9c-14-.81-28-1.78-42-2.39-19-.83-32.14-19.41-35.53-33-.14-.53.24-1.2.63-2.86,2.41.89,5,1.24,6.76,2.58,10.44,7.74,22.75,7.58,34.81,8.52,1.23.1,3,0,3.68-.78,4.09-4.5,9-2.94,14-2.77,3.63.13,7.52-1.5,11-3.07,10.27-4.68,21.11-8.64,30.34-14.93,8.67-5.91,15.58-14.42,23.25-21.81,2.14-2.07,4.54-4,6.21-6.4,1.35-2,2.61-4.65,2.31-6.8-.17-1.26-3.42-2.14-5.31-3.13s-3.55-1.76-5.32-2.63a58.37,58.37,0,0,1,2.87-5.35,38.65,38.65,0,0,1,4-4.94c2.42-2.57,4.64-5.56,7.55-7.39,4.15-2.6,6.35-5.87,5.43-10.55-.44-2.23-1.73-5.21-3.46-6s-4.81.28-6.84,1.36c-1.81,1-3.24,3.66-5.1.78-1.64-2.53-.55-5.27,2.1-6.43,3.09-1.37,6.52-2.72,9.77-2.67,2.21,0,4.38,2.5,6.56,3.88l-.38,1.54c1.52-.6,3-1.55,4.56-1.71,2.19-.22,4.72-.46,6.6.39a181.14,181.14,0,0,1,18.2,9.3c8.2,4.9,16.55,9.75,24,15.65,6.72,5.31,14.18,5.31,21.77,5.39a257.87,257.87,0,0,0,27.25-.76,105.4,105.4,0,0,0,19.94-4.24c6.25-1.86,12.29-3.48,19-.82.41,4.21-.78,6.63-5.6,7.21-4.24.51-8.21,1.38-12.54-.07-2.1-.7-5.15,0-7.23,1-3,1.56-5.4,1.69-8.4.18-6.17-3.12-12.08.17-18,1.38A2.29,2.29,0,0,0,259,762c2.08.12,4.24-.65,6.27-.38a51.58,51.58,0,0,1,7.47,2.08c-1.09,2.38-1.57,5.57-3.41,6.95a19.33,19.33,0,0,1-9.68,3.88c-5.89.39-7.1-1.69-6.75-7.62.09-1.45-1.33-4.24-2.12-4.26-5.68-.13-11.59-.57-17,.73-10.06,2.38-15.38,10.77-20.47,18.9-2.6,4.14-4.36,8.79-6.78,13.05-5.68,10-6.57,20.65-4.58,31.55,1.31,7.23,3.07,8.69,10.44,8.56,12.36-.21,24.79-.4,37.05-1.83,24.57-2.87,49.15-6,73.55-10.06,28.24-4.7,55.79-12.66,83-21.53,16.57-5.4,32.57-12.76,48.45-20.06,6.07-2.79,10.3-10,18.53-6.92,8.62-4.12,17.33-8.06,25.82-12.44,4.56-2.36,6.27-7.4,5.62-12.61a70.9,70.9,0,0,1-.06-8.75,11.48,11.48,0,0,0-.05-3.16c-2.23-7.56-4.57-15.09-6.86-22.63-.92-3-1.57-6.18-2.77-9.09a20.7,20.7,0,0,0-3.91-6.35c-2.62-2.76-5.48-2.54-8.39.18a78.59,78.59,0,0,1-8.92,7.14c-2.88,2-5.77,1.11-7.39-1.89-1.73-3.22.34-4.81,2.8-6,6.89-3.27,13.87-6.36,20.76-9.64a35.5,35.5,0,0,0,5.4-3.36c2.42-1.75,4.48-4.58,7.14-5.31,7.61-2.1,5.67-7.58,6.23-13a71.66,71.66,0,0,1,5.17-18.92,195,195,0,0,1,10.15-20.49c5.94-10.9,12.46-21.22,22.89-28.77,8.8-6.37,16.32-14.51,25.2-20.73,17.51-12.28,36.53-21.16,58.38-22.41,6.43-.37,12.18,1.4,17.76,4.37,11.25,6,22.63,11.76,33.84,17.82,2.14,1.16,3.84,3.19,5.65,4.9,2,1.92,3.95,3.93,6.56,6.54,0,0-.23,1.19-.53,2.71.75-.19,1.44-.15,1.83-.48,8.31-6.9,11.47-16.57,12.49-26.58,1-9.26.06-18.71-.13-28.07a27.47,27.47,0,0,0-1.11-4.92c6.4,1.28,8,5.06,8.68,9a32,32,0,0,1-.14,10.19c-1.19,7.37-2.92,14.65-4.23,22-1.66,9.33-6,17.27-12.09,24.4-2.35,2.75-4.42,5.75-6.67,8.6-3.67,4.64-4.06,10-4.17,15.67-.06,3.09-.41,6.49-1.78,9.16-4.47,8.74-9.44,17.23-14.26,25.79S661.94,675.35,657,684a16.19,16.19,0,0,1-.88,1.71c-13.16,17.87-26.39,35-46.48,46.72-28.86,16.82-57.91,33.12-88.45,46.52-19.34,8.48-39.27,15.71-59.2,22.75-19.33,6.83-38.83,13.27-58.55,18.87-37,10.51-74.66,18.06-112.72,23.85-46.88,7.12-94,7.85-141.2,7.73-14.3,0-28.6.52-42.9.74-2.45,0-4.89-.18-8.54-.33l3.48-2.88ZM590.19,627.07c.08-.63.15-1.26.23-1.89.37-1.49.75-3,1.13-4.45L593,615l-1.68-.13q.24,2.91.47,5.84l-1.14,4.46-.22,1.92ZM582.39,612l0,1.42c0,.73,0,1.47,0,2.2h-.19c0-.74,0-1.47,0-2.21,0-.47,0-.93,0-1.4,0-.75,0-1.5-.05-2.25l3.09-4.6-1.72-.7-1.17,5.33C582.36,610.52,582.38,611.26,582.39,612Zm6.87,2.72-2.13,2.6q-2,3.35-3.94,6.69c-1,.68-2.75,1.19-3,2.06a77.3,77.3,0,0,0-1.13,8.9l1.51.24q1.29-5.72,2.57-11.42l4.1,1.5c-2.18,4.07-2.18,4.07.9,6.5l-1.11-6.49,0-7.93,2.12-2.8-.34-.08Zm-11.51,3.23,1.26-4.43.58-4-1.05,0c.23,1.32.45,2.65.67,4-.42,1.49-.85,3-1.27,4.46l.12,2.24L574,626.83l-1.85-7.47-1,.16-2.54,18.19,1.61.23a47.72,47.72,0,0,1,1-4.79c.35-1.16.94-3.07,1.62-3.16,6.55-.89,4.66-6,5.15-9.84ZM518.3,688.89c2.22,1,3.79,2.25,5.48,2.42,8.2.81,16.43,1.59,24.66,1.85a27.09,27.09,0,0,0,11.27-1.68q15.84-6.79,31.19-14.72c4.1-2.11,7.21-6.26,11.38-8.13,7.89-3.54,13.5-9.56,19.06-15.67,1.23-1.35,1-4,1.43-6.11-1.95.41-4.24.3-5.78,1.33-8.67,5.8-17.14,11.91-25.73,17.84-2.1,1.45-4.54,3.94-6.56,3.71-7.5-.82-11.33,4.83-16.71,7.94-6,3.47-12.38,6.11-19.79,6.57C538.61,684.84,529.12,687.12,518.3,688.89ZM574,646.47l2.1-.71-1.61-4.08c-.53.22-1.54.54-1.52.66C573.23,643.74,573.64,645.1,574,646.47ZM542.57,665.6a8.07,8.07,0,0,0-.07,1.26A9.8,9.8,0,0,0,544,667c0-.35.17-1,0-1A6.18,6.18,0,0,0,542.57,665.6Zm78.86-34.78a8.83,8.83,0,0,0-1.71.92c-.21.18-.15.68-.21,1a9.18,9.18,0,0,0,1.54.21A16.65,16.65,0,0,0,621.43,630.82ZM594.65,602l-1-.21-.5,2.39,1,.21Zm-4.6,4.57-1-.1a4.38,4.38,0,0,0-.61,1.35c0,.33.36.7,1.08,2ZM609,633.93l0,1c.36,0,.84.15,1,0s.06-.67.07-1Zm-35.8-21.34.08-.56-.78.16c.06.18.08.41.2.5S573,612.63,573.15,612.59Zm-7.47,22.81c-.16,0-.39,0-.47.14s-.07.35-.09.52l.75-.17Z" transform="translate(-24.08 -228.13)"/>
    <path d="M813.06,456.29l5-4c7.05-5.73,12.55-6.41,19.73,4.13l-2,2.77.31.11-.41-.26,1.89-2.58c2.74-4.59,5.49-9,11.85-9,5.65,0,9.63,2.8,10.59,8l-.21,1.89-.19,0,.21-1.87c3.29-6.58,8.5-9.62,15.82-8.15,1.59.31,3,1.75,4.44,2.67-.3.67-.6,1.34-.91,2l.37.1-.38-.3.74-1.77c3.24-5.92,8.25-8.62,14.91-8,1.26.12,2.43,1.12,3.64,1.72l.24.08-.41-.13c2.74-4.37,5.46-8.83,11.14-9.77a41.21,41.21,0,0,1,5.54-.19c1.56-2.93,3.23-6.31,5.15-9.54.62-1,1.91-2.39,2.89-2.39,7.54,0,10.8-6.83,16.33-10a46.53,46.53,0,0,1,5.72-2.28c.19-7.25,4.33-11.95,11.22-15.07,2.07-.93,3.08-4.19,4.6-6.37,2.17-3.09,2.67-8,8.65-7.54-.3-.94-.57-1.87-.88-2.78-2.17-6.39-1.33-9.6,4.32-13,4.66-2.83,7.8-5.62,5-11.67-.73-1.58,0-4.26.87-6.08,1.88-4.09,2.76-8.48,4.2-12.59,3.3-9.48,9.37-18.05,12.3-27.6,2.73-8.89,10.87-14.94,11.53-24.58a6,6,0,0,1,1.63-3.43c7.58-8.07,11.71-18.1,16.25-27.92,2.67-5.76,5.69-11.37,8.39-17.11,2.52-5.36,5.87-6.85,11.29-4.6,2.72,1.13,5.36,2.45,8.42,3.86-.11.8-.2,1.81-.39,2.8-1.14,5.78-.77,6.45,4.76,8.45,4,1.45,8.23,2.48,12,4.43,6.34,3.28,6.69,6.74,1.43,11.32-2.43,2.11-2.26,4.09-1.24,6.79,1.93,5.15,1.2,8.07-3.37,10.95-3,1.93-4.26,4.32-5.09,7.6-1.75,7-4.71,9-11.63,7.59a75.63,75.63,0,0,1-13.76-4.87c-3.51-1.51-6.73-3.67-10.16-5.4-2.61-1.32-8.57-.3-9.56,2.08-.61,1.45,0,4.42,1.11,5.36,2.06,1.67,4.91,2.43,7.49,3.38,5.79,2.12,11.69,4,17.41,6.26a15.76,15.76,0,0,1,5.59,4.11c3,3.39,2.73,7.45-1.11,9.89-3.44,2.18-5,4.46-4.89,8.73.14,5.53-3.84,8.75-9.33,7.7a38.56,38.56,0,0,1-10.64-4.1c-6.18-3.29-12.13-7-19.23-11.16,1.47,4.33,2.87,7.47,3.55,10.77s2.28,4.06,5.27,4c8.92-.29,15.79,4.28,21.74,10.15,3.06,3,1.24,7.28-3.09,7-4.07-.21-8.13-1.95-12-3.42-4.59-1.73-8.1-5.43-13.94-5.06-3.76.24-5.84,1.11-8.17,4.83,5.24,2.48,10.37,4.88,15.47,7.33a94.65,94.65,0,0,1,9.66,4.84c2.53,1.58,5.23,3.87,3.48,7.29s-5,2.57-7.93,1.51c-2-.74-3.77-2.07-5.78-2.69-2.93-.9-6-1.39-9-2.05-1.5,3.41-1,5.15,1.47,6.73a61.21,61.21,0,0,1,8,6.25c2.22,2,4.69,4.57,2.75,7.73s-5.18,2.1-8.11,1.13c-4.66-1.52-9.33-3-14-4.4-2.57-.75-5.82-2.3-7.1,1.46-1.16,3.4,1.22,5.41,4.22,6.86,3.84,1.86,7.52,4,11.25,6.09a28.38,28.38,0,0,1,3.77,2.41c3.29,2.59,5.56,8.14,3.59,9.22a12.69,12.69,0,0,1-8.25.89c-3.91-.84-7.58-2.78-11.37-4.18-2.15-.8-4.35-1.47-6.52-2.2l-1,1.38c1.73,1.5,3.42,3,5.19,4.48,3.3,2.69,7,5,9.84,8.1,1.25,1.34,1.89,4.77,1,6.13s-4,1.83-6,1.64a10.09,10.09,0,0,1-5.67-2.69c-5.11-5-11.74-6.73-18.19-8.82-2.76-.89-5.88-2-7.84,1.71-2,3.86.43,6.05,3,8,4.73,3.58,9.64,6.91,14.34,10.53a11.39,11.39,0,0,1,3.61,4.36,5.48,5.48,0,0,1-.33,4.65,5.39,5.39,0,0,1-4.44,1.48,10.2,10.2,0,0,1-5.54-2.9c-3.87-4.64-10.18-4.35-14.57-7.79a7.55,7.55,0,0,0-1.81-.78c-.29.5-.58,1-.88,1.51a38.39,38.39,0,0,0,2.84,4.11c2.56,2.85,5.35,5.5,7.89,8.38,1.85,2.09,2.55,4.6.48,6.94s-4.7,2-7,.42a43.15,43.15,0,0,1-7.93-6.38c-4-4.48-9.29-6.7-14.64-8.79-1.43-.56-4.17-.81-4.69-.06a6.05,6.05,0,0,0-.59,5.19c2.75,5.52,6,10.77,9,16.16,1.45,2.58,3.27,5.12,4,7.91.4,1.61-.67,4.25-2,5.36-.81.69-3.69-.11-5-1.11-2-1.54-3.22-3.94-5-5.77a102.94,102.94,0,0,0-9.63-9.18c-1.41-1.13-3.81-1-5.77-1.46-.07,2.2-.77,4.61-.09,6.54,1.27,3.59,3.42,6.85,5,10.34,1.07,2.3,2.44,4.73,2.51,7.14.07,2-1.15,5.07-2.61,5.67s-4.47-.89-5.75-2.38c-3.86-4.49-7.1-9.49-10.79-14.13a12.47,12.47,0,0,0-4.49-3.49c-2.81-1.29-4.89-.08-4.52,3.05.4,3.35,1.74,6.57,2.42,9.91a90,90,0,0,1,1.68,11.3c.09,1.19-1,3.34-2,3.54a6.12,6.12,0,0,1-4.46-1.29c-1.26-1-1.9-2.77-2.81-4.19-3.08-4.82-6-9.78-9.36-14.38-1.07-1.46-4.22-3.17-5.06-2.63a8.05,8.05,0,0,0-3.06,5.51c-.31,3.58.36,7.23.49,10.85.07,2.12.37,4.43-.32,6.34s-2.18,3.83-3.8,4.41c-1.1.39-3.58-1.2-4.47-2.54a39.29,39.29,0,0,1-3.68-8.1c-1.78-4.8-3.16-9.76-5.16-14.46-.63-1.48-2.91-3.49-4-3.26a6.46,6.46,0,0,0-4.21,3.88c-1.27,4.94-1.81,10.06-2.62,15.11-.24,1.48-.36,3-.64,4.44-.7,3.64-1.64,7.33-5.91,8.22-2.56.53-6.35-4.68-6.75-9-.62-6.48-1.14-13-1.71-19.46l-2-.79c-1.52,1.35-3.73,2.41-4.43,4.09-1.3,3.09-1.55,6.61-2.55,9.85a63.57,63.57,0,0,1-4,10.63c-.71,1.35-3,1.87-4.58,2.77-.86-1.55-2.28-3-2.47-4.66-.8-6.94-1-13.94-1.87-20.87-.39-3.35.57-8.17-4.22-8.93-4.56-.72-4.51,4.19-6.29,6.87-4.69,7-9.53,14-14.38,20.94-.27.39-1.13.38-1.69.54-3.38-4.33-3.84-9.17-3.56-14.35a98.62,98.62,0,0,0-.52-11.51c-.15-2.39-.33-5.28-3.45-5.11-1.68.09-3.8,1.66-4.79,3.17-2.8,4.28-4.95,9-7.69,13.3-1.75,2.76-4.11,5.15-6.39,7.94-4.3-3.71-6.3-7.21-5.95-12.14a76.73,76.73,0,0,0-.24-12.77c-.13-1.27-1.83-3.35-2.81-3.34-1.25,0-3,1.48-3.64,2.77-1,2.08-.9,4.65-1.8,6.78-1.57,3.69-3.14,7.52-5.54,10.65-1.23,1.61-4.22,2.36-6.49,2.56-3.12.28-6.47-1.06-9.46-.43-7.13,1.49-9.9-3.05-12.91-7.92-3.67-6-7.51-11.82-11.5-17.56a15.76,15.76,0,0,0-4.76-4.2c-4.46-2.68-9.12-1.33-11.2,3.43-2.31,5.27-3.21,10.51,1.07,15.6a92.51,92.51,0,0,1,9.22,13c1.8,3.12,2.54,6.86,3.75,10.33l-1.61.82-11.87-11.87c-1.51,1.52-2.41,2.88-3.67,3.59-5,2.82-6.25,2.4-9.15-2.55-1.61-2.74-3.17-5.5-4.76-8.25h.2c0,1-.07,2.08-.11,3.23-5.87-2.84-10-8.8-8.08-13.41,1.13-2.7,2.65-4.68,1.72-7.86-.8-2.77-.77-5.79-1.14-9,4.09.42,8.14,1,12.2,1.21,5.54.24,6.12-.67,4.62-6.17-.95-3.47.67-5.38,4.34-4.65,7.25,1.45,14.4,3.42,21.68,4.64,3.59.6,4.58,2.53,4.85,5.55l1.53,1.41,4,4c-.52-3.61-.78-5.58-3.89-3.82L699.59,443c5.43-10,7.46-9.81,13.92-.18,3.54,5.27,5,12.45,12.44,14.62,1,.29,1.43,2.38,2.13,3.63l-2,2.89v-.22c.64-.87,1.28-1.75,1.91-2.63,4.7-4,5.88-9.68,7.17-15.31.67-2.89,1.08-6,2.49-8.51,3.09-5.51,7.89-5.74,11.77-.85,2.89,3.62,6.12,7.12,8.16,11.2,1.12,2.24.08,5.56,0,9.64,1.35-1.71,2.19-2.62,2.86-3.65,2.16-3.32,3.83-7.09,6.48-10,5-5.37,9.37-4.48,13.19,1.91,2,3.39,4.33,6.62,7.14,10.87l-1.92,7.81c3.93-.57,4-3.55,5.14-5.9a52.25,52.25,0,0,1,6.72-10.56c2.78-3.22,6.34-3,9.67-.23a14.73,14.73,0,0,0,4.2,2.85c3.45,1.2,3.33,3.36,2.13,6.05l.32.13Zm21.73,7.22.22-.09-.15.25.33.12ZM1037,255.79c7.4,2.28,13,7,20.35,3.09C1053.66,251.94,1046.33,250.68,1037,255.79Zm-18.56,47.77-6.45-3.68c-1.65,2.5-4.73,4.24-1.43,6.82C1014.11,309.46,1015.78,306.34,1018.47,303.56Zm17.78-35.23-1.1-.14a3.23,3.23,0,0,0,.45,1.2c.14.15.68-.07,1-.12Zm-3.82,2.2-.3.4a7,7,0,0,0,.81.43s.18-.25.28-.38ZM991.5,343.71l-.35.25.38.19Zm-87.38,106.5c-.17-.06-.4-.2-.5-.13s-.16.32-.23.49l.79.19ZM660.58,462.09l-.37.07.29.3ZM999.34,327.62l.36.21,0-.37Zm-67.61,96.94-.35-.2.06.35Z" transform="translate(-24.08 -228.13)"/>
    <path d="M409.49,727.69c.66-1.72.72-2.62,1.11-2.79,5.53-2.49,11.18-4.75,16.65-7.36a62,62,0,0,0,8.39-5.16c1.53-1.06,2.6-2.88,4.2-3.73,3.88-2.06,6.1-1.17,8.81,3.26,3.3-.9,6.69-2.15,10.17-2.63,1.82-.25,4.74.3,5.47,1.51s-.15,4.09-1.24,5.54c-6.22,8.27-12.52,9.89-22.41,6.78-2.41-.76-5.24-.23-7.87-.22-1,0-2.22.58-3.1.26-5.92-2.13-10.75-.4-15.26,3.61C413.49,727.57,411.64,727.33,409.49,727.69Z" transform="translate(-24.08 -228.13)"/>
    <path d="M402.56,732.92c-13.11,2.94-25.09,5.51-37,8.36-3.66.87-15.9,1.1-20.15-.7,2.14-.93,3.47-1.65,4.88-2.1,11.33-3.61,22.62-7.32,34-10.67,5.2-1.52,10.61-2.3,16.53-3.55C401.61,728.17,402.17,731,402.56,732.92Z" transform="translate(-24.08 -228.13)"/>
    <path d="M702.83,534.6l.9,4.55.07-.15v2.08l-.07-.14-1,9.86.2,0c-5-9.37-8.83-19-9.8-29.88-.32-3.6-3.55-7-5.72-10.31-1.14-1.74-3-3-4.31-4.63-5.18-6.21-5.07-7.61.77-12.92l-.11-.08c9.66,11.69,14.56,25.66,19.09,39.81l.08-.15c0,.69,0,1.38,0,2.08Z" transform="translate(-24.08 -228.13)"/>
    <path d="M58.34,743.09c-.29-2.18-2.55-4.56.78-6.86,2,2.92.25,4.86-1,6.87Z" transform="translate(-24.08 -228.13)"/>
    <path d="M84.27,764.12l-4.75.86L79,762.84l4.63-1.27Z" transform="translate(-24.08 -228.13)"/>
    <path d="M87.6,753.52l4.75-.85.48,2-4.67,1.42Z" transform="translate(-24.08 -228.13)"/>
    <path d="M95.77,761.89l4.08-1.71.83,2-4.07,1.72Z" transform="translate(-24.08 -228.13)"/>
    <path d="M85.25,771.93,81.08,773l-.5-2.06,4.18-1Z" transform="translate(-24.08 -228.13)"/>
    <path d="M129.87,783.73l-2,3-1.33-.71c.52-1.09,1-2.18,1.57-3.26Z" transform="translate(-24.08 -228.13)"/>
    <path d="M110.37,751.91l3.7-1.59.81,1.89-3.7,1.6Z" transform="translate(-24.08 -228.13)"/>
    <path d="M104.78,750.89l-3.11.2c0-.73-.18-2,0-2.09a7.52,7.52,0,0,1,2.84-.13A8.26,8.26,0,0,1,104.78,750.89Z" transform="translate(-24.08 -228.13)"/>
    <path d="M112.69,759.52l3.53-1.27.64,1.46-3.28,1.72Z" transform="translate(-24.08 -228.13)"/>
    <path d="M107.88,769.42l-3.3.54a16.08,16.08,0,0,1,1.73-2.26c.14-.14,1,.43,1.47.68Z" transform="translate(-24.08 -228.13)"/>
    <path d="M333.36,741.44l3.91.26-.09,1.06-3.91-.29Z" transform="translate(-24.08 -228.13)"/>
    <path d="M336.06,751.31l1,.16c-.09.32-.11.81-.3.9s-.67-.07-1-.13C335.87,751.93,336,751.62,336.06,751.31Z" transform="translate(-24.08 -228.13)"/>
    <path d="M103.94,739.71c-.09-.25-.21-.42-.17-.54s.27-.12.41-.18Z" transform="translate(-24.08 -228.13)"/>
    <path d="M80.88,747.84c-.15-.08-.39-.12-.42-.23s.11-.3.17-.45c.15.07.39.11.42.22S80.94,747.68,80.88,747.84Z" transform="translate(-24.08 -228.13)"/>
    <path d="M683.85,493.08l-.81-.55.7.47Z" transform="translate(-24.08 -228.13)"/>
    <path d="M703.73,539.15l1,.83.12.06-1.08-1Z" transform="translate(-24.08 -228.13)"/>
    <path d="M704.76,540l-1,1,.07.14,1.08-1Z" transform="translate(-24.08 -228.13)"/>
    <path d="M702.71,550.8l.2,0Z" transform="translate(-24.08 -228.13)"/>
    <path d="M702.83,532.81l1,.83.13.06-1.08-1Z" transform="translate(-24.08 -228.13)"/>
    <path d="M703.86,533.64l-1,1,.07.14,1.09-1Z" transform="translate(-24.08 -228.13)"/>
    <polygon points="532.53 460.05 532.21 459.75 532.6 459.62 532.53 460.05"/>
  </g>
  <g class="highlight-fill">
    <g>
      <path d="M582.15,607.39c-.1,2.21-.6,4.5-.19,6.61s2.77,4.42,2.44,6.3c-.37,2.09-3.35,3.6-4.24,5.76-1.07,2.59-1.13,5.59-2.39,8.3-.6-9.22.78-18.17,2.91-27Z" transform="translate(-24.08 -228.13)"/>
      <path d="M592.85,602.1q-1.68,13.44-3.38,26.9l-1.84-.22c.27-9.07,2-18,3.2-26.92Z" transform="translate(-24.08 -228.13)"/>
      <path d="M566,637.81l3.72-25.07,2.08.3q-1.82,12.59-3.62,25.17Z" transform="translate(-24.08 -228.13)"/>
      <path d="M95.81,774l-4.35,1-.58-1.94,4.29-1.48Z" transform="translate(-24.08 -228.13)"/>
      <path d="M100.54,762.21l-3.75,1.67L96,762l3.76-1.64Z" transform="translate(-24.08 -228.13)"/>
      <path d="M84,764.11l-4.16.54-.36-1.91,4.09-1Z" transform="translate(-24.08 -228.13)"/>
      <path d="M91.34,752.61c-.17,1.37-.09,2.5-.38,2.61a6.36,6.36,0,0,1-2.69.16c-.09,0-.32-1.37-.09-1.52A17.34,17.34,0,0,1,91.34,752.61Z" transform="translate(-24.08 -228.13)"/>
      <path d="M113,759.2l3.36-.61.36,1.34-3.39,1.18Z" transform="translate(-24.08 -228.13)"/>
      <path d="M101.13,748.36l3.42.7c-.13.56-.1,1.43-.42,1.59a3.26,3.26,0,0,1-2.29.31C101.49,750.84,101.47,749.72,101.13,748.36Z" transform="translate(-24.08 -228.13)"/>
      <path d="M114.31,750.49c-.06,1,.12,1.9-.17,2.12a7.35,7.35,0,0,1-2.16.74c-.08-.68-.46-1.65-.16-2C112.27,750.88,113.21,750.84,114.31,750.49Z" transform="translate(-24.08 -228.13)"/>
      <path d="M81.25,770.74l3.12-.72.52,1.41-3.14,1.27Z" transform="translate(-24.08 -228.13)"/>
      <path d="M107.62,769.54c-1,.14-2,.31-3,.37a3.27,3.27,0,0,1-.29-1c.94-.37,1.9-.67,2.87-1Z" transform="translate(-24.08 -228.13)"/>
      <path d="M68.09,777.93l.58.26-.22.48Z" transform="translate(-24.08 -228.13)"/>
      <polygon points="56.44 519.43 56.73 519.09 56.87 519.5 56.44 519.43"/>
      <polygon points="79.86 511.36 79.85 510.94 80.18 511.13 79.86 511.36"/>
      <path d="M58.11,743.1c.39,5.5,1.58,10.52,7.36,13,.64.28,1.46,1.33,1.38,1.91-.76,5.31,2.42,7.64,6.58,9.61,1.18.56,1.92,2.22,2.66,3.48,3.15,5.31,3.81,5.57,9.64,3.31,2.38-.93,4.73-2,7.17-2.7.84-.25,1.91.31,3.32.59-1.56,3.68-8.73,3.31-5.57,9.44a20.13,20.13,0,0,0,3.64-2.17c4.7-4.36,10.89-5.51,16.57-5.78,6-.28,10.55-2.58,15-5.85,3.72-2.74,7.56-4.65,12.31-3.22.78,3.36-1,4.87-3.25,6.44-4.16,2.91-8.06,6.17-12.14,9.19-2.22,1.65-4.4,3.54-6.91,4.57-12.79,5.27-25.46,11.27-39.63,11.61-11.61.28-23.09-.35-32-9.57-8.36-8.69-7.43-26.71,2-34.42,4-3.24,8.06-6.31,12.09-9.46Zm15.52,35.13c-.06-1.26.14-2.46-.16-2.6a4.8,4.8,0,0,0-2.71-.26c-.23,0-.53,1.81-.28,2A11.65,11.65,0,0,0,73.63,778.23Z" transform="translate(-24.08 -228.13)"/>
    </g>
  </g>
</svg>
