<svg id="Layer_1" data-name="Layer 1" xmlns="http://www.w3.org/2000/svg" viewBox="0 0 327.69 308.9">
  <g>
    <path d="M302.21,280.73a10.89,10.89,0,0,0-9.35,4.53q-3.3,4.53-3.3,12.92,0,7.95,3.36,12.7a10.73,10.73,0,0,0,9.29,4.76q7.26,0,10.85-5.48v-24Q309.37,280.74,302.21,280.73Z" transform="translate(-32.52 -52.3)"/>
    <path d="M338.77,217.49H237.92a21.42,21.42,0,0,0-21.43,21.43V339.77a21.42,21.42,0,0,0,21.43,21.43H338.77a21.43,21.43,0,0,0,21.44-21.43V238.92A21.43,21.43,0,0,0,338.77,217.49ZM266.4,326.83H253V248.5H266.4Zm59.75,0H313.06v-4.14q-4.26,5.49-12.87,5.48-11,0-17.34-7.94t-6.38-22.05q0-13.76,6.6-21.82a21.1,21.1,0,0,1,17.12-8.05q8.28,0,12.87,5.37V252L326.15,246Z" transform="translate(-32.52 -52.3)"/>
  </g>
  <g>
    <path d="M134.47,234l-14-14-16.38,16.38,14,14q4.18,4.2,8.7,3.8a12.29,12.29,0,0,0,7.84-3.72,12.73,12.73,0,0,0,3.71-7.6Q138.9,238.4,134.47,234Z" transform="translate(-32.52 -52.3)"/>
    <path d="M211.73,253.3,140.42,182a21.43,21.43,0,0,0-30.31,0L38.8,253.3a21.44,21.44,0,0,0,0,30.32l71.31,71.31a21.43,21.43,0,0,0,30.31,0l71.31-71.31A21.44,21.44,0,0,0,211.73,253.3Zm-84,14.25q-9.93.51-19.11-8.66L95.06,245.36l-21,21-9.49-9.49L120,201.44l23,23q9.57,9.57,9.1,19.07a25.73,25.73,0,0,1-24.41,24Zm8.15,56.18q-7.32-1.07-14.44-8.19a32,32,0,0,1-7.32-11.12,21.37,21.37,0,0,1-1.46-11.59l11.71.95q0,8.55,5.14,13.69,6.57,6.57,10.52,2.61a4.76,4.76,0,0,0,1.31-3.6,12.54,12.54,0,0,0-.75-4.15c-.48-1.27-1.29-3.28-2.45-6q-4.68-9.26-4.91-15.43a14.47,14.47,0,0,1,4.67-11.08,13.64,13.64,0,0,1,12.34-4.19q7,1.11,13.3,7.36,9.17,9.18,8.22,20.73l-11.63-1.19A16.06,16.06,0,0,0,155.43,281q-5.46-5.46-8.78-2.14c-1.11,1.11-1.38,2.73-.83,4.87a43.93,43.93,0,0,0,3.44,8.35q4.35,8.78,4.71,15.15T149,319Q143.18,324.8,135.85,323.73Z" transform="translate(-32.52 -52.3)"/>
  </g>
  <g>
    <path d="M285.62,77.42,187.79,53a21.43,21.43,0,0,0-26,15.59l-24.47,97.83a21.44,21.44,0,0,0,15.6,26l97.83,24.47a21.45,21.45,0,0,0,26-15.6l24.47-97.83A21.43,21.43,0,0,0,285.62,77.42ZM215.53,172.6l-1.81-18.1L183.65,147l-10.13,15.11-13.78-3.45,47.33-68.9L220,93,229.21,176Zm33.22,8.31-12.7-3.18,13.87-55.47,12.7,3.18Zm15.36-65.54a7.36,7.36,0,0,1-5.88.89,7.83,7.83,0,0,1-5.7-9.5,7.34,7.34,0,0,1,3.56-4.76,7.63,7.63,0,0,1,5.91-.83,7.64,7.64,0,0,1,5.62,9.37A7.68,7.68,0,0,1,264.11,115.37Z" transform="translate(-32.52 -52.3)"/>
    <polygon points="159.5 78.5 181.32 83.96 177.96 51.05 159.5 78.5"/>
  </g>
</svg>
