<svg id="Design" xmlns="http://www.w3.org/2000/svg" viewBox="0 0 384.09 292.18">
  <g>
    <path d="M428.87,105.91H75.13A15.18,15.18,0,0,0,60,121.09V358.17a15.18,15.18,0,0,0,15.17,15.18H428.87A15.18,15.18,0,0,0,444,358.17V121.09A15.18,15.18,0,0,0,428.87,105.91Zm-352,137.66a2.25,2.25,0,1,1,2.25-2.25A2.26,2.26,0,0,1,76.91,243.57ZM411.32,359.12H92.67v-239H411.32ZM427.9,248.86a7.76,7.76,0,1,1,7.75-7.75A7.76,7.76,0,0,1,427.9,248.86Z" transform="translate(-59.96 -105.91)"/>
    <path d="M427.9,235.88a5.23,5.23,0,1,0,5.22,5.23A5.24,5.24,0,0,0,427.9,235.88Z" transform="translate(-59.96 -105.91)"/>
  </g>
  <g>
    <path d="M277.72,247.39l-65.27,16.53a12.29,12.29,0,0,0-8.89,14.92l16.53,65.27A12.28,12.28,0,0,0,235,353l65.27-16.53a12.28,12.28,0,0,0,8.89-14.91l-16.54-65.27A12.27,12.27,0,0,0,277.72,247.39Zm-4.13,74.69a3,3,0,0,1-2.06-.1,3.4,3.4,0,0,1-1.45-1.17l-6.08-8.9-19.92,5L243,327.68a3.23,3.23,0,0,1-.7,1.66,3,3,0,0,1-1.75,1.12l-7,1.76,6.71-52.9,9.15-2.31,31.08,43.32Zm16.84-4.26-8.22,2.08-8.65-34.14,8.22-2.08Zm-9.87-42.29a5.55,5.55,0,0,1-2.13,3.46,5.32,5.32,0,0,1-2,.94,5,5,0,0,1-2.11.09,5.53,5.53,0,0,1-3.46-2,4.9,4.9,0,0,1-.92-1.89,5.33,5.33,0,0,1-.11-2.17,5.73,5.73,0,0,1,.69-1.95,5.67,5.67,0,0,1,1.37-1.53,5.08,5.08,0,0,1,1.91-.93,5.27,5.27,0,0,1,2.16-.1,5.51,5.51,0,0,1,2,.69,5.64,5.64,0,0,1,1.57,1.37,5.07,5.07,0,0,1,.95,1.95A4.86,4.86,0,0,1,280.56,275.53Z" transform="translate(-59.96 -105.91)"/>
    <path d="M248.68,289.36c-.57-.89-1.15-1.85-1.74-2.91,0,1.21-.07,2.34-.12,3.4s-.13,2-.23,2.78l-1.82,17.42,15.34-3.88-9.91-14.52C249.75,291,249.25,290.24,248.68,289.36Z" transform="translate(-59.96 -105.91)"/>
  </g>
  <g>
    <path d="M330.67,171.76a9,9,0,0,0-3.63.81,8.07,8.07,0,0,0-2.9,2.06,6.73,6.73,0,0,0-1.54,3.06,10.76,10.76,0,0,0,0,4.06,21.32,21.32,0,0,0,1.6,5.09,23.83,23.83,0,0,0,2.57,4.59,10.1,10.1,0,0,0,2.71,2.63,5.43,5.43,0,0,0,2.86.88,7.23,7.23,0,0,0,3-.65,8.7,8.7,0,0,0,3.67-2.82,13.58,13.58,0,0,0,1.95-4.27l-6.36-14.45A8.3,8.3,0,0,0,330.67,171.76Z" transform="translate(-59.96 -105.91)"/>
    <path d="M333.75,124l-61.64,27.1a12.28,12.28,0,0,0-6.29,16.18l27.1,61.64a12.27,12.27,0,0,0,16.18,6.3l61.64-27.11A12.28,12.28,0,0,0,377,191.91l-27.1-61.63A12.27,12.27,0,0,0,333.75,124ZM318.8,208.32l-8.48,3.73-20-45.43,8.48-3.73Zm34.06-15-4.75,2.09a2.09,2.09,0,0,1-2.6-.54l-2-2.84a20.69,20.69,0,0,1-1.2,3,14.89,14.89,0,0,1-1.68,2.61,13.46,13.46,0,0,1-2.29,2.23,14.51,14.51,0,0,1-3,1.75,11.52,11.52,0,0,1-10.51-.5,16.73,16.73,0,0,1-4.72-4.09,28.46,28.46,0,0,1-4-6.66,23.9,23.9,0,0,1-1.95-7.09,17.4,17.4,0,0,1,.45-6.57,14.1,14.1,0,0,1,2.81-5.45,13.66,13.66,0,0,1,5.16-3.79,12.3,12.3,0,0,1,5-1.17,13.31,13.31,0,0,1,4.43.81l-7.48-17,7.76-3.41Z" transform="translate(-59.96 -105.91)"/>
  </g>
  <g>
    <path d="M167.88,177.55a8.31,8.31,0,0,0-2.12-2.88,14.29,14.29,0,0,0-3.77-2.39l-6.3-2.9-7.43,16.19,6.3,2.89a14.06,14.06,0,0,0,4.29,1.28,8.26,8.26,0,0,0,3.59-.35,7.53,7.53,0,0,0,2.89-1.85,10.94,10.94,0,0,0,2.14-3.19,10,10,0,0,0,.95-3.53A7.23,7.23,0,0,0,167.88,177.55Z" transform="translate(-59.96 -105.91)"/>
    <path d="M216.52,167.11,155.33,139a12.27,12.27,0,0,0-16.28,6L111,206.22a12.28,12.28,0,0,0,6,16.28l61.19,28.11a12.26,12.26,0,0,0,16.27-6l28.11-61.18A12.28,12.28,0,0,0,216.52,167.11ZM172,193.71a13.83,13.83,0,0,1-5.43,3.19,16.86,16.86,0,0,1-6.86.55,26.84,26.84,0,0,1-8.17-2.44l-6.3-2.89L138,208l-8.39-3.86L150.28,159,165,165.79a28.36,28.36,0,0,1,7.34,4.66,16.53,16.53,0,0,1,4.1,5.47,12.84,12.84,0,0,1,1.09,6A18.74,18.74,0,0,1,172,193.71Zm15.65,30a10.38,10.38,0,0,1-4,2.24,12.73,12.73,0,0,1-5,.37,20.69,20.69,0,0,1-8.93-3.49,20.39,20.39,0,0,1-2.64-2.22,17.8,17.8,0,0,1-2.11-2.48,14.11,14.11,0,0,1-1.45-2.55l3.12-2.12a2.85,2.85,0,0,1,1.18-.44,2.57,2.57,0,0,1,1.32.27,2.74,2.74,0,0,1,1.17,1q.45.7,1.08,1.56a14.35,14.35,0,0,0,1.58,1.78,9.32,9.32,0,0,0,2.7,1.73,8.46,8.46,0,0,0,2.5.76,5.5,5.5,0,0,0,2-.12,3.56,3.56,0,0,0,1.5-.8,4.22,4.22,0,0,0,1-1.31,2.91,2.91,0,0,0,.18-2.15,6.48,6.48,0,0,0-1.21-2.07,19.66,19.66,0,0,0-2.09-2.11c-.82-.71-1.64-1.46-2.48-2.25a31,31,0,0,1-2.36-2.5,10.86,10.86,0,0,1-1.74-2.86,8.38,8.38,0,0,1-.62-3.34,9.64,9.64,0,0,1,1-3.93,10,10,0,0,1,2.5-3.38,9.58,9.58,0,0,1,3.71-2.05,12.4,12.4,0,0,1,4.75-.39,17.14,17.14,0,0,1,5.59,1.6,17.66,17.66,0,0,1,5.52,3.86,15.08,15.08,0,0,1,3.2,4.94l-3,2a2.2,2.2,0,0,1-1,.4,1.88,1.88,0,0,1-1-.2,3,3,0,0,1-1.06-.86c-.33-.41-.72-.87-1.16-1.39a15.84,15.84,0,0,0-1.59-1.58,10.18,10.18,0,0,0-2.4-1.48,6.59,6.59,0,0,0-4-.68,3.31,3.31,0,0,0-2.47,1.93,2.64,2.64,0,0,0-.13,2,6.67,6.67,0,0,0,1.21,2,18.66,18.66,0,0,0,2.08,2.11c.81.71,1.62,1.46,2.44,2.24a33.9,33.9,0,0,1,2.35,2.45,11.09,11.09,0,0,1,1.77,2.78,8.27,8.27,0,0,1,.69,3.17,8.18,8.18,0,0,1-.84,3.61A11.68,11.68,0,0,1,187.66,223.7Z" transform="translate(-59.96 -105.91)"/>
  </g>
  <path d="M405.5,382.73h-283L94,388.55q-2.69,1.86,0,3.72l28.8,5.82H405.5Q417.14,390.41,405.5,382.73ZM124.36,396.41a1,1,0,1,1-2,0V384.16a1,1,0,1,1,2,0Zm278.33.12a1,1,0,0,1-2,0V384.29a1,1,0,0,1,2,0Zm3.34,0a1,1,0,0,1-2,0V384.29a1,1,0,0,1,2,0Z" transform="translate(-59.96 -105.91)"/>
</svg>
