<?xml version="1.0" encoding="utf-8"?>
<!-- Generator: Adobe Illustrator 25.1.0, SVG Export Plug-In . SVG Version: 6.00 Build 0)  -->
<svg version="1.1" xmlns="http://www.w3.org/2000/svg" xmlns:xlink="http://www.w3.org/1999/xlink" x="0px" y="0px"
	 viewBox="0 0 1920 1080" style="enable-background:new 0 0 1920 1080;" xml:space="preserve">
<g class="default-fill">
	<path d="M795.1,388.15c3.06,1.18,4.98-0.27,6.74-2.65c1.57-2.11,3.31-4.19,5.31-5.87c3.28-2.76,5.47-2.09,7.36,1.8
		c0.78,1.61,1.63,3.18,2.64,5.15c5.27-5.4,5.73-12.19,7.37-18.34c3.41-12.74,6.3-25.63,9.29-38.48c1.54-6.6,2.83-13.26,4.27-19.88
		c0.24-1.12,0.72-2.19,1.03-3.3c1.39-4.95,2.98-9.86,4.08-14.87c1.06-4.81,1.35-9.79,2.42-14.59c2.46-11.03,5.17-22,7.82-32.98
		c0.45-1.85,1.15-3.63,2.28-5.37c3.12,5.19,1.61,10.98,2.99,16.72c0.82-0.66,1.5-1.22,2.18-1.77c0.66,0.84,1.65,1.58,1.93,2.53
		c1.16,3.99,2.23,8.02,3.1,12.09c0.69,3.22-1.27,6.51-4.59,8.54c-0.67,0.41-1.45,1.05-1.67,1.75c-1.37,4.28-4.89,4.95-9.04,5.37
		c-0.45,1.63-0.79,3.4-1.43,5.06c-0.55,1.42-1.69,2.63-2.15,4.06c-0.73,2.3-1.32,4.69-1.57,7.09c-0.35,3.41-0.32,6.86-0.47,10.61
		c-1.37-0.52-2.06-0.78-2.93-1.11c-0.81,4.2-1.61,8.32-2.48,12.84c0.55-0.21,0.99-0.38,1.84-0.72c-0.01,2.88,0.54,5.6-2.26,7.59
		c-0.6,0.43-1.31,1.59-1.12,2.1c1.98,5.36-3.98,9.62-2.02,15.03c0.32,0.88-0.65,3.04-1.51,3.39c-2.97,1.2,0.43,3.35-0.96,4.61
		c4.26,2.27,1.5,5.91,1.59,8.91c0.07,2.27-0.72,4.56-1.09,6.65c-0.95-0.63-1.95-1.31-2.95-1.98c2.35-2.94,2.87-4.91,2.51-9.54
		c-1.04,1.45-2.25,2.83-3.12,4.4c-0.98,1.77-1.83,3.73,0.75,5.07c-1.6,8.01,2.46,13.8,7.64,19.03c2.85,2.87,4.09,2.49,5.51-1.17
		c3.5-9.04,16.38-11.8,23.29-4.97c1.64,1.62,3.14,3.38,4.71,5.07c-0.61,0.7-1.69,1.36-1.74,2.09c-0.46,6.8-1.14,13.62-1.01,20.42
		c0.33,17.12,1.31,34.23,1.49,51.35c0.09,8.73,0.32,17.58-2.35,26.14c-0.38,1.23-0.05,3.17,0.72,4.19c2.07,2.71,1.84,5.49,1.35,8.54
		c-0.58,3.59-1.95,7.53-1.04,10.78c2.43,8.71,0.79,17.46,1.29,26.15c0.39,6.75-0.53,13.56-0.45,20.34
		c0.21,17.64,0.84,35.27,0.95,52.91c0.15,24.43-0.02,48.87-0.04,73.31c0,1.36,0.12,2.72,0.18,4.07c0.86-0.93,1.27-1.87,1.28-2.81
		c0.15-13.07,0.36-26.13,0.32-39.2c-0.07-24.62-0.41-49.24-0.42-73.85c0-18.27,0.31-36.54,0.54-54.81
		c0.07-5.64,1.33-11.47,0.23-16.85c-1.16-5.69-1.44-11.05-0.61-16.69c0.4-2.75,0-5.63-0.05-8.45c-0.3-18.25-0.68-36.5-0.88-54.75
		c-0.12-10.99,0.07-21.98,0.11-32.97c3.1,0.67,5-1.19,6.76-3.27c0.43-0.51,0.8-1.07,1.1-1.67c3.18-6.36,6.57-6.92,12.49,0.6
		c-1.56-5.91-2.84-10.75-4.12-15.6c0.44-0.1,0.87-0.2,1.31-0.31c2.73,6.63,5.24,13.31,4.16,21.16c2.88-0.9,4.6-2.63,5.23-5.33
		c2.46-10.65,4.85-21.31,7.29-31.97c1.14-4.97,2.34-9.93,3.47-14.91c0.59-2.58,1.48-5.19,1.49-7.78c0.02-2.6,3.53-4.13,1.82-7.02
		c4.39-6.16,3.17-13.51,4.38-20.35c0.48-2.71,1.36-5.35,1.99-8.04c3.23-13.67,6.49-27.33,9.62-41.01c0.77-3.36,1.13-6.81,1.72-10.47
		c1.19,0.54,1.9,0.86,3.57,1.61c-0.97-2.36-1.56-3.78-2.14-5.2c3.33-2.43,4.59-2.28,5.59,1.21c1.24,4.31,1.93,8.78,3.01,13.14
		c1.95,7.85,4.11,15.66,5.99,23.53c0.86,3.61,1.25,7.33,1.81,11c0.07,0.46-0.23,0.99-0.13,1.43c0.44,1.86,1.8,3.99,1.29,5.49
		c-1.06,3.09-3.1,5.83-4.35,8.03c-10.03-4.08-12.94-13.76-18.89-22.02c-0.82,1.96-1.4,2.9-1.6,3.92
		c-1.59,8.13-3.18,16.25-4.64,24.41c-1.84,10.3-3.56,20.62-5.32,30.93c-0.78,4.58-0.54,9.66-2.53,13.61
		c-2.23,4.43-2.6,9.15-4.23,13.59c-0.57,1.54-1.03,3.25-0.96,4.86c0.18,4.15-0.88,7.79-3.75,10.71c1.66,2.81,3.04,5.41,4.67,7.85
		c3.57,5.34,6.71,5.96,11.42,1.76c4.86-4.33,10.51-4.56,16.32-3.76c5.63,0.78,7.92,3.84,7.99,9.43c0.21,16.98,0.46,33.97,0.67,50.95
		c0.15,11.96,0.28,23.93,0.39,35.89c0.07,7.29,0.24,14.59,0.13,21.88c-0.17,11.61-0.75,23.21-0.78,34.81
		c-0.04,13.97,0.35,27.95,0.46,41.92c0.16,21.32,0.3,42.65,0.35,63.97c0.09,39.65,0.03,79.31,0.19,118.96
		c0.12,28.31,0.63,56.62,0.73,84.94c0.16,45.97,0.13,91.95,0.19,137.93c0.02,20.8,0.08,41.6,0.06,62.39
		c-0.01,10.63-0.14,21.26-0.21,31.89c-48.31,0-96.62,0-144.93,0c-3.16-6.98-1.32-14.43-1.76-21.64c-0.53-8.59,0.5-17.27,0.5-25.91
		c-0.01-12.46-0.37-24.92-0.52-37.38c-0.24-20.15-0.52-40.3-0.63-60.46c-0.12-23.13-0.05-46.25-0.11-69.38
		c-0.04-15.29-0.3-30.58-0.23-45.87c0.05-12.47,0.67-24.94,0.62-37.41c-0.07-21.1-0.58-42.19-0.7-63.29
		c-0.2-36.65-0.17-73.3-0.36-109.95c-0.11-20.79-0.51-41.58-0.73-62.37c-0.37-34.8-0.75-69.61-1.05-104.41
		c-0.13-15.83-0.01-31.66-0.14-47.49C796.28,393.02,795.52,390.59,795.1,388.15z M873.52,778.24c-0.29,0.04-0.58,0.08-0.87,0.11
		c-0.61,8.52-1.23,17.04-1.81,25.56c-0.04,0.64,0.23,1.3,0.29,1.96c0.41,4.45,1.01,8.89,1.14,13.35c0.21,7.3,0.08,14.61,0.16,21.92
		c0.01,0.95,0.41,1.9,0.64,2.85c0.15-0.05,0.3-0.1,0.46-0.15C873.52,821.97,873.52,800.1,873.52,778.24z M873.6,847.74
		c-2.01,9.04-1.62,43.9,0,47.2C873.6,879.04,873.6,863.39,873.6,847.74z M873.39,1075.19c3.32-8.76,0.45-17.63,0.86-26.46
		c0.42-8.94,2.14-17.99-0.86-28.08C873.39,1039.62,873.39,1057.4,873.39,1075.19z M872.84,987.29c0.37-0.04,0.74-0.08,1.12-0.12
		c-0.06-11.21,0.57-22.43-0.02-33.64c-0.37,0-0.73,0-1.1,0C872.84,964.78,872.84,976.03,872.84,987.29z M871.84,720.33
		c0.3-0.02,0.6-0.04,0.91-0.06c0-10.08,0-20.15,0-30.23c-0.3,0.01-0.6,0.02-0.91,0.03C871.84,700.16,871.84,710.25,871.84,720.33z
		 M873.64,898.66c-0.31,0.01-0.62,0.03-0.93,0.04c0,12.24,0,24.47,0,36.71c0.31,0,0.62,0,0.93-0.01
		C873.64,923.15,873.64,910.9,873.64,898.66z M873.06,1016.1c0.39-0.02,0.77-0.05,1.16-0.07c-0.44-6.81,0.73-13.7-1.16-20.43
		C873.06,1002.43,873.06,1009.27,873.06,1016.1z M872.73,725.48c-0.25-0.01-0.51-0.02-0.76-0.02c0,6.34,0,12.68,0,19.02
		c0.25,0.01,0.51,0.01,0.76,0.02C872.73,738.16,872.73,731.82,872.73,725.48z M872.95,760.41c-0.51,0.02-1.03,0.04-1.54,0.06
		c0.17,3,0.34,6,0.5,9c0.35-0.02,0.69-0.05,1.04-0.07C872.95,766.4,872.95,763.4,872.95,760.41z M872.36,756.46
		c0.13-0.02,0.26-0.04,0.38-0.06c0-2.75,0-5.5,0-8.25c-0.32,0.02-0.64,0.04-0.97,0.05C871.97,750.96,872.17,753.71,872.36,756.46z
		 M902.62,378.75c-0.45-0.11-0.91-0.22-1.36-0.32c-0.51,2.07-1.02,4.15-1.53,6.22c0.47,0.1,0.95,0.2,1.42,0.3
		C901.63,382.88,902.13,380.82,902.62,378.75z M905.48,366.89c-0.21-0.04-0.42-0.08-0.63-0.11c-0.45,1.81-0.9,3.63-1.35,5.44
		c0.28,0.06,0.56,0.12,0.85,0.18C904.73,370.56,905.11,368.72,905.48,366.89z"/>
	<path d="M1019.29,1081c-2.48-10.78-2.98-21.65-1.84-32.65c0.35-3.4-0.1-6.88-0.08-10.32c0.03-4.32,0.01-8.66,0.3-12.97
		c0.35-5.29,0.79-10.38-0.79-15.74c-1.17-3.95-0.14-8.55-0.16-12.85c-0.04-6.8-0.16-13.59-0.22-20.39
		c-0.04-4.16-0.04-8.32-0.04-12.49c0-18.15,0.02-36.3,0-54.46c-0.04-29.64-0.12-59.28-0.18-88.91c-0.03-14.95,0.04-29.9-0.11-44.85
		c-0.14-14.63-0.63-29.26-0.74-43.89c-0.15-20.65-0.03-41.3-0.13-61.96c-0.07-14.45-0.42-28.9-0.48-43.35
		c-0.03-7.48,0.43-14.96,0.44-22.43c0.01-6.14-1.28-12.44-0.26-18.37c1.8-10.55-0.29-20.91-0.05-31.35
		c0.09-3.81,0.25-7.62,0.18-11.43c-0.13-6.82-0.55-13.63-0.61-20.45c-0.12-14.3-0.08-28.61-0.13-42.91
		c-0.05-19.12-0.12-38.25-0.19-57.37c-0.04-10.13-0.15-20.27-0.1-30.4c0.01-1.34,0.58-2.82,1.29-3.98c1.04-1.68,2.36-3.23,3.74-4.66
		c6.48-6.7,8.66-6.62,14.49,0.36c2.52,3.02,5.05,6.04,8.41,10.06c0-5.16,0-9.18,0-13.19c2.77-0.94,3.83-0.54,4.18,2.05
		c0.24,1.77,0.96,4.36,2.23,4.94c3.64,1.69,5.73,4.25,6.89,7.91c0.24,0.75,0.95,1.35,1.44,2.02c0,0-0.12-0.01-0.12-0.01
		c2.84-1.51,5.76-2.89,8.51-4.57c1.97-1.2,3.52-3.17,5.57-4.11c2.47-1.13,5.44-2.51,7.89-2.06c5.59,1.02,11.48,2.01,15.53,6.82
		l0.13-0.12c-0.4,1.6-1.17,3.21-1.16,4.81c0.26,26.97,0.68,53.94,0.93,80.92c0.16,16.49,0,32.98,0.14,49.47
		c0.21,25.96,0.65,51.91,0.82,77.87c0.2,31.98,0.13,63.97,0.33,95.95c0.14,22.48,0.7,44.95,0.82,67.43
		c0.17,33.15,0.03,66.29,0.17,99.44c0.08,19.29,0.52,38.57,0.64,57.86c0.06,9.32-0.46,18.64-0.39,27.96
		c0.22,30.8,0.64,61.6,0.87,92.41c0.09,11.32-0.13,22.64-0.2,33.96C1071.27,1081,1045.28,1081,1019.29,1081z M1066.87,429.51
		c0,7.89,0.27,15.37-0.07,22.82c-0.35,7.63-0.83,15.22,0.47,22.8c2.16-3.99,6.88-7.57,1.84-11.95c0.49-2.69,5.52-4.16,1.07-7.13
		c2.62-2.34,1.06-5.43,1.35-8.15c0.5-4.67,0.68-9.38,0.72-14.08C1072.27,431.04,1071.04,429.05,1066.87,429.51z M1065.22,394.76
		c3.43,9.05,1.19,18.2,1.64,27.18c0.17,3.48,1.05,5.19,5.28,5.8c1.33-12.81-0.45-25.26-0.38-38.6
		C1069.15,391.38,1067.19,393.07,1065.22,394.76z M1072.44,549.25c-1.38,1.25-2.68,1.92-3.06,2.93c-0.38,1-0.12,2.51,0.41,3.5
		c0.31,0.59,2.34,1.02,2.49,0.8c0.61-0.95,1.05-2.15,1.1-3.29C1073.42,552.16,1072.91,551.08,1072.44,549.25z M1073.03,683.29
		c-3.93,3.34-1.75,5.99-0.1,8.71c0.39-0.05,0.78-0.09,1.17-0.14C1073.75,689.01,1073.39,686.15,1073.03,683.29z M1074.65,805.98
		c0.64-2.92,1.12-5.09,1.71-7.76C1070.57,802.23,1070.57,802.23,1074.65,805.98z M1072.62,571.79c-3.72,1.68-3.77,2.21-0.79,7.52
		C1072.13,576.47,1072.36,574.28,1072.62,571.79z M1069.26,500.08c-0.41-0.06-0.81-0.12-1.22-0.18c0,2.19,0,4.38,0,6.57
		c0.41,0,0.81,0,1.22-0.01C1069.26,504.34,1069.26,502.21,1069.26,500.08z M1072.44,773.86c-0.92,2.45-1.48,3.94-2.3,6.13
		C1073.93,778.79,1073.27,776.9,1072.44,773.86z M1073.32,785.9c-0.37,0-0.75,0-1.12,0c0,1.43,0,2.87,0,4.3
		c0.37,0,0.75,0.01,1.12,0.01C1073.32,788.77,1073.32,787.33,1073.32,785.9z M1071.43,771.51c0.44,0.12,0.87,0.25,1.31,0.37
		c0.33-1.28,0.65-2.55,0.98-3.83c-0.4-0.11-0.8-0.23-1.2-0.34C1072.16,768.98,1071.79,770.24,1071.43,771.51z M1070.08,627.33
		c0.54-0.01,1.08-0.02,1.63-0.03c-0.14-1.17-0.27-2.34-0.41-3.5c-0.41,0.03-0.81,0.06-1.22,0.08
		C1070.08,625.03,1070.08,626.18,1070.08,627.33z M1072.44,619.32c-0.89-0.67-1.4-1.28-2.02-1.42c-0.31-0.07-0.82,0.72-1.23,1.12
		c0.5,0.52,0.94,1.18,1.55,1.48C1070.98,620.62,1071.61,619.91,1072.44,619.32z"/>
	<path d="M639.48,1081c-0.39-2.27-1.11-4.53-1.11-6.8c-0.03-57.49,0.05-114.98,0.05-172.48c0-56.33-0.1-112.66-0.09-168.98
		c0.01-45.82,0.15-91.64,0.16-137.46c0.02-53.16-0.04-106.32-0.06-159.48c-0.01-17.61,0-35.22,0-51.97
		c4.04-2.99,7.82-5.53,11.28-8.44c4.12-3.46,7.33-4.01,12.67-1.17c-2.38-12.47-7.45-23.96-8.91-36.23c0.46-0.17,0.91-0.33,1.37-0.5
		c0.72,1.67,1.7,3.28,2.1,5.03c2.03,8.74,3.85,17.53,5.88,26.27c0.54,2.32,1.53,4.54,2.31,6.81c0.49,0.01,0.98,0.01,1.47,0.02
		c1.57-4.49,3.13-8.99,4.7-13.48c0.42,0.12,0.83,0.25,1.25,0.37c-1.6,6.68-3.2,13.36-4.86,20.3c4.58-2.14,6.41-1.58,9.28,2.53
		c3.55,5.08,4.03,5.34,9.23,4.9c0,9.26,0.04,18.51-0.01,27.76c-0.05,9.47-0.31,18.95-0.25,28.42c0.06,9.3,0.37,18.6,0.62,27.9
		c0.25,9.39,0.79,18.78,0.79,28.17c0,9.27-0.68,18.53-0.78,27.8c-0.1,9.49,0.1,18.99,0.24,28.49c0.14,9.17,0.37,18.34,0.89,27.52
		c2.79-4.47,1.11-9.29,1.31-13.95c0.34-7.93,0.7-15.87,0.8-23.8c0.08-5.92-0.29-11.84-0.36-17.76c-0.04-3.82-0.02-7.64,0.18-11.45
		c0.36-6.83,0.87-13.64,1.32-20.47c-3.12-3.27-0.24-6.31,0.18-9.53c1.03-8.05,1.6-16.17,2.25-24.27c0.13-1.6-0.19-3.23-0.32-5.03
		c-1.67,0.09-2.89,0.16-4.7,0.26c0.54-2.72,0.81-5.01,1.47-7.17c2.41-7.96,1.42-16.09,1.34-24.18c-0.04-4.4,0.37-8.81,0.51-13.13
		c0.16-4.97,0.88-9.97,0.7-14.99c-0.19-5.33-0.06-10.66-0.06-16c0-0.32,0.11-0.64,0.2-1.1c5.35-2.01,10.58-4.55,16.71-2.83
		c2.97,0.83,4.65,2.33,4.68,5.46c0.16,17.3,0.22,34.61,0.5,51.91c0.17,10.98,0.75,21.96,0.98,32.94
		c0.47,22.44,0.93,44.87,1.19,67.31c0.41,35.63,0.61,71.25,0.99,106.88c0.35,32.8,0.82,65.61,1.22,98.41
		c0.24,19.47,0.45,38.94,0.67,58.41c0.19,17.15,0.27,34.29,0.56,51.44c0.29,17.3,0.9,34.6,1.14,51.9c0.14,9.81-0.2,19.62-0.28,29.43
		c-0.07,9.66-0.11,19.31-0.12,28.97c-0.01,15.14-0.08,30.29,0.04,45.43c0.16,20.82,0.49,41.64,0.67,62.45
		c0.03,3.32,1.2,7.18-3.02,9.16c-2,0-4,0-6,0c-0.45-0.2-0.9-0.54-1.36-0.57c-6.27-0.45-12.53-0.97-18.8-1.18
		c-1.25-0.04-2.55,1.14-3.82,1.75C672.13,1081,655.81,1081,639.48,1081z M691.26,737.08c4.75-1.84,3.68-4.44,2.08-7.37
		c-0.96-1.76-2.01-3.8-1.99-5.71c0.04-4.6,0.75-9.18,1.05-13.78c0.05-0.83-0.54-1.69-0.84-2.54c-0.34-0.07-0.69-0.13-1.03-0.2
		c-0.65,1.34-1.85,2.66-1.87,4.01c-0.16,10.61-0.14,21.22-0.01,31.82c0.01,1.08,0.95,2.37,1.84,3.12c0.38,0.32,2.25-0.23,2.49-0.79
		c0.51-1.19,0.7-2.72,0.45-3.99C693.16,740.26,692.22,739.02,691.26,737.08z M688.1,695.18c3.55-1.78,4.32-4.06,3.37-7.18
		c-0.86-2.81-2.03-5.64-2.19-8.51c-0.28-5.28,0.16-10.6,0.13-15.9c-0.01-1.65-0.56-3.29-0.87-4.94c-0.15,0.06-0.29,0.11-0.44,0.17
		C688.1,670.81,688.1,682.79,688.1,695.18z M692.97,757.55c2.44-2.58,3.2-4.73-0.44-7.72c-1.27,1.36-2.44,2.61-3.92,4.21
		C690.42,755.5,691.62,756.46,692.97,757.55z M688.04,643.35c2.34-5.72,2.39-10.4,0-12.83
		C688.04,634.83,688.04,638.68,688.04,643.35z M688.94,602.25c-0.32,0-0.64,0.01-0.96,0.01c0,3.85,0,7.69,0,11.54
		c0.32,0,0.64-0.01,0.96-0.01C688.94,609.94,688.94,606.09,688.94,602.25z M697,814.58c-1.42-1.03-2.27-2.14-3.07-2.11
		c-0.88,0.04-1.72,1.12-2.58,1.75c0.83,0.83,1.54,2.04,2.53,2.33C694.51,816.75,695.54,815.57,697,814.58z M691.88,780.24
		c0.41,0.13,0.83,0.25,1.24,0.38c0.49-0.96,1.39-1.94,1.34-2.86c-0.04-0.69-1.31-1.31-2.04-1.96c-0.29,0.16-0.57,0.32-0.86,0.48
		C691.67,777.6,691.78,778.92,691.88,780.24z M695.3,792.94c-1.12-0.62-1.79-1.31-2.35-1.22c-0.48,0.07-0.97,0.98-1.15,1.61
		c-0.06,0.21,0.87,1.04,1.24,0.98C693.68,794.2,694.24,793.62,695.3,792.94z M694.32,766.14c-0.85-0.58-1.49-1.27-1.75-1.15
		c-0.6,0.29-1.09,0.93-1.44,1.53c-0.07,0.12,0.83,1.11,1.1,1.04C692.87,767.38,693.4,766.8,694.32,766.14z M694.7,819.96
		c-0.61,0.86-1.33,1.57-1.21,1.77c0.33,0.56,0.98,1.03,1.6,1.28c0.18,0.07,1.08-0.84,1-1.12
		C695.93,821.28,695.34,820.79,694.7,819.96z M695.65,827.03c-0.33-0.24-0.66-0.48-0.99-0.72c-0.65,0.8-1.3,1.6-1.95,2.4
		c1.16,0.46,1.8,0.34,2.16-0.04C695.27,828.25,695.4,827.59,695.65,827.03z"/>
	<path d="M804.73,328.65c-2.69-0.41-4.21-1.41-4.78-4.63c-1.11-6.17-3.27-12.14-4.67-18.27c-1.8-7.9-3.27-15.87-4.88-23.81
		c-0.23-1.14-0.15-2.48-0.75-3.37c-0.75-1.11-1.94-2.32-3.14-2.58c-0.94-0.2-2.64,0.69-3.21,1.6c-2.25,3.6-4.99,6.34-8.8,8.48
		c-1.85,1.04-2.83,4.2-3.55,6.6c-2.41,8.02-4.52,16.12-6.74,24.19c-0.22,0.8-0.48,1.59-0.62,2.4c-1.11,6.64-2.19,13.28-3.43,20.81
		c-0.53-1.31-0.76-1.89-1-2.48c-0.26-0.05-0.51-0.11-0.77-0.16c-0.94,5.56-3.75,11.63-2.4,16.56c2.27,8.33-0.83,15.39-2.17,22.89
		c-0.92,5.17,1.09,9.18,3.76,12.94c1.64,2.31,8.03,1.66,10.5-0.71c3.55-3.39,7.54-5.8,12.27-7.34c3.84-1.25,6.78-0.56,9.62,2.02
		c1.72,1.56,3.55,3.01,5.33,4.51c-3.27-0.04-2.06,2.33-2.02,3.93c0.3,13.44,0.82,26.88,0.96,40.32c0.2,19.77,0.04,39.54,0.21,59.3
		c0.13,14.46,0.7,28.92,0.8,43.38c0.18,23.78,0.05,47.57,0.21,71.35c0.16,24.64,0.59,49.29,0.75,73.93
		c0.13,19.66-0.07,39.32,0.05,58.99c0.27,45.46,0.75,90.92,0.95,136.39c0.17,39.13,0.09,78.26,0.11,117.39
		c0.02,27.31-0.04,54.63,0.15,81.94c0.02,3.34-1.23,4.88-4.05,5.77c-3.66,0-7.33,0-10.99,0c-5.33-0.93-10.66-2.12-15.99,0
		c-12.66,0-25.32,0-37.98,0c-5.33-1.97-5.34-2.04-5.35-7.77c-0.05-26.47-0.1-52.95-0.21-79.42c-0.2-47.14-0.35-94.27-0.7-141.41
		c-0.23-31.64-0.87-63.28-1.16-94.92c-0.32-35.47-0.39-70.95-0.67-106.42c-0.31-40.64-0.63-81.28-1.14-121.92
		c-0.19-15.47-1.15-30.93-1.32-46.41c-0.33-29.97-0.21-59.94-0.61-89.9c-0.08-5.58,4.83-5.99,7.24-8.92
		c0.87-1.06,2.58-1.45,3.94-2.07c3.05-1.4,5.01-0.92,6.64,2c3.58,6.4,6.37,12.89,6.32,20.62c-0.1,15.27,0.55,30.55,0.92,45.83
		c0.01,0.26,0.33,0.52,1.05,1.58c0.38-1.66,0.83-2.76,0.86-3.87c0.45-13.14,0.7-26.29,1.29-39.43c0.36-7.96,2.38-16.03,1.45-23.79
		c-0.71-5.95,2.05-10.68,2.28-16.09c0.09-2.12,0.46-4.4,1.37-6.29c1.52-3.15,2.07-6.29,2.39-9.79c0.48-5.22,2.07-10.36,3.44-15.47
		c0.85-3.15,0.05-6.6,2.92-9.53c1.19-1.21-0.33-4.79,0.42-7.52c1.7-6.2,2.66-12.61,3.95-18.93c1.39-6.79,2.69-13.59,4.26-20.34
		c0.92-3.94,2.97-7.72,3.24-11.67c0.23-3.34,1.48-6.15,2.22-9.22c1.12-4.65,0.75-9.63,3.36-13.97c0.46-0.76,0.11-1.97,0.26-2.95
		c0.43-2.88,0.93-5.75,2.37-8.65c0.83,3.22,1.66,6.43,2.6,10.03c0.5-0.28,1.1-0.62,2.02-1.15c2.21,9.59,4.38,19.08,6.59,28.56
		c0.86,3.67,1.89,7.31,2.7,10.99c1.22,5.51,2.21,11.07,3.52,16.56c0.87,3.66,2.28,7.19,3.19,10.85c1.54,6.17,1.52,12.72,4.57,18.52
		L804.73,328.65z M765.99,396.29c0.59,9.72-0.95,18.52-0.08,28.29c2.54-3.36,2.78-5.56,1.64-8.68c-0.78-2.15,0.95-5.2,1.47-7.87
		c0.08-0.41-0.28-0.95-0.51-1.38c-1.73-3.16-1.69-5.93,2.7-8.29C769.23,397.57,768.04,397.1,765.99,396.29z M770,481.06
		c0-3.6,0-7,0-10.61C765.29,475.85,765.21,478.67,770,481.06z M769.61,454.67c0.19-0.06,0.37-0.12,0.56-0.19
		c0-3.11,0.18-6.24-0.13-9.31c-0.07-0.72-1.81-1.27-2.78-1.9c-0.43,1.07-1.41,2.29-1.16,3.16c0.44,1.51,1.79,2.73,2.46,4.2
		C769.13,451.88,769.28,453.32,769.61,454.67z M768.76,510.51c0.37,0.05,0.75,0.1,1.12,0.15c0-3.26,0-6.53,0-9.79
		c-0.44,0-0.89-0.01-1.33-0.01C766.33,504.04,770.55,507.31,768.76,510.51z M779.08,397.11c-2.98,2.44-2.98,2.44-1.68,5.87
		C780.4,400.9,780.4,400.9,779.08,397.11z M769.93,484.99c-2.12,2.36-3.83,4.7,0,7.02C769.93,489.45,769.93,487.22,769.93,484.99z
		 M775.22,678.6c-2.17,5.16-1.97,5.62,1.9,5.44C776.54,682.4,776.02,680.9,775.22,678.6z M775.77,657.85
		c-0.46-0.03-0.93-0.05-1.39-0.08c0,1.58,0,3.16,0,5.26C777.94,661.31,776.89,659.59,775.77,657.85z M776.19,799.95
		c0.38-0.16,0.76-0.32,1.13-0.48c-0.6-2.34-1.19-4.69-1.79-7.03c-0.33,0.08-0.66,0.17-0.99,0.25
		C774.57,795.24,773.69,798.01,776.19,799.95z M775.67,762.27c-0.39-0.06-0.79-0.13-1.18-0.19c0.73,2.72-1.71,5.42,1.18,9.23
		C775.67,767.59,775.67,764.93,775.67,762.27z M775.8,821.32c-0.27,0.05-0.54,0.1-0.81,0.15c0,2.39,0,4.79,0,7.18
		c0.27-0.02,0.54-0.03,0.81-0.05C775.8,826.17,775.8,823.74,775.8,821.32z M769.93,592.01c0.35-0.09,0.69-0.17,1.04-0.26
		c0.4-2.26-0.6-3.78-2.23-4.96c-0.33,0.17-0.66,0.33-1,0.5C768.47,588.86,769.2,590.44,769.93,592.01z M775.63,726.48
		c-0.53,0.21-1.05,0.42-1.58,0.63c0.49,1.2,0.98,2.4,1.47,3.6c0.5-0.2,1-0.4,1.5-0.6C776.56,728.9,776.1,727.69,775.63,726.48z
		 M769.89,462.94c-0.41,0.05-0.82,0.1-1.23,0.16c0.16,1.16,0.33,2.32,0.49,3.48c0.36-0.05,0.73-0.09,1.09-0.14
		C770.13,465.27,770.01,464.11,769.89,462.94z M769.42,529.26c0.32-0.05,0.64-0.11,0.96-0.16c-0.08-1.71-0.17-3.42-0.25-5.13
		c-0.24,0.01-0.47,0.02-0.71,0.03C769.42,525.75,769.42,527.5,769.42,529.26z"/>
	<path d="M967.03,368.22c0.65,0.31,1.68,0.45,1.91,0.95c2.57,5.78,4.07,11.82,4.68,18.15c0.24,2.47,1.46,4.84,2.23,7.26
		c0.48,0.1,0.95,0.2,1.43,0.3c2.68-2.84,5.48-5.59,8.02-8.55c5.07-5.91,10.23-6.73,17.05-2.78c2.77,1.6,5.8,2.74,8,3.76
		c0,6.97-0.06,13.09,0.01,19.2c0.29,27.47,0.61,54.94,0.93,82.41c0.17,14.8,0.49,29.6,0.51,44.4c0.02,12.64-0.46,25.28-0.4,37.92
		c0.13,24.46,0.46,48.91,0.77,73.37c0.26,20.64,0.71,41.28,0.88,61.93c0.07,8.63-0.53,17.26-0.5,25.89
		c0.07,16.44,0.48,32.89,0.54,49.33c0.04,12.28-0.44,24.57-0.34,36.85c0.11,13.13,0.81,26.26,0.91,39.39
		c0.1,12.47-0.37,24.95-0.33,37.42c0.04,11.81,0.54,23.63,0.64,35.44c0.07,7.97-0.29,15.94-0.33,23.91
		c-0.06,10.94,0.03,21.88,0.01,32.82c-0.01,5.95-0.2,11.91-0.15,17.86c0.05,5.66,0.34,11.31,0.44,16.97c0.07,3.82,0,7.64,0.03,11.46
		c0.03,3.64,0.11,7.29,0.15,10.93c0.05,5.45,0.13,10.91,0.12,16.36c-0.01,3.82-0.1,7.64-0.27,11.45c-0.13,2.79-0.45,5.58-0.68,8.36
		c-20.99,0-41.98,0-62.97,0c-0.25-1.47-0.72-2.93-0.73-4.4c-0.15-35.97-0.27-71.94-0.35-107.91c-0.09-44.82-0.08-89.64-0.2-134.45
		c-0.14-50.48-0.44-100.96-0.57-151.44c-0.11-42.15-0.06-84.3-0.09-126.45c-0.01-16.33,0.03-32.65-0.13-48.98
		c-0.09-9.62-0.73-19.24-0.74-28.86c-0.01-11.14,0.51-22.28,0.59-33.42c0.11-14.8,0.01-29.59,0-44.39c0-2.96,0-5.92,0-8.95
		c4.47,0.06,7.59-3.49,11.16-6.31c1.29-1.02,2.94-1.88,4.54-2.16c3.12-0.55,4.89-1.99,4.57-5.26c-0.32-3.3-0.82-6.57-1.24-9.86
		L967.03,368.22z M1007.58,532.66c0.13,0.15,0.26,0.3,0.38,0.44c0-4.08,0-8.16,0-12.25c-0.13,0-0.26-0.01-0.38-0.01
		C1007.58,524.78,1007.58,528.72,1007.58,532.66z M1009.04,625.06c-0.14-0.06-0.27-0.12-0.41-0.19c0,2.35,0,4.7,0,7.05
		c0.14-0.01,0.27-0.01,0.41-0.02C1009.04,629.62,1009.04,627.34,1009.04,625.06z M1007.65,515.09c0.08-0.01,0.15-0.02,0.23-0.02
		c0-2.34,0-4.68,0-7.01c-0.08,0.01-0.15,0.02-0.23,0.03C1007.65,510.42,1007.65,512.75,1007.65,515.09z M1008.62,691.03
		c0.13,0,0.26,0,0.39,0c0-2.07,0-4.14,0-6.21c-0.13,0-0.26,0-0.39,0C1008.62,686.89,1008.62,688.96,1008.62,691.03z"/>
	<path d="M591.51,1081c-0.6-2.52-1.71-5.04-1.72-7.56c-0.13-28.66-0.08-57.32-0.09-85.98c-0.01-53.32-0.03-106.63-0.03-159.95
		c0-33.99,0.05-67.97,0.04-101.96c-0.01-26.46-0.12-52.92-0.09-79.38c0.03-26.45,0.28-52.9,0.27-79.35
		c-0.01-28.75-0.21-57.5-0.3-86.26c-0.04-11.57-0.08-23.14,0-34.72c0.07-8.96,0.48-17.93,0.47-26.89
		c-0.01-10.8-0.36-21.61-0.46-32.41c-0.04-4.59-0.3-9.01,2.37-13.45c1.82-3.01,1.4-7.34,2.14-11.05c0.36-1.77-0.54-4.2,2.2-5.01
		c0.19-0.06,0.18-0.99,0.17-1.52c-0.02-1.14-0.38-2.35-0.1-3.41c1.93-7.51,4.09-14.97,5.97-22.5c1.11-4.41,1.72-8.95,2.78-13.38
		c2.64-11.06,5.44-22.07,8.1-33.12c1.39-5.75,2.59-11.55,3.92-17.31c0.88-3.79,1.87-7.55,2.74-11.34c1.89-8.25,3.74-16.5,5.74-25.34
		c0.93,0.73,1.57,1.22,2.24,1.75c0.5-0.56,1-1.12,1.97-2.23c4.87,20.64,9.63,40.8,14.38,60.95c-0.63,0.16-1.26,0.33-1.9,0.49
		c-1.71-6.93-3.41-13.86-5.18-21.04c-1.07,0.66-1.89,1.17-2.91,1.81c-1.41-0.88-2.92-1.81-4.55-2.82c-3.56,2.5-5.72,7.59-11.54,5.54
		c-1.24,8.05-2.51,15.73-3.59,23.44c-1.53,10.86-4.99,21.28-7.14,31.99c-1.85,9.24-3.6,18.5-5.7,27.69
		c-0.84,3.7-2.26,7.31-3.85,10.77c-1.54,3.34-0.82,6.49-0.16,9.74c0.58,2.83,2.44,4.08,5.09,3.35c2.69-0.73,5.21-2.07,7.84-3.04
		c3.23-1.19,6.46-2.37,9.75-3.38c6.57-2.01,10.67,2.22,14.69,6.23c0.77,0.76,0.83,2.45,0.85,3.71c0.19,17.97,0.4,35.94,0.45,53.9
		c0.07,26.49,0,52.98,0,79.47c0,44.14,0.05,88.29-0.02,132.43c-0.02,10.82-0.6,21.63-0.55,32.45c0.14,36.47,0.56,72.94,0.65,109.41
		c0.11,43.82,0.01,87.64-0.01,131.47c-0.02,28.66,0.01,57.31-0.11,85.97c-0.07,16.11-0.49,32.22-0.58,48.33
		c-0.03,5.65,0.58,11.3,0.67,16.96c0.08,5.29-0.61,5.53-5.72,4.93c-3.41-0.4-6.93-0.06-10.39,0.17c-5.61,0.38-11.21,0.95-16.81,1.44
		C599.5,1081,595.51,1081,591.51,1081z M631.32,434.43c-3.9,0.44-3.96,3.07-3.95,5.64c0.02,8.15,0.1,16.29,0.17,24.44
		c0.02,2.6,1.16,4.03,4.48,3.75c-0.45-5.8,2.49-11.72-1.79-17.19c-0.45-0.58-0.29-2.07,0.14-2.82c3.02-5.29,1.71-11.04,2.03-16.63
		c0.17-2.94-0.92-4.64-3.74-5.35C625.77,429.72,629.67,431.19,631.32,434.43z M627.59,530.8c-0.11,9.85-0.72,19.22,1.95,28.68
		c1.44-1.09,2.63-2.34,2.68-3.64c0.23-6.81,0.19-13.62,0.21-20.44C632.43,532.97,631.45,531.28,627.59,530.8z M628.97,619.62
		c-2.46,2.5-1.3,5.55-1.24,8.42c0.11,5.07,0.86,10.14-1.5,15.06c-1.53,3.18-0.23,4.86,4.47,6.26c0.23-1.46,0.94-2.98,0.58-4.19
		c-1.79-6.13-0.94-11.96,0.91-17.93C633.42,623.3,632.26,621.3,628.97,619.62z M630.54,503.66c0.68-4,1.53-7.48,1.81-11.01
		c0.29-3.61,0.17-7.28-0.07-10.91c-0.07-1.02-1.18-1.96-1.82-2.94c-0.91,0.77-2.72,1.76-2.59,2.26c0.89,3.41-0.15,6.89,0.32,10.06
		c0.4,2.68,0.34,5.02,0.05,7.61C628.08,500.26,626.77,502.78,630.54,503.66z M618.39,410.63c-0.34,1.65-0.62,3.08-0.94,4.5
		c-1.46,6.39-0.63,7.3,5.72,6.21c0.29-0.05,0.54-0.35,0.78-0.51c0-4.02,0-8,0-11.98c-0.3-0.07-0.59-0.13-0.89-0.2
		c-0.82,1.08-1.64,2.15-2.45,3.21C619.85,411.44,619.16,411.06,618.39,410.63z M630.6,391.38c0.08-0.11,1.1-0.99,1.24-2
		c0.19-1.33-0.13-2.81-0.59-4.1c-0.15-0.41-1.87-0.82-2.1-0.55c-0.9,1.04-2.11,2.37-2.07,3.54c0.12,3.1,0.59,6.25,1.4,9.24
		c0.45,1.65,1.87,3.04,2.86,4.55c0.47-0.21,0.94-0.42,1.41-0.63C632.1,398.35,631.44,395.27,630.6,391.38z M628.85,663.49
		c-0.17,3.22-2.4,5.02-0.98,8.46c0.76,1.84-1.44,5.17,1.12,7.67C633.3,671.92,633.45,667.27,628.85,663.49z M631.16,575.83
		c1.87-3.36,1.54-6.51,0.5-9.6c-0.23-0.69-1.51-1.5-2.23-1.43c-0.65,0.06-1.6,1.19-1.71,1.95
		C627.22,570.04,627.15,573.32,631.16,575.83z M628.91,589.62c-2.84,5.19-2.16,7.17,3.02,8.64
		C632.57,594.87,632.94,591.81,628.91,589.62z M628.49,605.59c0.64,0.36,1.27,0.73,1.91,1.09c0.53-1.1,1.11-2.18,1.53-3.32
		c0.03-0.09-1.38-0.88-1.43-0.82C629.76,603.51,629.14,604.56,628.49,605.59z M632.11,765.79c-2.11,1.1-2.86,2.11-1.25,3.83
		c0.17,0.19,0.6,0.14,1.25,0.27C632.11,768.63,632.11,767.45,632.11,765.79z M630.37,580.94c-0.52,0.65-1.21,1.2-1.11,1.45
		c0.19,0.49,0.76,1.04,1.26,1.13c0.34,0.06,0.82-0.6,1.24-0.94C631.38,582.13,631,581.69,630.37,580.94z"/>
	<path d="M1094.16,393.05c1.49-0.83,3.17-1.44,4.43-2.53c1.36-1.18,2.26-2.87,3.49-4.22c1.78-1.98,4.04-2.43,6.31-1.08
		c5.62,3.34,9.07,7.92,8.97,14.92c-0.18,12.63-0.1,25.27,0.02,37.91c0.28,31.47,0.63,62.95,0.97,94.42
		c0.29,27.13,0.64,54.27,0.91,81.4c0.15,14.8-0.47,29.64,0.48,44.38c0.91,14.06,0.06,28.08,0.5,42.11
		c0.4,12.62-1.36,25.5,0.66,37.81c1.57,9.55-0.42,18.67,0.42,28.01c0.88,9.84-0.16,19.84-0.03,29.77c0.09,6.64,0.97,13.26,1.14,19.9
		c0.16,6.11-0.23,12.24-0.22,18.36c0,4.92,0.23,9.84,0.35,14.76c0.18,6.95,0.55,13.9,0.49,20.85c-0.09,11.9-0.61,23.8-0.62,35.7
		c0,6.08,0.96,12.16,1.07,18.24c0.08,4.89-0.56,9.79-0.73,14.7c-0.12,3.54-0.03,7.09,0.06,10.63c0.14,5.69,0.33,11.37,0.55,17.06
		c0.25,6.41,0.55,12.82,0.83,19.23c0.01,0.33,0.13,0.68,0.06,0.99c-2.28,11.01,0.69,22.03,0.01,33.04
		c-0.21,3.37,0.12,6.77,0.1,10.16c-0.05,10.05-0.24,20.1-0.19,30.15c0.02,3.63,0.81,7.26,0.83,10.88c0.02,3.47-0.5,6.94-0.78,10.41
		c-8,0-15.99,0-23.99,0c-0.06-11.81-0.11-23.63-0.19-35.44c-0.18-25.27-0.29-50.55-0.6-75.82c-0.49-39.26,0.56-78.52-0.93-117.78
		c-0.44-11.64-0.01-23.3-0.05-34.96c-0.08-25.63-0.15-51.25-0.33-76.88c-0.1-14.3-0.53-28.59-0.62-42.89
		c-0.13-19.8-0.07-39.61-0.13-59.41c-0.08-27.78-0.15-55.55-0.33-83.33c-0.08-12.13-0.52-24.25-0.62-36.38
		c-0.19-22.14-0.19-44.28-0.4-66.42c-0.18-17.8-0.54-35.61-0.88-53.41c-0.04-1.79-0.56-3.58-0.86-5.37L1094.16,393.05z"/>
	<path d="M993.76,320.48c-0.54-2.97,1.6-6.87-3.37-7.23c0.35-2.87,0.73-5.91,1.11-8.96c-0.46-0.09-0.92-0.18-1.38-0.27
		c-1.01,5.06-2.02,10.11-3.13,15.67c-0.57-0.77-1.33-1.32-1.29-1.8c0.22-2.31,0.58-4.62,1.02-6.9c1.03-5.33,2.01-10.67,3.22-15.95
		c2.19-9.52,4.7-18.97,6.77-28.52c1.09-5.06,1.4-10.28,2.29-15.38c1.42-8.1,3.05-16.16,4.68-24.76c5.26,9.56,7.61,19.33,9.47,29.27
		c0.89,4.74,2.09,9.42,2.72,14.19c0.93,6.99-2.03,12.81-6.22,18.15c-1.1,1.4-2.53,2.82-2.91,4.43c-0.83,3.57-3.37,5.48-5.92,7.59
		c-1.17,0.97-2.37,2.36-2.72,3.78c-1.26,4.94-2.14,9.98-3.21,14.97C994.81,319.18,994.4,319.53,993.76,320.48z M992.15,295.41
		c-0.17,0.02-0.33,0.04-0.5,0.06c0,2.15,0,4.3,0,6.45c0.3-0.02,0.59-0.03,0.89-0.05C992.41,299.72,992.28,297.56,992.15,295.41z"/>
	<path d="M1066.24,306.96c-0.09-5.47-0.79-11.02-0.12-16.4c0.78-6.18,2.87-12.18,4.21-18.3c1.42-6.47,2.61-13,3.93-19.49
		c0.65-3.23,1.36-6.45,2.55-9.67c3.24,8.42,1.82,17.31,2.88,25.6c0.91-4.46,1.87-9.18,2.83-13.91c0.26-0.05,0.52-0.09,0.77-0.14
		c1.71,7.58,3.59,15.13,5.06,22.76c0.57,2.98,0.48,5.88-1.78,8.82c-2.24,2.91-2.9,7-4.68,10.34c-2.32,4.35-4.97,8.54-7.71,12.65
		c-0.73,1.1-2.31,1.63-2.76,1.15c-1.77-1.17-3.54-2.33-5.3-3.5C1066.12,306.86,1066.24,306.96,1066.24,306.96z"/>
	<path d="M1056.67,396.97l0.12,0.01c-2.67-5.64-0.06-11.08,0.6-16.6c0.23-1.94,0.21-3.93,0.58-5.84c0.37-1.89,1.08-3.7,1.65-5.55
		c-0.48-0.15-0.95-0.31-1.43-0.46c-0.88,3.05-1.86,6.08-2.62,9.16c-0.82,3.29-1.45,6.63-2.13,9.83c-3.33-0.06-4.03-1.29-3.35-3.59
		c0.56-1.91,1.13-3.84,1.43-5.79c0.08-0.51-0.81-1.17-1.49-2.08c4.68-4.67,3.91-10.91,2.65-17.34c-1.18,3.84-2.36,7.69-3.54,11.53
		c-0.24-0.01-0.48-0.03-0.72-0.04c0.12-1.29,0.11-2.62,0.4-3.87c1.71-7.42,3.47-14.83,5.28-22.23c0.31-1.25,1.04-2.39,1.37-3.64
		c0.27-1.05,0.26-2.18,0.31-3.28c0.02-0.3-0.32-0.67-0.23-0.92c3.25-9.3,3.04-19.46,7.08-28.55c0.2-0.45,0.49-0.86,0.43-0.76
		c1.29,0,2.24,0,3.19,0l-0.12-0.1c0.21,0.63,0.32,1.32,0.64,1.88c2.04,3.5,1.61,6.91,0.72,10.79c-2.01,8.76-3.19,17.71-4.83,26.57
		c-0.75,4.05-1.32,8.23-2.85,11.99c-0.95,2.33,1.56,2.38,1.35,3.98C1059.6,373.69,1058.15,385.34,1056.67,396.97z"/>
	<path d="M687.32,293.14c0.6-0.54,1.65-1.02,1.73-1.64c0.6-4.52,0.94-9.07,1.48-13.6c0.67-5.56,1.21-11.15,2.25-16.64
		c1.37-7.3,3.14-14.53,4.8-21.77c0.28-1.21,0.87-2.34,1.31-3.51c0.45,0.03,0.89,0.06,1.34,0.09c0.3,5.12,0.61,10.24,0.93,15.67
		c4.27,0.07,4.88,3.31,5.64,6.65c2.3,10.16,4.75,20.29,6.94,29.6c-1.26,1.79-2.2,3.12-3.02,4.29c-1.63-3.68-3.32-7.5-5.26-11.88
		c-4.28,3.79-7.01,0.05-10.87-1.04c-1.79,6.72-3.55,13.32-5.49,20.59c-0.64-2.67-1.15-4.79-1.66-6.91L687.32,293.14z"/>
	<path d="M809.5,356.87c-2.21-3.12-3.33-6.51-3.72-10.4c-0.33-3.39-1.85-6.65-2.84-9.98c-0.56-1.9-1.09-3.8-1.53-5.35
		c1.28-0.96,2.29-1.72,3.31-2.48c0,0-0.06,0.07-0.06,0.07c1.25,5.67,2.97,11.28,3.58,17.01c0.4,3.73,2.72,7.32,1.13,11.23
		L809.5,356.87z"/>
	<path d="M646.51,302.37c2.56,5.07,5.65,20.5,4.28,23.88c-1.08-3.6-1.99-6.31-2.68-9.06c-1-3.94-0.52-8.25-3.09-11.84
		C644.76,304.97,645.88,303.59,646.51,302.37z"/>
	<path d="M1116.06,379.96c-3.85-2.98-4.89-6.22-6.35-16.6c0.31-0.1,0.62-0.2,0.94-0.3C1112.45,368.69,1114.26,374.32,1116.06,379.96
		z"/>
	<path d="M957.08,321.29c0.86,2.55,1.84,5.06,2.55,7.65c0.88,3.18,1.54,6.42,2.36,9.88c-3.31-2.46-5.92-12.5-4.81-17.63
		L957.08,321.29z"/>
	<path d="M809.38,356.97c0.7,0.64,1.82,1.16,2.04,1.94c1.27,4.48,2.32,9.02,2.7,13.73c-1.95-5.16-4.86-10.02-4.61-15.77
		L809.38,356.97z"/>
	<path d="M678.8,325.94c1.13-5.47,2.26-10.95,3.38-16.42c0.48,0.09,0.97,0.18,1.45,0.27c-1.07,5.48-2.14,10.97-3.21,16.45
		C679.89,326.14,679.34,326.04,678.8,325.94z"/>
	<path d="M967.13,368.14c-1.18-3.85-2.54-7.66-3.44-11.58c-0.33-1.42,0.43-3.09,0.69-4.65l-0.12,0.12
		c1.24,3.53,2.77,6.99,3.61,10.61c0.39,1.7-0.52,3.7-0.85,5.56C967.03,368.22,967.13,368.14,967.13,368.14z"/>
	<path d="M957.17,321.19c-1.64-5.36-3.29-10.71-4.93-16.07c0.48-0.13,0.95-0.26,1.43-0.39c1.63,5.4,3.57,10.71,3.41,16.56
		L957.17,321.19z"/>
	<path d="M643.36,291.44c3.37,6.4,3.37,6.4,1.66,10.17C643.43,298.54,642.09,295.79,643.36,291.44z"/>
	<path d="M678.78,332.16c-0.57,3.82-0.77,7.73-2.52,11.27c-0.38-0.08-0.76-0.17-1.14-0.25c0.76-3.74,1.52-7.48,2.27-11.21
		C677.85,332.03,678.32,332.1,678.78,332.16z"/>
	<path d="M964.38,351.91c-0.48,0.01-1.29,0.21-1.39,0.01c-1.6-2.87-1.86-5.88-1.24-8.94c0.5-0.06,1.01-0.12,1.51-0.18
		c0.34,3.08,0.67,6.15,1.01,9.23L964.38,351.91z"/>
	<path d="M845.77,316.67c-0.59,3.83-1.19,7.65-1.78,11.48c-0.2-0.01-0.4-0.02-0.6-0.03c0.24-3.86,0.49-7.73,0.73-11.59
		C844.67,316.57,845.22,316.62,845.77,316.67z"/>
	<path d="M674.4,374.56c-0.63,1.7-1.26,3.39-1.89,5.09c-2.56-2.75-1.77-4.43,0.35-5.71C673.38,374.15,673.89,374.36,674.4,374.56z"
		/>
	<path d="M653.03,335.43c-0.77-2.46-1.53-4.92-2.3-7.39c0.4-0.14,0.8-0.28,1.21-0.43c0.85,2.43,1.7,4.87,2.54,7.3
		C654,335.09,653.51,335.26,653.03,335.43z"/>
	<path d="M729.63,350.3c0.93,3.23,1.85,6.45,2.78,9.68c-0.32,0.1-0.65,0.2-0.97,0.3c-0.99-3.21-1.98-6.42-2.96-9.63
		C728.86,350.53,729.25,350.41,729.63,350.3z"/>
	<path d="M683.15,304.7c0.57-2.29,1.15-4.58,1.72-6.88c0.52,0.12,1.04,0.25,1.56,0.37c-0.51,2.29-1.02,4.59-1.54,6.88
		C684.31,304.95,683.73,304.82,683.15,304.7z"/>
	<path d="M674.4,353.89c0.12-2.05-3.1-4.24,1.39-6.82c-0.62,2.76-1.07,4.73-1.51,6.71L674.4,353.89z"/>
	<path d="M757.76,352.67c0-1.51,0-3.03,0-4.54c0.29-0.02,0.59-0.03,0.88-0.05c0,1.51,0,3.02,0,4.52
		C758.35,352.62,758.06,352.65,757.76,352.67z"/>
	<path d="M687.44,293.04c-3.24-2.18-0.02-3.92-0.49-5.91c0.51,0.05,1.02,0.1,1.53,0.16c-0.39,1.95-0.78,3.91-1.17,5.86
		L687.44,293.04z"/>
	<path d="M887.98,362.49c-0.47-1.57-0.95-3.13-1.42-4.7c0.47-0.14,0.94-0.29,1.42-0.43c0.45,1.57,0.91,3.14,1.36,4.71
		C888.89,362.21,888.43,362.35,887.98,362.49z"/>
	<path d="M1108.91,354.26c0.19,1.61,0.38,3.22,0.56,4.83c-0.29,0.05-0.57,0.1-0.86,0.15c-0.26-1.61-0.52-3.22-0.77-4.82
		C1108.2,354.36,1108.55,354.31,1108.91,354.26z"/>
	<path d="M1065.44,297.74c-0.29,1.42-0.57,2.85-0.86,4.27c-0.44-0.12-0.87-0.23-1.31-0.35c0.45-1.38,0.9-2.75,1.35-4.13
		C1064.9,297.6,1065.17,297.67,1065.44,297.74z"/>
	<path d="M674.29,353.78c-0.26,1.63-0.53,3.27-0.79,4.9c-2.04-2.35-0.81-3.65,0.91-4.79L674.29,353.78z"/>
</g>
<g class="highlight-fill">
	<path d="M1699.98,505.1c0.15,4.82-2.34,9.77,0.67,14.46c-1.55,3.82,0.12,8.66-3.89,11.72c-2.05,1.57-1.92,3.66-0.74,5.76
		c-2.8,0.14-2.92,2.09-2.93,4.21c-0.03,6.78-0.14,13.55-0.14,20.33c0,1.36,0.33,2.71,0.5,4.07c0.37-0.02,0.74-0.04,1.11-0.06
		c0.96-9.52,1.98-19.03,1.34-28.66c2.17,1.15,3.61,1.2,4.22-1.84c0.63-3.13,1.86-6.14,3.13-10.19c3.19,5.73,3.59,10.99,2.16,15.8
		c-0.93,3.12-1.41,5.56-0.09,8.49c0.49,1.08,0.29,2.48,0.4,3.73c-0.41,0.11-0.83,0.22-1.24,0.33c-1.07-3.11-2.14-6.22-3.21-9.33
		c-0.81,5.87-4.75,11.79,0.46,17.42c-0.7,3.12,2.59,6.41-0.49,9.55c-0.43,0.43,0.46,2.15,0.74,3.28c0.36-0.03,0.72-0.06,1.07-0.08
		c0.52-1.32,1.04-2.63,1.55-3.95c-0.16,5.68,0.11,11.29,1.06,16.9c0.99,5.83-0.06,11.67-0.51,17.5c-0.45,5.79-0.93,11.58-2.18,17.58
		c-0.5-0.84-1-1.67-1.61-2.69c-0.17,0.56-0.41,0.97-0.41,1.39c-0.04,4.77,1.35,10.12-0.34,14.19c-3.9,9.43,0.36,18.36-0.06,27.47
		c-0.12,2.53-0.79,5.03-1.11,7.55c-0.23,1.79-0.38,3.6-0.42,5.41c-0.07,2.99-0.02,5.99-0.02,9.17c1.25,0.13,2.33,0.24,3.33,0.34
		c0-6.69,0-13.22,0-19.75c2.63,3.6,3.38,7.08,2.44,11.71c-1.09,5.41-2.41,11.5,1.84,16.63c0.39,0.48,0.77,1.24,0.69,1.79
		c-1.35,8.77,4.78,16.23,3.81,24.96c-3.02-2.95-4.3,1.62-6.64,2.09c-0.59-3.7-1.19-7.38-1.84-11.46c-4.64,3.46-5.84,8.35-3.96,12.64
		c0.98,2.24,1.49,4.7,2.29,7.3c1.03-0.38,1.87-0.68,2.8-1.02c0.29,0.44,0.76,0.83,0.79,1.25c0.17,2.32,0.39,4.65,0.31,6.97
		c-0.11,3.23,0.84,5.86,2.3,8.83c1.62,3.3,1.41,7.62,1.49,11.51c0.05,2.39-0.85,4.8-1.51,8.12c-1.57-5.62-2.89-10.34-4.21-15.06
		c-0.5-0.04-0.99-0.07-1.49-0.11c-0.69,1.3-2.17,2.79-1.92,3.88c0.83,3.63,1.86,7.35,3.6,10.62c3.57,6.72,7.09,13.35,6.87,22.02
		c-5.48-2.92-3.79-10.3-9.56-12.86c0.62,4-2.31,8.09,1.56,12.51c0.34-1.18,0.61-1.86,0.71-2.57c0.07-0.52-0.08-1.07,0.1-1.63
		c3.25,11.09,3.25,11.09,7.65,9.89c0.39,6.15,0.77,12.24,1.19,18.81c-1.56-0.64-2.81-1.15-4.19-1.72c-0.29,0.73-0.72,1.29-0.58,1.57
		c2.11,4.36-0.13,9.81,3.45,13.79c-2.42,3.99-1.92,8.2-1.13,12.51c0.3,1.62-0.27,3.4,0.08,4.99c0.7,3.16,1.37,5.99-1.23,8.85
		c-1.61,1.77-1.75,4.14,0.75,6.03c0.93,0.7,1.74,2.41,1.59,3.53c-0.78,6.06-1.92,12.06-2.81,18.11c-0.13,0.88,0.57,1.86,0.63,2.81
		c0.37,5.83,0.95,11.68,0.85,17.51c-0.04,2.29-1.65,4.55-2.97,7.92c1.59-1.26,2.35-1.87,3.49-2.77c1.93,3.16,1.4,6.51,1.02,9.9
		c-0.27,2.39-0.27,4.8-0.36,7.2c-0.05,1.62-0.11,3.26-0.03,4.88c0.06,1.19,0.38,2.37,0.53,3.56c0.15,1.21,0.75,2.71,0.27,3.6
		c-2.47,4.59-1.65,9.48-1.69,14.29c-0.03,3.13,0.49,6.28,0.37,9.4c-0.22,5.59-0.95,11.16-1.01,16.74c-0.02,2.2,1.41,4.38,1.75,6.63
		c0.48,3.18,0.71,6.42,0.78,9.65c0.06,2.57-0.67,5.19-0.36,7.7c0.53,4.28,1.19,8.33-0.57,12.65c-1.07,2.63-0.92,5.9-0.74,8.85
		c0.32,5.24,1.19,10.44,1.58,15.68c0.09,1.16-0.89,2.39-1.44,3.76c3.25,6.22,2.8,12.85,1.23,19.6c-0.36,1.55-0.21,3.22-0.29,4.84
		c-0.07,1.3,0.39,3.08-0.29,3.82c-1.7,1.83-0.75,3.43-0.17,5.07c1.74,4.88,0.75,6.62-4.48,6.83c-5.15,0.21-10.33-0.05-15.48,0.14
		c-2.76,0.1-5.49,0.71-8.24,1.09c-7.66,0-15.33,0-22.99,0c-0.68-2.3-1.94-4.59-1.95-6.89c-0.12-24.49-0.04-48.99-0.01-73.48
		c0.06-54.99,0.09-109.97,0.21-164.96c0.04-16.79,0.45-33.59,0.49-50.38c0.15-56.29,0.2-112.59,0.3-168.88
		c0.07-42.97,0.12-85.95,0.26-128.92c0.09-27.98,0.57-55.96,0.4-83.94c-0.06-9.46,1.07-18.41,4.17-27.37
		c2.25-6.51,3-13.54,4.61-20.29c3.58-15.03,7.34-30.01,10.89-45.04c1.45-6.14,2.33-12.42,3.82-18.55c1.83-7.51,4.23-14.88,5.99-22.4
		c1.82-7.72,3.15-15.56,4.74-23.33c0.66-3.22,1.45-6.41,2.18-9.62c0.5,0.02,1,0.04,1.51,0.05c0.2,5.52,0.39,11.05,0.59,16.57
		c0.41-0.01,0.82-0.02,1.22-0.04c0-4.08,0-8.16,0-12.23c0.31-0.06,0.62-0.11,0.93-0.17c0.5,2.28,0.72,4.68,1.54,6.84
		c4.85,12.69,2.52,25.16-0.95,37.6c-0.43,1.55-1.19,3.46-2.42,4.26c-6.28,4.07-7.23,10.72-8.79,17.11c-0.28,1.13-0.29,2.36-0.76,3.4
		c-1.43,3.14-2.22,6.2-0.46,9.52c0.42,0.8,0.31,1.98,0.18,2.95c-2.12,15.26-4.36,30.51-6.37,45.78c-0.47,3.58,0.54,7.51-0.53,10.83
		c-1.19,3.73-1.9,7.16-1.31,11.03c0.1,0.63-2.19,1.62-3.83,2.76c1.91,1.74,3.94,3.88,6.3,5.56c0.68,0.48,2.44-0.14,3.46-0.7
		c1.13-0.62,1.86-1.95,2.98-2.6c0.86-0.5,2.28-0.84,3.03-0.45c0.6,0.31,0.68,1.82,0.8,2.82c0.13,1.08,0.03,2.19,0.03,3.52
		c-0.89-0.08-1.65-0.16-2.42-0.23c-0.02,0.3-0.18,0.68-0.05,0.88c1.46,2.23,2.5,4.31,1.93,7.32c-0.65,3.45-0.97,6.98,3.2,9.52
		c2.15,1.31,3.02,4.73,4.47,7.19c0.37-0.13,0.74-0.27,1.11-0.4c0.16-2.13,0.33-4.25,0.49-6.38c0.45,0,0.9,0,1.35,0
		c0.53,3.83,1.04,7.66-0.83,11.4c6.49,3.4,3.72,9.14,3.9,13.82c0.16,4.02-0.97,8.09-1.72,13.51c-2.16-6.71-4.01-12.44-5.85-18.17
		c-3.35,5.96-7.85,11.24-4.6,18.09c1.11,0.34,2.34,0.71,3.74,1.13c0-1.99,0-4.14,0-6.73c1.34,0.23,2.37,0.4,3.61,0.61
		c0.13,2.57,0.26,5.03,0.39,7.49c0.15,3.1,0.03,5.94,2.91,8.54c1.63,1.47,1.28,5.14,1.94,8.37c-4.09-0.64-3.56-3.63-4.23-5.77
		c-2.37,5,1.91,10.54-1.52,15.11c-0.49,0.04-0.98,0.09-1.47,0.13c-0.42-1.59-1.36-3.24-1.16-4.75c0.83-6.3,0.12-12.14-4.5-17.67
		c0.21,9.5-0.8,18.75,1.37,27.73c1.1,4.56,3.81,8.73,5.79,13.08L1699.98,505.1z M1700.89,584.11c2.55,3.28-2.77,6.18-0.28,9.99
		c1.72,2.63,0.9,6.93,1.21,10.48c0.71-0.07,1.42-0.13,2.14-0.2C1701.21,597.75,1704.87,590.57,1700.89,584.11z M1696.89,260.12
		c-2.52,4.45-1.2,9.18-1.27,13.92c1.41-1.7,3.18-4.33,2.52-5.27C1696.14,265.89,1696.17,263.24,1696.89,260.12z M1697.86,703.42
		c-5.06,3.91-5.08,5.9-0.46,10.18C1697.56,710.17,1697.7,707.09,1697.86,703.42z M1706.54,703.93c-3.44,3.95-1.35,7.42-1.26,11.41
		C1707.89,711.29,1707.89,711.29,1706.54,703.93z M1695.82,656.06c-3,3.01-3.4,6.49-1.32,10.13
		C1694.94,662.87,1695.33,659.82,1695.82,656.06z M1696.81,559.88c0.27,2.98,0.53,5.97,0.88,9.86
		C1700.52,565.55,1699.23,562.66,1696.81,559.88z M1692.96,653.62c2.05-0.11,3.12-0.16,4.28-0.22c-0.42-1.77-0.75-3.16-1.26-5.27
		C1694.92,650.06,1694.17,651.42,1692.96,653.62z M1694.54,508.01c-0.41,0.02-0.83,0.04-1.24,0.06c0.31,2.14,0.62,4.28,1.05,7.24
		C1696.53,512.23,1695.69,510.11,1694.54,508.01z M1695.57,744.86c0.56-0.03,1.13-0.06,1.69-0.08c-0.09-1.29-0.18-2.59-0.27-3.88
		c-0.47,0.03-0.95,0.05-1.42,0.08C1695.57,742.27,1695.57,743.56,1695.57,744.86z M1701.48,699.27c1.22-4.91,1.22-4.91-1.66-4.8
		C1700.29,695.85,1700.75,697.17,1701.48,699.27z M1690.72,571.11c-0.41-0.01-0.82-0.02-1.23-0.03c0,1.2,0,2.41,0,3.61
		c0.33,0.01,0.67,0.01,1,0.02C1690.56,573.51,1690.64,572.31,1690.72,571.11z M1693.38,700.96c0.36,0.02,0.71,0.04,1.07,0.06
		c0-1.16,0-2.32,0-3.48c-0.26-0.02-0.51-0.04-0.77-0.05C1693.59,698.65,1693.48,699.81,1693.38,700.96z"/>
	<path d="M1717.96,399.58c1.3,0.32,2.5,0.61,4.07,0.99c1.74-4.37,3.44-8.64,5.21-13.06c3.86,0.8,3.63,3.58,3.63,6.19
		c0.01,16.49,0.02,32.99,0.02,49.48c0.04,103.3,0.08,206.6,0.11,309.9c0.03,106.63,0.07,213.27,0.01,319.9c0,2.13-0.7,5.87-1.7,6.1
		c-3.26,0.74-6.85,0.43-10.24-0.05c-0.6-0.08-1.16-2.88-1.16-4.42c-0.01-20.49,0.1-40.98,0.13-61.47
		c0.05-36.32,0.02-72.64,0.13-108.95c0.04-14.79,0.43-29.58,0.53-44.37c0.03-5.16-0.5-10.31-0.47-15.47
		c0.11-19.32,0.47-38.64,0.5-57.95c0.02-14.47-0.42-28.95-0.5-43.42c-0.1-17.31-0.04-34.62-0.05-51.93
		c-0.02-36.63-0.07-73.26-0.02-109.89c0.01-7.65,0.61-15.3,0.57-22.95c-0.2-41.12-0.53-82.25-0.77-123.37
		C1717.9,423.19,1717.96,411.54,1717.96,399.58z"/>
	<path d="M1707.35,661.17c-0.8-1.83-1.6-3.66-2.4-5.49c-0.36,0.11-0.72,0.22-1.08,0.34c0.19,1.94,0.38,3.87,0.58,5.81
		c-2.89-2.93-3.29-12.39-1.4-18.32c0.96,3.32,1.72,6.19,2.62,9.02c0.87,2.74,1.88,5.44,2.84,8.15
		C1708.13,660.85,1707.74,661.01,1707.35,661.17z"/>
	<path d="M1705.25,497c-5.39-5-1.27-8.8-0.41-12.66C1705.61,488.18,1707.62,491.98,1705.25,497z"/>
	<path d="M1711.33,303.63c-0.84-4.11-1.68-8.22-2.52-12.33c0.43-0.16,0.87-0.32,1.3-0.48c0.71,1.97,1.73,3.89,2.06,5.92
		c0.36,2.17,0.08,4.45,0.08,6.68C1711.95,303.5,1711.64,303.57,1711.33,303.63z"/>
	<path d="M1715.29,318.52c-2.46-2.08-1.84-4.94-2.27-7.53c0.35-0.1,0.7-0.19,1.05-0.29c0.87,2.5,1.74,5,2.61,7.49
		C1716.21,318.3,1715.75,318.41,1715.29,318.52z"/>
	<path d="M1719.11,337.63c-0.73-2.46-1.47-4.93-2.2-7.39c0.48-0.16,0.97-0.33,1.45-0.49c0.88,2.43,1.75,4.86,2.63,7.3
		C1720.36,337.24,1719.74,337.43,1719.11,337.63z"/>
	<path d="M1700.09,399.11c-0.99-0.46-1.98-0.93-4.02-1.88c1.63-0.87,2.94-2,3.39-1.72c0.84,0.52,1.17,1.85,1.71,2.84
		C1700.8,398.61,1700.45,398.86,1700.09,399.11z"/>
	<path d="M1725.71,366.27c-0.31-2.1-0.63-4.19-0.94-6.29c0.32-0.09,0.64-0.19,0.97-0.28c0.57,2.05,1.14,4.1,1.71,6.15
		C1726.87,365.99,1726.29,366.13,1725.71,366.27z"/>
	<path d="M1703.31,404.9c0-1.82,0-3.65,0-5.47c0.34-0.03,0.68-0.06,1.03-0.09c0.13,1.84,0.27,3.67,0.4,5.51
		C1704.26,404.86,1703.78,404.88,1703.31,404.9z"/>
	<path d="M1716.39,326.17c-0.27-1.49-0.54-2.99-0.81-4.48c0.39-0.08,0.79-0.15,1.18-0.23c0.33,1.51,0.65,3.01,0.98,4.52
		C1717.29,326.04,1716.84,326.1,1716.39,326.17z"/>
	<path d="M1700.09,505.2c0.64-1.76,1.28-3.51,1.92-5.27c0.42,0.2,0.85,0.39,1.27,0.59c0.5,2.36-1.94,3.19-3.31,4.57L1700.09,505.2z"
		/>
</g>
</svg>
