<svg xmlns="http://www.w3.org/2000/svg" viewBox="0 0 1054.41 975.55">
  <g class="background-fill">
    <g>
      <path d="M1002.73,633l.44,2.49,4.43-3.24,2.47,3,5.94-5.08c2.42,6.59-3.1,10.75-5,16.59l7.33-1c.64,5.3-4.25,7.21-6.81,8.06-4.86,1.63-6.64,4.29-6.86,9.15h-12c-.61,4.05-1.28,8.51-1.88,12.47-2.63-2.68-1.94-9-8.35-11.43-1.33,7.11-2.63,14-4,21.17,4.85,1,8.1-1.85,11.71-3.6a6.32,6.32,0,0,1,3.27-.83c2.73.32,5.41,1,8.46,1.56v3.45l7.57-1c-1,4.41-3.53,6.61-7.19,8.3-3.13,1.43-5.72,4-8.81,5.54-2.66,1.32-.8,3-.38,3.93.8,1.76,2.42,3.15,3.69,4.67l8.51-1.53v13l10.3-5.51-1.22,4.53,2.06.3L1007.52,729l3.82,9.76-6,4.58,4.86.94c-.44,1.55-.87,3-1.42,4.93h10.93c-3.15,5.64-7.62,7.92-13.22,9a21,21,0,0,0-7.2,3.42c-2.11,1.37-3.83,1.88-5.85,0-1.19-1.08-2.58-2-3.9-2.94l-3.13,4.65,5.83,6.28c-3.11.46-6.8.78-10.37,1.62-2.54.6-2.76,4.66-.56,6.81,3.87,3.8,7.35,3.86,11.7,0,3,3.17,4.26-.54,7.11-2.45-.23,2.89-.32,4.93-.56,6.95-.38,3.2-2.08,6.91-1,9.46,1.47,3.47,5.08,6,7.68,9,1.26,1.45,2.85,2.93,3.33,4.66.83,3,.9,6.17,1.39,10.11l-4.31,1.25,4.87,8.32c-.19.42-.39.83-.58,1.24-3.75-1-7.49-2.13-11.26-3.1a15,15,0,0,0-4.3-.58c-2.43.12-4.85.54-6.15.7L983,841.17l-4.46-2.12c-.55,3.2-1.11,6.46-1.85,10.81l-5.78-7.51c-1.38-.32-4-1.65-4,3.3,0,1.77-2.21,3.53-3.26,5.08l6.3,3.31c-.06.29-.12.59-.19.88l-4.9.89c.08,1.14.17,2.31.25,3.49-.21,0-.56.14-.7,0-1.69-1.35-3.36-5-4.71.45-.3,1.21-2.81,1.87-4.24,2.74,1.6,6.22,9,10.86,19.17,11.53-2.6.81-4.18,1.58-5.83,1.74-1.82.19-3.72-.35-5.56-.24a54.82,54.82,0,0,0-6.22,1.22c.89,1.88,1.86,3.91,2.81,5.89-1.69.76-1.69.76-8.68-6.38l-5.46.38A30,30,0,0,0,943,881.1c-.38.95,0,2.21.06,3.33,1.11,0,2.35.2,3.3-.22,1.12-.49,2-1.55,3.62-2.93-2.93,5.62-5.38,10.34-8.23,15.82l6.16,2.2c-.72.56-1.67,1.78-2.86,2.1a13.27,13.27,0,0,1-4.95.06c-5.22-.67-9.25.84-11.67,5.8-.42.85-1.33,1.48-2.86,3.1l12.49.95-3.59,3,2.15,1.42c-9.21,1.07-7,8-8.38,13.4l4.29.74c-3.63,2.1-6.77,4.26-10.2,5.81a101.9,101.9,0,0,1-10.3,3.43l2,4.25-11.44,8.23,4.19,3.75a7,7,0,0,1-2.62.48,15.1,15.1,0,0,1-3.4-1.51c-6.53-3.25-8.87-2-9.52,5l-4.68-2.8c.48,1.37.68,2,.79,2.26-5.88,2.82-11.42,1.6-17.32-1.29,1.68,2.4,3.36,4.81,5.07,7.24l-16.86-1.79,6.36,9-.45,1.14-12.1-3.11,1.82,6.85h-5.7c-.16,1.81-.32,3.67-.49,5.66h-3.57c.44,2.47.85,4.74,1.3,7.29-5.44.35-5.23-7-10.14-7.28a48.92,48.92,0,0,1-2.41,6.68c-.36.7-2.05,1.13-3.06,1-1.48-.18-2.88-1-5.32-1.85,1.26,4.4.63,8,4.06,10.8,3.83,3.13,6.7-1.17,10.47-.55a88.29,88.29,0,0,0-8.37,5.25c-.91.7-.93,2.54-1.37,3.85-.55,1.67-.66,4.06-1.82,4.8s-3.72.3-5-.59c-3.82-2.74-7.11-6.54-12.06-4.26.52,4.79,1,9.37,1.54,14.17h-4.54c1,3,1.93,5.64,2.85,8.29l-.89,1-13.4-9.78v9.43l-4.66-2.94c-1.32-2.4-3.2-5.79-5.08-9.21-5.78,1.72-3.17,8.79-7.26,12.12.06-6.71-6.88-7.94-8.47-12.67-1.71-5-3.88-9.57-8.74-12.46-3.4.94-3.57,3.23-2.6,6.26-2-2.77-3.74-5.76-6.09-8.18-1.09-1.13-3.34-1.15-5.07-1.63a11.54,11.54,0,0,1-2.35-.57c-4.57-2.53-9.1-5.14-13.1-7.41,1-3.1,2.13-5.67,2.57-8.34.15-.88-1.46-2.05-2.17-3-5.18,2.29-9.85,4.54-9.28,11.69l4.36-.67c.48,3.44-1.87,4.11-4.58,4.09-6.14,0-11.88,1-17.13,4.51a4.27,4.27,0,0,1-4.1-.71c-2.38-3.28-5.53-2.12-8.53-2.11-.54,0-1.08-.08-2-.16.08-1.77.16-3.46.26-5.47-2.62-1.17-4.08.59-5.54,2.51-1.09,1.44-2.3,2.79-3.37,4.07l.3,0c-.15,3.32-.3,6.6-.45,9.88l-.37.17c-1.08-4.19-2-8.42-3.31-12.55-.37-1.25-1.62-3.19-2.37-3.15-1.38.08-2.69,1.4-4.22,2.31-2.26-2.74.42-4.12,2.29-5.89a15.3,15.3,0,0,0,2.05-3.1,11.26,11.26,0,0,1-3.2.18c-2.64-.58-5.24-1.38-7.84-2.13-3.9-1.12-7.84-2.13-11.66-3.48a14.67,14.67,0,0,1-4.78-3,33,33,0,0,1-3.52-4.6c-5,5.19,1.64,6.81,1.27,10.89l-4.33,1.79,5.17,8.09c-2.71-.55-5.3,1.37-7.76-1.25-1.06-1.14-4.76-.38-7,.3a15.72,15.72,0,0,1-11-.45c-3.75-1.53-7.66-2.67-12.06-4.16l3.18-5.93c-2.8-.67-5.64-2.35-7.65-1.64-5.22,1.85-7.39,6.16-5.82,12.13l-1.17-.3c-.26-3-.53-6-.85-9.55-2-.71-4.86-3-8.57-.33-.83.6-3.81-.52-4.87-1.7-2.72-3-4.59-1-6.45.65-2.59,2.3-4.74,5.15-7.52,7.16a6.35,6.35,0,0,1-5.38.38c-3.74-1.69-5.92,1-7.88,2.79-1,.93-.17,3.81-.17,5.81l1.36.63q5.49-3.23,11-6.47c0,.17.07.34.1.51l-12.12,13.17,6.2,3.57c-.82,2.95-3.55,1.77-6.08,1.39-4.31-.65-8.62-1.37-13-1.67-1.3-.09-2.69,1.11-4.94,2.13l-5.78-6.71-8.12-2.74,3.89-5.37c-3.4-.76-6.75-1.66-10.16-2.14-.59-.09-1.67,1.46-2.07,2.44a8.73,8.73,0,0,0-.07,3l-1.15.33c-.73-2.08-1.34-4.22-2.25-6.21a50.65,50.65,0,0,0-3-4.93l-3.75,3.73L504,989.36l-4.82,14.25c-1.83-2.37-3.49-4.83-5.5-7-.63-.66-2.75-1-3.19-.57a21.64,21.64,0,0,0-3.55,5.28c-.34.69.21,1.82.49,3.66H468c1.76,3.09,3.19,5.6,4.61,8.11l-.67.84-3.8-1.74c.2,1,.36,1.91.52,2.76l-1,1-4.37-5.38,4.44,13.69-3.24,1.23,5,6.93c-.19.4-.38.81-.56,1.21-3.13-1.19-6.54-1.93-9.31-3.68a85.72,85.72,0,0,1-12.13-9.35c-1.5-1.38-2.88-4.15-2.56-6,.87-4.84-1.85-6.37-5.2-7.47l3.22-4-1.17-1.18-5.86,4.68-4.63-1.4,7.53,11.16-17.71,2.16c-1.49,4.45-1.45,4.58,2.26,6.61-3.21,2.82-5,.53-6.61-1.83-2.75-4-5.2-8.27-10-9.2-1.71,1.59-3.13,2.92-4.54,4.26l-1.19-.75c.18,2,.36,4,.57,6.42-4.27-.67-5.65-3.74-6.91-7s-2.61-6.46-3.52-8.7l-16.45,5.06-1-4.85c-1.07,1-1.84,1.83-2.68,2.55-1.58,1.33-3.2,2.62-4.8,3.92-.76-1.5-1.54-3-2.27-4.51-.41-.85-.74-1.74-1.23-2.91l-3.12,1.64-.77-.49,3.14-5.5-10.89,1.51c.52,1.82,1.08,3.82,1.77,6.27-1.75,1-3.23-.41-4.49-2.42s-2.22-5.46-3.75-5.72c-3.54-.6-4.46-4.31-7.84-5.15l-4.34,7.16-1.09-2.6c-3.73,1.15-7.49,1.91-10.88,3.45-3.84,1.75-4.55.23-4.43-3.13a11.39,11.39,0,0,0-.48-2.45c-4.39,1.84-8.9,3.11-12.64,5.56-2,1.29-2.59,4.63-4.53,6.87l4.29-17L296,995c-1-2.67,2.38-2.83,4.25-4-1.57-3-7-3.12-10.54-.91-1.64-1.21-3-3-4.24-3-6.21.15-10.52-2.69-13.37-7.57-1.63,3.25-3.16,6.32-4.52,9l6.05,3.81C271,994,266.54,992,267.58,997c-1.84-2.95-3.79-5.84-5.48-8.87-2.05-3.67-5.41-4-8.88-3.46-1.24.2-2.06,2.24-3.35,2.88-3.57,1.76-7.29,3.22-11.52,5-.43-1-1-2.48-1.91-4.6l-7.2,6.06c-3.44.24,2.18-4.83-3.76-3,7-4.91,1.27-9.65.87-14.14-.19-2.14-3.81-3.62-8.17-1.52l2.18,2.11-4.82,5.81c-2.06,1.76-4,3.48-6,5.16s-3.33.66-4.1-1.26a43.12,43.12,0,0,1-1-4.46c-1-3.75-3.3-5.9-8-5.77.77,2.48,1.47,4.73,2.29,7.39l-8.31-3.52-.21-1.41-11.55,8.31-2.56-2.74-4.9,7.8a14.74,14.74,0,0,1-1.1-13.14c.54-1.54-.48-3.8-1.23-5.54-.24-.55-2.58-1-2.81-.63a21.26,21.26,0,0,0-2.35,4.87c-.22.59.27,1.42.1,2-.35,1.25-.7,3.24-1.48,3.47-1.3.38-3.46.14-4.34-.75-3.47-3.49-6.65-7.27-9.78-11.07-1.54-1.85-2.74-4-4.18-6.11l4-2.75-3.94-5.63-9.44,3.6c.73-1.46,1.37-2.56,1.83-3.72.69-1.77,1.35-3.6-1.68-3.87-.47,0-.89-.67-1.34-1,.47-.56.93-1.59,1.4-1.59,3.79,0,3.92-3.29,3.66-5.28-.23-1.7-2.35-3.82-4.09-4.42-1.24-.43-3.25,1.37-5.6,2.5l-5.63-8.1c.41-.14-.17.11-.78.25-1.17.27-2.36.49-3.54.74.2-1.69-.23-4,.71-4.94,2.72-2.88,6.6-4.79,8.82-7.94,1.7-2.42,1.56-6.12,2.25-9.26l-1.66-.64-4.07,3.89c-.81-3.59-1.54-6.8-2.26-10-4.91.72-8.72,8.15-9.08,16.73-1-4.45-1.93-8.9-3.09-14.24l-6,3c-1.36-1.86.57-3.23,2-4.8,2.84-3.16,5.93-6.16,8.27-9.66,1-1.45,1-5.3.18-5.81a9.64,9.64,0,0,0-6.79-.71c-4,1.08-7.78,3-11.27,4.34-1.7-3-3-5.25-4.35-7.62l-4.35.58c-.29,1.59-.08,3.28-.8,3.9-2.49,2.14-5.3,3.9-8,5.83,1-3.42,2.07-6.9,3.33-11.12H75.3c1.85-1.39,3-2.76,4.43-3.24,5-1.68,10.18-3,16-4.74L82.2,863.92l3-3.15H71.61c6.86-3.48,9.68-8.46,9.24-15.64-.54,0-2.55-.49-2.76-.07a11,11,0,0,0-.86,4.56c0,1.34.35,2.69-.18,4.14-1.61-5.06-2.19-10.38-7.83-13.7v3.35l-1,.29c-.39-1.51-1.17-3-1.09-4.52.14-2.64-.09-5.71-2.8-5.78-1.71,0-3.77,2.72-5.2,4.59a20.8,20.8,0,0,0-2.94,5.93,13.67,13.67,0,0,0-.37,4.4,10.9,10.9,0,0,1-.39,4.61c-1.55-5.45-3.11-10.91-5-17.42L44,838.22c-1.4-1.37-.51-3.1,1.24-4.87,3.74-3.76,7.52-7.51,11.09-11.43.93-1,1.17-2.68,2-4.74,1.71,0,3.92,0,6.14,0,.5,0,1.28-.08,1.47-.4,1.93-3.3,4.32-6.47,5.47-10s-2-4-5.86-3.8c1.35-1.27,1.84-2,2.53-2.34,2.58-1.17,5.45-1.84,7.79-3.36,3-1.93,2.46-3.77-1.26-5.48,2-2.35,3.91-2.87,6.24-.51a63.12,63.12,0,0,0,6.4,5.85c.8.62,2.32.29,3.51.39-.53-1-1-2-1.61-3-1.56-2.38-2.92-5.18-6.39-3.44-2.84-4.9-1.49-8.52,1.73-12.14,2.13-2.4,3.58-5.4,5.57-8.52-4-1.09-5.29-2.47-3.29-6.32.78-1.49-1.68-4.67-2.85-7.51-4,3.11-8,4.93-4.52,10.17l-4.88,2v7.53l-.63.08c-.73-3.28-1.1-6.68-2.29-9.78-.9-2.36-2.78-4.42-6-3a3,3,0,0,0-.6.47c-2-4.44-9.79-1.55-10.38-8.13-.09-1-2.14-1.82-3.22-2.8s-1.8-1.82-2.7-2.74l3.64-2.71c-3.14-1.89-6.13-3.69-8.91-5.38l6.61-5.1-.66-1.13h6.84l.35-1.13-10.34-5.39c-.35-1.49-1-4.39-1.88-8,1.75-1.16,2.2-3-.56-5.4-1.35-1.19-2.77-3.73-2.36-5.13s3.21-2.2,4.56-3.63c2-2.09,3.6-4.52,6.28-8-2,0-3.41-.43-4.14.08-1.6,1.14-2.71,3-4.32,4.11-1,.73-2.61.73-3.94,1.05l-1.59-1.1c.29,4.86.58,9.71.95,15.87-1.92,2.82-6.81,5.84-4.88,13.17l-6.46-4.32c-.51,2.89-.94,5.52-1.48,8.13a14.81,14.81,0,0,1-.95,2.49,12.29,12.29,0,0,0-2-1.49,9,9,0,0,0-2.1-.53c-3-8.78-2.8-17.9-2.41-27.29,5.69,1.65,5.69,1.65,6-6.57l-6.24,2.59c-1-1.56-.81-2.29,1.34-4.16,4.05-3.54,8.35-6.85,12-10.74,2-2.1,3.14-5.59,6.53-4.91,4.13.81,5.41-2.05,8.13-4.52l-7-.43c5.4-7.43,13.89-5.08,21.13-8.54A61,61,0,0,1,58,665.21a10.2,10.2,0,0,1-.07-5.26c.89-3.23,2.27-6.33,3.64-10l4.26.76-1.06-13.94c1.17,2.19,5-.36,5.23,3.44a16.7,16.7,0,0,0,3.55-2c1.36-1.25,2.36-2.88,3.62-4.26.42-.45,1.55-.51,1.67-1,1.45-4.94,6-5.68,9.87-7.2,1.36-.54,3.22.19,4.88.35.12-4.68-.69-5.45-5.26-4.14.44-1.29.52-2.34,1.07-3,3.49-4,7.12-7.9,10.62-11.89a2,2,0,0,0,.1-1.84,1.81,1.81,0,0,0-1.71-.49c-2.8,1.73-5.51,3.61-8,5.32l2.89-10.57-6.92-.38c1.94-1.24,3.08-2.28,4.42-2.75,3.76-1.3,7.89-1.83,11.33-3.67,3.28-1.76,5.94-4.5,10-2.32.56-1.07,1.47-2.09,1.61-3.21.29-2.41.38-4.59,2.71-6.28,2.14-1.56.73-4.66-2.91-5.84-4-1.3-8.14-2.12-12.47-3.21,1.8-.71,4-1.42,6-2.4,1.56-.75,3.59-1.51,4.25-2.85s-.35-3.2-1.18-4.91c1.15-2.16,2.81-1,4.57.29a142.53,142.53,0,0,0,12.13,8.27c1.28.72,3.59-.4,5.65-.71-.23-2.71-.15-5.53-4.38-5.52l7.06-2.34c.06-.78.18-2.37.32-4.28l7.66,3.9,1.15-.67-2.93-6.38c1.36-1.32,3-.1,4.41,1.5,1.56,1.77,2.79,3.85,4.5,5.44.93.87,2.54,1,3.85,1.5a20.29,20.29,0,0,0,.41-4.49c-.15-1.16-1.21-2.17-1.59-3.34-1.94-6-1.81-5.78,3.93-8.49,4.37-2.07,8.42-4.79,12.67-7.11,2.57-1.39,4.92-3.07,7.88.09,2.3,2.45,4.38-.58,5.75-2.07.57-.61-.76-3-1.4-5.13.46-.06,1.76-.29,3.06-.38.9-.07,2.13.45,2.65,0,2.27-1.85,3.9-1.62,4.93,1.38,2.72-1.54,5.33-2.43,4.7-6.23-.14-.88,1.7-2.09,2.32-2.81-1-2.62-1.92-5.21-2.88-7.81l.79-.52a15.72,15.72,0,0,1,1.88,2.56c1.3,2.79,2.91,4.7,6.47,4.54A15,15,0,0,1,212,524.4c3.77,1.66,3.9-2.26,4.7-3.52,1.8-2.83,2.44-6.39,3.56-9.69,4.81,4.47,3.49-3.23,6.35-2.57l.14-1.06-6.1-3,9.09-1.18-.31-.68h4.25c2.38.89,4.68,1.92,6.94-1.26-1.7-2.81-2.05-5.33,1.59-7.27,1.26-.67,3-3,2.73-3.5a11.32,11.32,0,0,0-4.13-3.57c-4.62-2.64-9.47-4.41-15.05-1.71v-1.27l17.55-5.4-3.5-6.16c2.07-2.36,3.91,0,5.91,2,3.36,3.31,6.81,6.52,9.81,9.39,4.58-5.42,8.39-9.89,12.15-14.41a18,18,0,0,0,3.23-4.5c.33-.81-.51-2.5-1.33-3.25s-2.19-.65-4.65-1.27c4-2.28,9.37-1.14,9.79-6.92l8-3.74-5-3.94c.3-.19,1.24-1.29,2.08-1.21a39.68,39.68,0,0,1,8.33,1.51c3.94,1.23,6.45-1.39,9.42-2.89,1.39-.71,2.84-1.29,5.22-2.36l-4.54-5.1c.88-1.75,2.8-1.36,4.75-.13,1.75,1.11,3.29,2.6,5.12,3.53.85.44,2.18-.06,3.29-.14-.2-1-.41-1.95-.78-3.78l5.61,1.28c1-1.43,1.93-4.49,5.33-.2-.22-4.53-.37-7.65-.58-12a74.47,74.47,0,0,0,4.91,6.52c.41.43,2.11.28,2.73-.22,2.61-2.05,5-4.34,7.59-6.6.66-5.65-5.26-4-7.94-7l3.7-4.36-11.32-4.89.26-.9H326l-.9-2.56c5.5.27,10.81,1.12,16,.62,4.26-.42,7.1,2.17,10.67,3a22.29,22.29,0,0,0,7.25.24,25.08,25.08,0,0,0,6.33-1.67,8.91,8.91,0,0,0,2.85-2.27c1.32-1.37,2.52-2.85,4.47-5.09a18.25,18.25,0,0,0-1.2-2.89c-1.53-2.76-2.53-5.2,0-8.23.83-1-.34-3.63-.64-5.84,3.67-.55,3.81-3.21,3.28-6.31-.56-3.27-1.19-6.4,4-6.65,2.44-.12,2.6-3.3.45-5.64-3.43-3.72-6.4-8.1-12.16-8.54-.24,0-.44-.62-.67-1l18,2.9v-6.31c.84-2.12,2.64-3,5.77-2.1,2.54.76,5.63.18,8.33-.44.49-.12.29-3.27.44-5.39l2.75-.17c-.16-2.7-.46-5.26-.43-7.82,0-1.47.07-3.73.94-4.26,3.73-2.27,5.17-5.65,5.37-10.3l5.91,2.91c.92-3.09,1.92-6.42,3.22-10.77,1.21,1.93,1.81,2.87,2.43,3.87l1.85-1.19c0,2.15-.8,4.73.14,5.8,3,3.4,6.62,6.23,9.93,9.22l5.37-1.51c-.83,1.35-2.22,2.69-2.23,4,0,.76,2.28,1.53,3.88,2.5.36-3,2.51-5.72-1.77-6.44,1-2.43,1.95-4.85,2.91-7.28.41-1.05.78-2.1,1.17-3.15l-4.29-1.45c2.24-1.49,4.25-3.55,6.62-4.11,1.31-.31,4.7-.47,4.95,2.93a2.07,2.07,0,0,0,1.31,1.44c4,.84,8,1.53,12,2.28l.2-1.14,5.07,4.45c0-2.22.3-4.45,0-4.56-3-.92-1.79-3.38-1-4.26,3.32-3.64,1.11-7-.7-9.72a5.09,5.09,0,0,1-.25-6c2.59-3.8.78-7.28.61-11.25l-5.54.69a90.59,90.59,0,0,0,7.65-5c3.35-2.74,3-4.3-1-7.24,1.7-.19,3.42-.28,5.1-.58a34.55,34.55,0,0,0,6.09-1.41c.9-.33,1.49-1.52,2.22-2.32a17.34,17.34,0,0,0-2.79-1.33,5.29,5.29,0,0,0-1.77-.17c3.91-3.66,8.52-7.53,12.54-11.93,1.5-1.64,1.65-4.52,2.42-6.83l-1.06-.58,3.95-2.68-10.39-8.21,6-.53c-.47-2.85-.89-5.34-1.38-8.34,2-.65,4.3-1.41,6.63-2.21,3.65-1.25,2.89-5,2.89-7.22,0-2.72-2.54-5.38-3.63-8.2-.47-1.23-.08-2.79-.08-4.43-.92-1.57-2-3.51-3.42-5.83,7-1.15,10.67,5,16,6.43l.66-1.19-5.09-4.26.38-.76,13,6.09c.19-.89.48-2.37.86-3.83a19.13,19.13,0,0,1,.85-2.17c.45-1.11,1.6-2.6,1.23-3.25-2.09-3.77.14-4.34,4.34-4.37l-9.39-8.29c7.05-2.14,12.26.24,17.22,3.94,1.18.88,2.52,2,3.85,2.11,3.68.23,5,3.34,7.68,5.14L535,202.78l6.26,2.39c.2-2.13.85-4.34.48-6.37-.47-2.58-1.76-5-2.26-7.69-1.85-2.18-6.94,0-7.31-5.67,4.75,3.23,7.74-1,11.35-2.26.57-.2.61-2.43.58-3.72-.09-3.55,1.64-5,5.12-4.59,3.93.5,7.93.52,11.84,1.12,1.73.26,3.32,1.46,5.75,2.6.24-1.44.51-3.07.66-4l-11.38-7c-.49,1.14-1.11,2.59-1.74,4l1,.62,3.06-1.27.57,1.1c-1.53.73-3.45,2.38-4.5,1.94-1.25-.51-2.4-2.78-2.5-4.35-.39-6.06-.92-12-4.26-17.33-.44-.7,0-2.1.33-3.12.91-3.36,1.92-6.7,3.11-10.76l3.87.92V128.91c2.24,2.19,5.62,1.89,5.6,5.73,0,.7,2.37,1.69,3.76,2,.51.1,1.46-1.43,2-2.34,1.1-1.83,2.07-3.75,3.41-6.21l-6.06-1.93c2-1.69,3.62-3.67,5.73-4.82,3.56-1.94,7.75-2.57,9.39-7.37.47-1.4,3.83-1.91,5.94-2.63a17.48,17.48,0,0,1,3.85-.3l-3-4c3.34.35,6,.81,8.71.86,1.9,0,3.83-.77,5.73-.69a37.56,37.56,0,0,1,6.14,1.18,32.06,32.06,0,0,0,4.24,1,46.39,46.39,0,0,0,9.19.22c2.25-.29,4.36-1.66,5.94-2.3l10.8,1.75,2.07-7.84-6.58-5.35,8.41-2.47-4.66-3.9c1.76-3.41,5.35.21,8.21-1.36-.16-1.09-.33-2.33-.66-4.59,1.45,1.63,2.55,2.47,3.13,3.58,1.88,3.64,5.35,3.83,8.63,3.83,3.47,0,1.64-2.74,1.6-4.36,0-.68-.91-1.3-1.19-2-.81-2.05-1.52-4.14-2.26-6.21l4.67-.5-.57-.51A45.8,45.8,0,0,0,662,73a3.58,3.58,0,0,0,.65-3.15,32.22,32.22,0,0,0-3.79-4.59,48.92,48.92,0,0,1,2.51-5.64,3.51,3.51,0,0,1,2.53-1.41c6.32-.13,12.64-.22,18.94,0,1.28,0,2.5,1.62,3.77,2.46s2.3,1.48,3.45,2.22c.13-1.28.26-2.55.48-4.65a28.11,28.11,0,0,1,3.2,2.92c1.42,1.76,2.3,2.13,4.56.58s5.5-1.74,8.84-2.68a21.77,21.77,0,0,0-.12,2.67c.17,1.68.39,3.35.6,5,2.15-.27,5.11.24,6.28-1,2.36-2.44,4.23-1.14,6.39-.48l-.38-.12c.58,2,1.17,4.07,2,6.91L733,72.8c2.51,3.09,5.24,3.67,9.54,1,.8-.5.83-2.23,1.35-3.79.4.3,1.19.85,1.93,1.45,3,2.45,6,5,9.16,7.31.55.4,2.51,0,2.61-.34.35-1.2.68-3,0-3.78a55.56,55.56,0,0,0-5.68-5.7c.16-.45.31-.89.46-1.34h8.07c2.22.6,4.2,1.43,6.2,1.46.53,0,1.11-2.4,1.53-3.37l12.41,8.63-2.47,1.94,7.18,2.8-2.26,4.78-1.57.12c1,1,1.77,2.51,2.94,2.89.91.3,2.26-.84,3.45-1.24,2.48-.84,5-2.24,7.49-2.29,5.85-.11,11.39-.88,16.63-3.71.94-.51,3.2-.29,3.75.43,3,3.93,7.1,2.59,11.37,2.32-.48,2.2-.86,3.92-1.41,6.41h12l.1,1-3.73,1.94,1,1.42-8.45,5.43,15.46,4.12c-.15.75-.46,2.34-.78,4,4.76,1.64,11.61-.28,14.69-4.06l6,1.73c.6-2.57,1.22-5.12,1.76-7.7.1-.51-.37-1.23-.16-1.61,2.51-4.32-.32-7.56-1.52-11.52,3.22,4.12,6.45,8.23,10.28,13.12l3.92-5.16c1.28-.09,3.79.37,5.4-.61.94-.58.83-3.57.41-5.28-.14-.57-2.7-.55-5.34-1,1.75-1.07,3-2.28,4.42-2.64,4.66-1.14,9.6-1.41,14-3.1,3.84-1.47,6.67-2.21,10.26.67,1.34,1.07,4.5-.11,7.56-.32-.39,1.78-.71,3.29-1.17,5.38L922,84c-2.35,5.36-6.29,7.47-11.11,9-4.22,1.34-8.15,3.59-13.43,6,3.15,3.38,5.21,5.86,7.55,8,2.13,2,3.6.64,5-1.37.71-1.05,2.28-2.6,3-2.38,4.31,1.32,7.23-1.35,10.9-3.9.5,2.25.86,3.85,1.35,6.06l9-5.23c.55,6-1.26,10.25-5.35,13.71a11.69,11.69,0,0,0-3.25,3.75c-1.8,4-3.85,7.72-8.86,9l3.11,4.44,6.72-4.44c.37,1.86.66,3.28,1.07,5.35l8.51-5.8c.15,1.56.24,2.63.34,3.69l1.12.37c-4,5.31-8,10.72-12.19,15.87-1.19,1.45-3.32,2.12-5.14,3.22-.89-1.32-1.68-2.47-2.43-3.59-.8,3-1.92,5.77-2.17,8.6-.22,2.42,5.89,7.72,8.76,8.24,3.67.66,3.67.66,4,3.9a32.17,32.17,0,0,0,2.24-2.4c.86-1.13,1.6-2.36,2.4-3.55a17.71,17.71,0,0,0,1.73,3.07c.26.32,1.23,0,2.13,0-.15,1.34-.28,2.54-.46,4.15l4.11,1.18c-.09-1.48-.15-2.45-.26-4.17l5.7,3.59c-1.69,1.48-3.87,3.27-5.88,5.23-.56.55-.6,1.63-.88,2.46l2.53.75,3.85,1.16-.08,1.3,6.2-1.32c-1.16,1.86-1.79,3-2.59,4.11-1.65,2.23-2.66,4.31.39,6.24a5.11,5.11,0,0,0,7.16-1.41c.63-1.07,1.28-2.11,1.94-3.16,1.56-2.46,3.48-3.39,6.64-1l-3.21,1.46v.61c.06,5.23.19,10.46.08,15.69,0,.62-1.35,1.21-2.06,1.84s-1.79,1.25-1.69,1.64c1,3.93-2.31,6.4-3.06,9.67-.33,1.45.4,3.14.6,4.72s1.1,3.93.36,4.82c-2.53,3-1.4,6.2-.72,9.08,1.28,5.45-.07,9.71-4.09,13.42-.74.69-1,1.95-1.42,2.94.94.13,1.89.24,2.83.38l8.52,1.28.89,2.67c1.85-.41,3.65-1.28,5.32-1.06s3.4,1.49,5.39,2.45c.51-1.85,1-3.65,1.49-5.45,2.31,1.18,3.44,3.57,3.45,7.28,0,8.48,4,12.6,12.31,11.94,1.73-.13,3.3-2.38,5.76-4.28,2.9,1,3.48,5,4.62,8.36,1,3,.94,6.36,2,9.35.83,2.39,2.58,4.47,4.17,7.08a36.1,36.1,0,0,1-5.43,2,46.3,46.3,0,0,1-6.34.49c0,6.11,1.94,10,8.07,10.91-.69,1.38-1.17,2.32-1.43,2.83a42.66,42.66,0,0,0-6.16-1.5c-4.62-.44-5.46.8-3.18,6.15L988,306.21c-.1,4.77,1.32,6.77,6.33,8.3-5.1,3.88-4.92,8.73-2,14.47h-6.28c.52,1.93.87,3.75,1.49,5.48,2.2,6.22,1.83,7.59-3,11.42-.92.73-2.26,2.2-2,2.82a5.42,5.42,0,0,0,2.91,3.1c4.33,1.37,8.79,2.33,12.45,3.25,1.92,3.06,3.58,5.73,4.62,7.39.5,3.93.94,7,1.26,10.13.16,1.58.76,3.76,0,4.66-1.82,2.1-1.09,3.89.55,4.68,1,.46,3-.84,4.35-1.71.68-.44.87-1.65,1.39-2.75l3.57,1.82c.8-2.42,1.52-4.59,2.5-7.57,5.89,7.21,1.67,14.4,2.23,20.92l-7.51.7c-.15.48-.29,1-.44,1.45l4.9,6.21c-.95.1-3.76,1.11-1.42,4.64.26.38-.91,1.7-1.51,2.74l8.8-.4-1.07,5.83,10.47-.94-1.89,5.39c-3.27,1.94-7,4.7-11.12,6.44-3.6,1.51-7.68,1.92-11.58,2.65-.23,0-.63-1.5-1.15-2.13-1.08-1.29-2.11-2.94-3.54-3.52-.75-.31-2.3,1.33-3.48,2.08a34.28,34.28,0,0,1-3.65,2.3c-3.77,1.76-4.37,3.41-2.4,6.12-.65,1.25-1,2.55-1.83,3.35-1.34,1.29-2.91,3-4.56,3.19-4.5.62-7.25,3.87-6.27,8.31,5.64.64,8.11,4.58,5.81,10.62,3.64.63,7.13,1.67,10.62,1.68a4.46,4.46,0,0,0,4.44-5.06c-.23-2.84,0-4.91,2.73-6.67,1.17-.76,1.28-3.18,2-5.14l3.35,1.67c.68-2.24,1.3-4.3,2.07-6.83,3.65,2.33,3.13,5.84,3.44,9,.4,3.87.86,7.75,1,11.65.18,4.56.05,9.14.05,13.92h3c-4.54,10.9-4.62,15.64,6.79,19.31l-1.82,4.21,7.82,2.41c-1.61,4.58-5.92,4.54-9.26,5-4.93.7-6.92,2.4-6.46,7.42.09.94,0,1.89,0,3.17l-4.3-.72q.27,4,.53,7.6l-3.32,1c-.21-.51-.81-2-1.42-3.38-3.44,1.27-4,3.62-1.51,5.86a7.75,7.75,0,0,1,2,2.37c1.41,3.32,3.2,4.93,7.26,3.79,2.3-.65,5.16.09,7.57.83.85.26,1.7,2.42,1.58,3.62-.33,3.27,1.16,3.91,4.25,3.4v-8.1c2.31,1,4.25,2.44,6.24,2.54.85,0,1.83-2.68,3-4.58,1.73,1.13,2.66,3.36,2.14,6.23-1.26,6.93,3.6,14.47,10.24,16.79,2.15.75,3.76,3,5.84,4.8l2.78-3.1a62.24,62.24,0,0,0,4.66,5.51c.45.42,2.06.19,2.72-.3.91-.67,1.42-1.88,2.56-2.6-1.38,3.46-2.88,6.89-4.08,10.42-.49,1.44-1,3.64-.26,4.51s2.93.57,4.45.77c-1.37,5.82-1.37,5.82,4.92,8-2.27.34-4.65.37-6.78,1.12a19,19,0,0,0-5.72,3.48c-.33.28.76,2.24,1.23,3.52-2.09,1.09-2.09,1.09-8.65-5.83-2.67,2.12-5.05,4.14-2.77,8,.21.35.57.89.45,1.11-2.72,4.89.91,8.16,3.17,11.87-4.78-2.4-6.49-9.51-14-7.62.94,2.66,2,5.5,3.39,9.51l-8.46-3.67c.54,1.37.83,2.93,1.69,4,1.08,1.4,2.1,2.13.6,4.18-.53.71,1.61,3.38,2.84,5.75l-10.92,2.45c.65,2.39,1.51,5.57,2.72,10l-4.14-2.52-.74,2.25c-2.92-4.53-6-8.61-12.11-7.91-.21-1.38-.4-2.69-.63-4.19-4.8.48-4.37,4.41-5.66,7.62l5.72,3.13a37.33,37.33,0,0,1-4.87,1.58c-3.81.63-5.84,2.8-6.23,6.61-.83-.72-1.66-1.47-2.48-2.21l-.92,1.61-1.82-3.41-.78.2v7.85C999.55,636.77,1002,636.14,1002.73,633Zm-428-480.7c-2.58,3.42-5.93,4.1-10,3.18-1.27-.29-2.8.56-4.21.88,1,1.42,1.85,3.92,3,4a25.29,25.29,0,0,0,9.65-.7c3.94-1.17,4.46-5,1.46-7.51l5.27-4.69-1.36-1.27C575.67,147,573.86,148.54,574.76,152.28ZM375.7,992.47,364,985.73c-2-1.13-3.35-.74-5,1-1.32,1.43-3.6,2-5.4,3-1.18.68-3.3,1.72-3.2,2.27a10.9,10.9,0,0,0,2.39,4.73c1,1.19,2.61,1.84,3.85,2.86,4.35,3.55,9.18,3.26,13.08-.86ZM841.08,123.94l2.45-1c-.41,1.24-.65,2-1.17,3.52l8.65-1.2,1-1c-3.9-2.18-3.72-4-1.16-6.57,1.34-1.34,1.45-3.92,2.5-7.13-6.64,2.61-12.14,4.74-17.59,7-.38.16-.41,1.17-.6,1.79l1-.66C837.59,120.3,839.06,121.83,841.08,123.94ZM571.69,143.72l-4-.23,5-4.41-7.8.84c-2.68,4.91,2.12,8.7,2.12,13.24,0,.29,1.62.84,2.43.76a2.24,2.24,0,0,0,1.5-1.53C571.34,149.66,571.46,146.9,571.69,143.72ZM227.2,523.23c2.24,0,5.18-3.92,5-6.63-.19-3.5-2.53-2-4.51-2-3.83.06-6,1.33-5.95,5.52C221.79,525,225.94,521.59,227.2,523.23ZM813,115.48c1.34,2.23-4.37,5.32,1.09,6.51.85.18,2.08-1.41,3.74-2.61l1.57.68c.44-1.47.79-2.64,1-3.39l6-1.35C821,110.71,817.43,117.38,813,115.48ZM77.39,740.66c-3.49,3.89-6.4,7.06-9.17,10.36-.25.3.22,1.74.71,2,.69.38,2.21.56,2.52.16C74.13,749.81,78,747,77.39,740.66ZM891.88,101.37c1.54-3,2.54-4.71,3.28-6.52a22.13,22.13,0,0,0,.88-3.74,14.09,14.09,0,0,0-3.84-.61c-1.89.2-3.57,1-2.77,3.5S891,98.73,891.88,101.37Zm28.59,821.35,1.62,3,6.68-5.33c-6.83-2.66-11.79-1.31-12.7,3.22ZM392.64,363.93c3.17-6.88,2-9.26-4.09-9C388.8,358.28,389.17,361.49,392.64,363.93Zm607.45,146.64,2.12-1.63-2.69-7.19-6,1.8ZM986.56,637.63c1.35,4.31,4.37,5.17,8.06,5.21C994.13,636.76,991.93,635.37,986.56,637.63ZM740.49,87.52c.7-.76,1.12-1.26,1.59-1.71s.88-1.07,1.44-1.23c3.67-1.06,3.88-1.72,1.45-5.18l-5,1.89C740.17,83.59,740.31,85.22,740.49,87.52ZM97.25,624.83c5.86-.74,6.42-1.51,4.71-7l-4.08.89C97.63,621.13,97.44,623,97.25,624.83Zm353.37,385c-1.27,1.17-3,2-3.15,3-.38,2.93.3,6.46,4.2,3.82C454,1015.13,453,1011.85,450.62,1009.83Zm553.79-547.44c3.27-4,3.78-.16,5.58.86l2.62-4C1008.3,456,1007,456.39,1004.41,462.39ZM710.92,982l-1.58.31c0,1.58-.63,3.82.17,4.58s3,.34,4.66.43l.36-1.15ZM631.1,110.46c1,1.6,1.43,3.3,2.28,3.53,1.41.39,3.09-.12,4.63-.4.2,0,.49-1.23.32-1.37a5.11,5.11,0,0,0-2-.9C635.1,111,633.82,110.89,631.1,110.46Zm268.66,28.19c0,.42,0,.83,0,1.25,3.94,2.78,4.65,2.73,7-1.25Zm29.34,80.12,1.33.52,4.29-6c-2.55.24-4.73-.06-5.05.58C929,215.26,929.23,217.12,929.1,218.77Zm40.53,37.17-1.17-1.19-6.87,5.15,3.59,1.29ZM155.7,551.45l.09,1,5.41,3.12c.3-1.75.55-3.27.86-5.1Zm266.52,454.34c-.91,1.2-2,2.24-1.84,2.48a9.45,9.45,0,0,0,2.73,2.76c.27.17,1.32-.89,2-1.39Z" transform="translate(-18.15 -58.1)"/>
      <path d="M719.89,65.24l.38.12c-.31-.66-1-1.79-.87-1.92,1.64-1.4,3.42-2.65,5.16-3.93-.21-.38.08.16.37.71C721.56,60.19,724.55,66.56,719.89,65.24Z" transform="translate(-18.15 -58.1)"/>
    </g>
  </g>
  <g class="default-fill">
    <path d="M335.31,739.11c.09.8.24,2.1.43,3.7l2.72-1v14.32c-3.57,1.49-3.91,3.52-1.26,5.78a4.1,4.1,0,0,1,1.41,2.51c.2,2.88.17,5.78.13,8.67,0,1.35.66,3.27-1.91,3.12.05,1.37-.27,3.75.22,3.94,2.94,1.09,2.19,3.43,2.26,5.45.11,3,0,6,0,9.07-.95.48-2.7.93-2.72,1.46a8.12,8.12,0,0,0,1.22,3.62c.43.87,1.6,1.59,1.63,2.41.45,10.16.74,20.33,1.09,30.74l-2.87.33c-.53,4-.46,4.13,3.63,4.81,0,8.14-.15,16.37,0,24.58.23,10,.84,20,1.13,30,.24,8.23.27,16.47.36,24.71,0,4.37-2,8.06-4.54,11.29-.9,1.14-3.43,1.48-5.11,1.3-.77-.08-1.66-2.27-1.88-3.6-3.83-23.63-2.65-47.51-3.46-71.29-.64-18.87-1.12-37.74-1.66-56.61q-.85-30.18-1.66-60.34c-.27-10.06-.58-20.11-.63-30.17,0-2.05,1.09-4.09,1.58-6.16,1.14-4.8,3-9.59,3.17-14.44.45-13.08.29-26.19.14-39.29-.13-11.71-.57-23.41-.87-35.11-.13-5.2-.46-10.41-.36-15.61.14-7.17.64-14.32.9-21.48a35.83,35.83,0,0,0-.47-4.09c-.18-2.31-.26-4.62-.43-6.92-.21-2.85-.5-5.69-.69-8.54-.12-1.91-.16-3.82-.15-5.74,0-3.35.14-6.7.2-10.05a15.07,15.07,0,0,1,0-2.85c.65-3,2.14-6,2-8.88a33.81,33.81,0,0,1,.87-7.58c.65-3.93,1.76-5.59,5.48-6.46a24.42,24.42,0,0,1,5.31-.72c8.83-.13,17.67-.09,26.5-.22,6-.09,9.09,1.76,9.75,9.57.72,8.64.65,17.35.86,26,.34,13.91.62,27.83.95,41.75.25,10.19.55,20.38.81,30.58q.84,33.27,1.68,66.54c.12,4.51.88,5.29,5.48,5.21,5.23-.09,10.47-.59,15.7-.53a18.25,18.25,0,0,1,7,1.6c4.25,1.89,8.63,1.43,13,1.4,3.95,0,7.9,0,12.55,0a43.3,43.3,0,0,0,.72-6.4c-.34-13.22-.89-26.43-1.23-39.65-.21-8.27-.25-16.54-.2-24.81,0-4,1.11-4.93,4.83-6.1a63.57,63.57,0,0,1,19.57-2.47c6.21,0,12.43.18,18.63-.07,8.08-.32,11.44,4,11.62,11.43.47,18.59,1.12,37.19,1.66,55.78q.85,30,1.64,59.93.84,30.78,1.67,61.58.83,30.59,1.66,61.16c.46,15.84.81,31.69,1.62,47.51.25,4.87-2,8.76-3.4,13a4.79,4.79,0,0,1-5.29,3.14,66.05,66.05,0,0,0-9-.13c-1.91.08-3-.56-3.06-2.42-.06-2.38-1.36-3.3-3.46-3.93-3.76-1.12-4.74-2.4-4.85-6.17-.23-8-.33-15.93-.52-23.89q-.16-6.8-.41-13.6c-.23-6.73-.57-13.45-.73-20.17-.21-8.37-.37-16.74-.37-25.11,0-2,.73-4,1.12-6-2.88-4.64-7.44-3.26-12.43-3.22l2.9,1.13-4.06,1.35c.44,2.38.83,4.71,1.33,7,.56,2.64.81,4.83-1.89,6.91-.94.73-.72,4.92.4,5.92,2.47,2.19,2.31,4.65,2.36,7.26,0,2.25,1.36,5.09-2.56,5.85-.32.07-.38,3.23.07,4.77.27.92,1.76,1.49,3,2.44V878.4c-1.09,1-3.77.3-3.34,3.17.38,2.56,1,4.59,4,4.74a38.77,38.77,0,0,0,.05,5.93c.57,3.37.12,6-3.87,6.71.27,3.29,1.2,5.74,4.77,6.59a52.78,52.78,0,0,1-.07,7.33c-.53,3.81-2.29,4.42-6.26,4-1.63-.18-3.9,1.08-5,2.41-.7.82.19,3,.67,4.51-1.3,5.76-5.07,6.94-10.77,6.2-5.17-.67-10.53.2-15.81.23-5,0-6.36-1.3-7.91-6.11a23.6,23.6,0,0,1-.78-12.58c.82-3.79-1.24-6.51-5.13-6.88-2.84-.26-5.74,0-8.17,0a105.72,105.72,0,0,1-.08,10.59,71.73,71.73,0,0,1-2,9.06c-.06.25-.26.64-.44.66-3.89.47-6.48,4.57-10.88,3.76-1.69-.31-3.5.17-5.23,0-2.14-.15-4.25-.63-6.38-.86-1.86-.21-3.87-.76-5.59-.31-7.56,2-13.13-1.67-13.7-9.71-.45-6.44-.29-12.92-.53-19.38-.28-7.54-.76-15.08-1-22.62-.14-4.08.12-8.17,0-12.25-.24-9.9-.64-19.79-.88-29.68-.33-13.84-.57-27.68-.84-41.52-.21-10.69-.37-21.38-.63-32.08-.14-5.88-.65-11.77-.6-17.65,0-5.5.52-11,.95-16.47.29-3.56-.83-5.07-4.44-5.28a21.5,21.5,0,0,0-4.54.09c-3.43.51-4.54,2.79-3.91,6.17a42.63,42.63,0,0,1,.53,9.38C338.23,737.29,336.61,738,335.31,739.11Zm123.62,68.66v1.79l.88-.13-.94-1.7v-2l-.95.19C458.25,806.54,458.59,807.15,458.93,807.77ZM453.29,641c1.83-1.7.65-2.54-.77-3.54-.29.47-.57.71-.53.89.14.64.38,1.26.58,1.89-.19,1-.38,2-.56,3l1.28.11Zm3.87,144.37-.39-1.66-.75.35,1.19,1.26q.42,3.3.85,6.6l-1.22,2.43c2.64-.68,2.64-.68,1.15-2.38C458.84,789.66,460.67,787.19,457.16,785.4Zm1.4-19.42c.28-1.12.55-2.25.81-3.29L455,761.8c.13,2.47,1.23,3.82,3.53,4.2l.33,1.27.33-.19ZM346.24,694.39c-1.61-1.39-1.43-3.08-.69-4.78,1.09-2.48,3.12-4.89.32-7.56-.14-.13.34-.82.39-1.27a10.44,10.44,0,0,0,.19-3.18c-1.07-4.91-1.68-9.79-.28-14.75a5.74,5.74,0,0,0-.29-2.31c-.25-1.42-.6-2.84-.75-4.28-.31-2.87-.27-5.81-.86-8.61-.24-1.11-1.78-1.95-3.37-3.56-.74,2.37-1.48,3.73-1.54,5.12-.18,4.19-.08,8.39-.11,12.58,0,2.54-.21,5.08-.11,7.61.25,6.44.87,12.87.88,19.31,0,6.14-.72,12.27-.79,18.41a42.89,42.89,0,0,0,1.13,8.92c.46,2.22,2,3.21,4.36,2.37s3-2.4,2.19-4.84a13.43,13.43,0,0,1-1-3.91c0-5.11.15-10.21.25-15.32l1.17-1.51-.58-.3Zm-6.59-73.73c-.38,1.08-1.11,2.18-1.07,3.26.17,5.43.5,10.85.87,16.27a10.57,10.57,0,0,0,.95,2.62c2.45-2,2.79-4,1.67-6.8a19.4,19.4,0,0,1-.67-3.78c-.33-1.8,2.21-2.84.91-5.23-.76-1.38.41-3.81.72-5.86l-3.46-.43c1.61-2.71,4.36-5,2.75-8.79-.18-.43.19-1.08.15-1.61-.08-1.26-.23-2.5-.38-3.75a13.79,13.79,0,0,1-.38-2.74c.4-5.27.89-10.54,1.35-15.87h-2.38a11.66,11.66,0,0,1,1.31-2.72c1.39-1.64-.23-3.38.36-5a14.72,14.72,0,0,0,.3-9.42c-.78-2.82-.6-6-.45-9,.25-5,1.06-9.91,1.2-14.88.11-4.18-.55-8.37-.57-12.56,0-5.26.51-10.54.29-15.79-.13-2.89-3.12-2.06-5-2.33S336,517.36,336,519c.16,4.17.1,8.34.35,12.5.4,6.63.26,13.27.45,19.88.34,11.53.41,23,.62,34.57.11,6.27,1.82,12.38.11,18.87-1.05,4,.28,8.68.72,13C338.38,618.79,339.18,619.71,339.65,620.66Zm48.92,280.79a5.16,5.16,0,0,0,1.94.69c5.21.32,10.43.49,15.65.79,2.54.14,3.56-1,4.19-3.45,1-4,.18-7.74,0-11.63-.38-10.12.06-20.27-.24-30.4-.18-6.13,1.28-12.33-.66-18.43-.4-1.25-.05-2.73-.06-4.11,0-4-.1-7.94-.15-11.91-.08-7.13-.17-14.26-.22-21.39,0-2.56.2-5.13.14-7.69-.09-3.83-.35-7.65-.5-11.48-.09-2.27-.17-4.55-.16-6.83,0-2.58.23-5.16.13-7.73-.25-6-.77-11.9-.93-17.86-.15-5.72,0-11.45,0-17.18,0-4.93,0-9.87,0-14.8.05-3.43.85-7,.18-10.23-.58-2.83-.86-5.23.63-7.28-2.36-1.22-4.4-3-6.63-3.28a97.61,97.61,0,0,0-16-.84c-3,.11-3.77,2-3.1,5,.32,1.46,1.23,3.08.87,4.35a26.38,26.38,0,0,0-.66,11.29c.58,4.31,0,8.77.48,13.12.39,3.89-2.83,7.65-.3,11.54.07.1,0,.27,0,.41-.41,8.19-.94,16.31.88,24.52,1.14,5.17.78,10.68,1,16,.19,4.73.23,9.46.37,14.19.11,3.45.42,6.9.37,10.35,0,3.09-.58,6.18-.66,9.28-.13,5.37.9,10.61.54,16.13-.57,8.86,1,17.85,1.57,26.8.26,4.07.16,8.16.33,12.24.13,3.12,1.1,6.38.5,9.33-1,5,.45,9.8.46,14.68C388.58,897.46,388.57,899.21,388.57,901.45Zm67.49-279.79c-.18-.3-.36-.6-.55-.9l-5.95,1.67c4.31,1.68-.53,2.64,1.4,4.67l2.42,1.31C454.34,626,455.2,623.83,456.06,621.66Zm-115,287.7-1.45.29c-1.05,1.72-.45,3,2.16,3.88Zm-2.39-52.87,1.11-.16c1-1.54.7-2.9-1.74-4Zm1.7,33.65-1.56.47,1.19,3.83,1.28-.36C341,892.76,340.66,891.45,340.36,890.14Zm-2.92-71.75,1.2,0c1.16-1.62,1.2-3-1.62-4.52C337.2,815.75,337.32,817.07,337.44,818.39ZM455.18,670.71l-.35-.75-3,1,1,2.41Zm.27,86.87,1.08.22c.25-1.25.5-2.5.83-4.19C453.59,754.61,456.27,756.45,455.45,757.58ZM339.06,875.45l1.21-.14-.4-3.94-1.39.16C338.67,872.83,338.87,874.14,339.06,875.45ZM453,691.24l2.7-3.17C452.72,687.33,452.64,688.88,453,691.24ZM454.18,679l.94-.81-3.64-2.92C452.75,677.06,453.46,678.05,454.18,679Zm-.43-32.53-1.23-.58c-.35.88-.71,1.76-1,2.66a7,7,0,0,0,1,.49C452.94,648.21,453.35,647.35,453.75,646.5Zm-6.52,186.67.53,0v-5.23c-.51,1.15-.78,1.49-.77,1.81C447,830.87,447.14,832,447.23,833.17Zm9.89-53.65c1.46-2.13,1.47-2.15.4-3.17-.11-.11-.47,0-.87.11C456.77,777.22,456.88,778,457.12,779.52Zm-3.44-146.63.37-.61-1.4-1-.49.94Zm2.56,104.49-1,.47,1.27,1.88.52-.26C456.76,738.78,456.5,738.09,456.24,737.38Zm-5-79.39c-.13.16-.39.33-.37.47s.27.32.42.48c.14-.16.4-.33.38-.46S451.43,658.15,451.27,658Zm1.81-3c-.16-.17-.3-.47-.47-.48s-.43.21-.65.33c.18.21.36.43.53.65Zm-3.14-35.42-.19.62c.2.16.46.48.58.44a6.24,6.24,0,0,0,1-.66Z" transform="translate(-18.15 -58.1)"/>
    <path d="M588.86,826c2.71,2,5.8,2.34,9,2.3,3.72-.06,7.46.15,11.18,0,2.72-.09,3.84-1.39,3.27-4-.91-4.17.11-8.11.52-12.19.46-4.57-.31-9.26-.58-13.9,0-.52-.62-1.17-.45-1.52,2.24-4.6.41-9.32.5-14s.26-9.31.24-14-.1-9.51-.46-14.24a92.43,92.43,0,0,0-1.56-9.12,5.8,5.8,0,0,1-.31-1.19q.24-8.61.53-17.24c.19-5.86,1.12-11.67-.26-17.57-.6-2.59,0-5.47.14-8.21.16-3.07.47-6.14.68-9.21.47-7.18-1.1-14.38.39-21.57a10.5,10.5,0,0,0-.51-4.71c-1.42-5.17,0-10.31,0-15.45,0-6.25.53-12.5.88-18.75.08-1.48.34-3,.53-4.52l-3.74-1.34c2.76-2.33,5.59-1.16,8.12-1.49a62.74,62.74,0,0,1,8.1-.55,76.24,76.24,0,0,1,12.29.65c1.57.27,2.82,2.49,4.29,3.89,3.79-4.23,3-9.78,3.33-15.06.17-2.69.41-5.38.38-8.07,0-4.13-.28-8.24-.47-12.36,0-1-.57-2-.27-2.85,1.73-4.57.49-9.22.5-13.83,0-2.59-.66-5.2,1.08-7.59.36-.5,0-1.54-.06-2.33-.3-4.63-.71-9.26-.83-13.89,0-1.1.92-2.22,1.45-3.4-2.91-4.3-1.92-9.09-.6-13.45.51-1.71,3.83-2.67,6-3.75a7.46,7.46,0,0,1,2.87-.26c4.35-.24,4.66-.55,5-4.74a5.54,5.54,0,0,1,1.16-3.19,26.57,26.57,0,0,1,.32,4.43c-.25,2.88,1.32,3.68,3.73,3.56a43.6,43.6,0,0,0,4.42-.66c-.1-12.21-.68-24.15-.16-36s-1.22-23.73.46-36.31L668,460.54c-1.7-3.49,3.53-7.75-1.14-11.23,3.15-2.35,1.52-6.16,2-9.41.4-2.75-.11-5.65-.41-8.47a31.67,31.67,0,0,0-1.1-4.39l-.79.13c0-.27-.06-.67.09-.79,3.34-2.77,3.12-6.31,2.4-10.07-.54-2.86-.9-5.77-1.21-8.67-.19-1.77-.27-3.61,2.72-4.78.47,3.85.92,7.4,1.32,11s.75,7.37,1.21,11a3.42,3.42,0,0,0,3.11,3.31c1.84.28,2.78,1.32,3,3.33A148.16,148.16,0,0,0,686.26,462c1.22,3.67,2.17,7.42,3.39,11.08a44.24,44.24,0,0,1,1.8,15.93c-.33,8.26-.49,16.53-.78,24.79q-.21,6-.64,12c-.24,3.36.75,6,4,7.48s4.18,4.07,4.14,7.41c-.33,27.16-.58,54.32-.92,81.48-.09,8-.49,16-.57,24q-.57,57.08-1,114.16c-.22,21.92-.54,43.84-.82,65.76q-.37,28.95-.79,57.89-.26,17.34-.68,34.68a66.88,66.88,0,0,1-.66,9.4,3.9,3.9,0,0,1-2.57,2.58,26.16,26.16,0,0,1-15.69-2.72c.43-1.45.76-2.59,1.18-4-3-.71-3.14-2.87-3.11-5.34s.86-5.09-2.89-6.15c-.93-.26-1.45-3.4-1.46-5.22q-.17-21.66,0-43.32c.07-13.92.27-27.83.38-41.74.06-8.13.05-16.26.1-24.38.07-10.56.19-21.12.24-31.68,0-8.24,0-16.47,0-24.71,0-9.75.12-19.5.18-29.25q.14-23.1.25-46.19c.05-12.95,0-25.91.1-38.86.05-8.37.3-16.74.31-25.12,0-8.16-.25-16.33-.25-24.49,0-7.82.12-15.65.26-23.47.09-5.07,0-10.18.55-15.21.5-4.49-3.49-4.38-5.57-6-1.61-1.27-3.65-.22-5,1.52a20.11,20.11,0,0,1-2.4,2.17l-1.83-2.06-2.71,2c1.71,4.17,2.83,8.22.9,12.74,1.91,3.12,3.7,6.5,1.42,10.49-.29.52,0,1.33-.08,2-.18,2.16-.39,4.32-.55,6,.35,3.1,1,5.87.89,8.62-.09,3.25-.81,6.49-1.18,9.74a9.68,9.68,0,0,0,.3,2,76.11,76.11,0,0,1,.95,8.48c.06,7.82.08,15.66-.25,23.47-.25,5.94.25,11.91-1,17.85-.53,2.52.41,5.35.69,8,.06.55.38,1.2.18,1.62-1.89,4-1.16,8-.79,12.13,0,.14-.09.3,0,.41,2.64,6.92-1.92,14,.15,20.73,1.72,5.66-.75,11.14.23,16.68a40.33,40.33,0,0,1,.38,4.8c.06,1.19.07,2.39.07,3.58,0,5.19,0,10.38-.12,15.57-.07,3.42-.54,6.84-.49,10.25,0,3.12.66,6.22.79,9.34.07,1.56-.7,3.16-.58,4.7.37,4.88-1.37,9.9,1,14.65.17.34.28,1,.09,1.19-2.93,3.54-.46,7.77-1.52,11.54a2.83,2.83,0,0,0,0,1.63c1.93,5.77.27,11.54,0,17.3,0,.41-.23.89-.08,1.22,2.35,5.39-.27,10.79.08,16.17.07,1-.29,2,0,2.87,1.94,5,.09,10,.12,14.93,0,2.45.35,4.91.57,7.36.1,1.09.56,2.25.32,3.25-1.41,5.85-1.09,11.62-.2,17.52.44,2.91-.52,6-.54,9,0,6.29.2,12.58.17,18.86,0,7.2-.3,14.41-.35,21.61,0,2.58.31,5.16.5,7.95-.66.24-1.28.49-1.91.67a10.77,10.77,0,0,0-8,12.54c.66,4.35-.09,5.32-4.44,4.86-6.14-.65-12.23-1.61-18.35-2.34a21.81,21.81,0,0,0-4.14.39c-.51-1.84-1.19-3.73-1.56-5.69-.83-4.43-1.54-8.9-2.23-13.36a26.87,26.87,0,0,1-.29-4.11q0-18.79,0-37.6c0-10.72,0-21.43,0-32.15,0-2.82-3.75-6.17-6.61-6-5.19.36-6.85,2.72-6,7.74.51,2.9,1.57,6-1.6,8.58-1.67,1.37,0,4.17,3,5.53a64.91,64.91,0,0,1-.44,7.5,12.82,12.82,0,0,1-2,4.4c-2,3.25-1.63,5.7,1,7.68,0,3.25,0,6.11,0,9,0,.14.07.33,0,.4-3.32,3.84-1.66,7.86-.33,11.8,1,2.84.18,5.49-.87,8-1.43,3.38-1.37,6.39,1.44,9.4L592.5,921c-5.1-.39-6.06-1.48-6.09-7.21-.07-16.69,0-33.38-.15-50.06q-.39-64.12-.87-128.23-.37-51.71-.76-103.41c0-2,.3-4,.47-6l.84-.12c.31.62.61,1.24.91,1.86,3.45-1.21,4.8-.29,5.34,3.33s.52,7.36,3,10.49c.53.65,0,2.38-.36,3.49-.92,2.68-1.36,5.3-.32,8.07.81,2.14.17,4-1.3,5.73a21.39,21.39,0,0,0-2.92,4c-2.16,4.08-1.57,6.81,2.36,9.08a5.47,5.47,0,0,1,3,5.65c-.27,5.46-.42,10.91-.56,16.37a10.45,10.45,0,0,0,.3,3.67c2.83,8.41,1.2,17.19,2.16,25.75.1.89-.58,1.83-.65,2.77-.22,2.86-1.3,6.16-.27,8.51,3,6.82,1.18,13.57.75,20.33-.2,3.2-1.55,6.31-2,9.52-.85,6.78-1.42,13.6-2.09,20.41-.06.67.11,1.37.07,2-.31,5.62-.66,11.23-1,16.84a8.15,8.15,0,0,0,.12,2.84c2,6.49,2.56,12.86-1.25,19.29h-2.6v-3.48l-.83.09C588.27,823.72,588.57,824.83,588.86,826ZM585.78,686.5c1.83-4.41,1.48-21.89,0-24Zm.9-35.23.38.05V632.16h-.38Zm-.11,60.16.38.36V700.93h-.38Zm4-23.61,1-.09v-4.25l-1,0Zm45.74,235.23-1,1a18.39,18.39,0,0,0,1.84,1.59c.07.05.65-.63,1-1ZM586.58,692.61c.11-.18.32-.38.29-.53s-.31-.28-.48-.42c-.1.18-.32.39-.29.54S586.41,692.48,586.58,692.61Z" transform="translate(-18.15 -58.1)"/>
    <path d="M849.61,926.7l-1.09-3.44c-.33,1.35-.64,2.58-1,4.26-4.06-3.31-7.91-2.44-11.82.07-2.19-2.59-4.45-4.49-8.09-4.12-1,.09-3.06-2-3.16-3.15-.54-6.42-.65-12.89-.82-19.34-.11-4.11-.08-8.23-.08-12.34,0-8.37.1-16.73,0-25.1,0-5-.49-10.09-.59-15.13-.15-7.27-.16-14.53-.22-21.8-.06-6.71-.12-13.43-.14-20.14,0-5.47.1-10.94,0-16.41-.14-8.9-.59-17.8-.53-26.69,0-4.47.88-8.94,1.38-13.63-3.42-3.06-7.86-2.44-12.07-2.66-2.37,4-.69,8.21-1,12.23a7.09,7.09,0,0,1-.94,3.66c-1.7,2.23-1.36,4.4-.3,6.57,1.89,3.88,2.42,7.83.3,11.68a6.14,6.14,0,0,0-.09,6.25c2.3,4.61,1.95,9-.17,13.71-.75,1.68-.18,4.35.6,6.23,1.75,4.3,2.65,8.41-.32,12.46-1.56,2.13-.5,4.19.47,5.78,2.62,4.28,1.3,8.56,0,12.53a8,8,0,0,0,.25,6.6c2.22,4.42,2.81,8.72.14,13.26a5.35,5.35,0,0,0-.14,4.21,17.66,17.66,0,0,1,.32,14.76,5.64,5.64,0,0,0,.26,4.32c2.67,4.75,2.24,9.27.13,14.09a7.07,7.07,0,0,0,.39,5.38c2.39,4.64,2.85,9.07-.14,13.52-1.31,2-.66,3.59.44,5.34,2.23,3.53,1.51,5.28-2.4,6.74a6.84,6.84,0,0,0-3.23,2.21c-1.75,2.63-4.22,2.54-6.63,1.94s-2.25-2.85-2.44-4.78c-.05-.54,0-1.1-.05-1.65q-.42-33.92-.85-67.82-.53-45.48-1-91-.36-30.39-.81-60.78-.42-32.06-.83-64.1-.43-33.9-.81-67.81c-.06-6.61,0-13.23.31-19.84.33-7.15.33-9.08,9.7-10.38a50.5,50.5,0,0,1,5.78-.27c8.69-.23,17.38-.71,26.07-.6,11.15.15,11.83,1.53,12.62,12.75.93,13.18.27,26.46.42,39.7.23,20.67.56,41.35.87,62,.24,16,.52,32,.74,48q.48,37,.91,74,.39,29.35.81,58.72.42,31.42.85,62.85c.08,5.64.59,11.29.5,16.93-.06,3.43-.9,6.85-1.39,10.28Z" transform="translate(-18.15 -58.1)"/>
    <path d="M757.91,923V914.8q0-19.17-.07-38.35,0-23.73,0-47.48c0-14,.16-28.06.2-42.09,0-8.92-.06-17.84,0-26.77a3.24,3.24,0,0,0-3.09-3.59,28.06,28.06,0,0,0-5.34.07c-1.57.11-3.13.4-4.78.62l1.53,7.83-1.1.26q-.66-2.71-1.3-5.43l-.67.07c0,.84-.1,1.69-.11,2.53,0,3.28-.08,6.55-.07,9.83,0,1.22-.25,2.64.26,3.63,2.28,4.4,1.38,8.85.42,13.26a17.4,17.4,0,0,0,.38,7.55c.81,3.86,0,8.07-.25,12.13-.06,1.34-.56,2.7-.42,4,.39,3.68,2.19,7.66,1.27,10.91-1.66,5.88.15,11.15.71,16.68.15,1.42-.55,2.95-1,4.4a19,19,0,0,0,0,8.88c.7,3.64-.24,7.59-.47,11.41-.1,1.62-.86,3.63-.18,4.79,2.91,4.88-.14,9.57,0,14.32,0,.66-.62,1.45-.41,2,2.41,6.2-.55,12.38,0,18.55.1,1.23.58,2.43.62,3.65s-.28,2.46-.35,3.7c-.17,3.11-.29,6.22-.42,9.33,0,.68,0,1.37,0,2-.12,3.9-2.85,6.62-6.73,6.1-2.53-.34-3.82-2.6-4.2-5a41.2,41.2,0,0,1-.25-6.19c-.11-25.93-.15-51.85-.3-77.78q-.25-40.74-.67-81.48-.41-47.91-.86-95.81c-.2-19.58-.65-39.15-.79-58.73-.12-15.15.05-30.31.11-45.47,0-5.71,1.8-7.75,7.55-8,8.27-.4,16.55-.57,24.82-.73a104.35,104.35,0,0,1,13.24.18c7.58.83,8.15,3.37,7.91,8.94-.22,5.08.3,10.18.33,15.27.1,16.82.08,33.65.17,50.47q.39,72,.83,143.94.4,67.64.85,135.26c0,6.19.36,12.39.5,18.59a33.46,33.46,0,0,1-.22,4.12c-.27,2.62-1.57,3.89-4.39,3.71-4.94-.32-9.89-.47-14.84-.63a3.75,3.75,0,0,1-3.72-2.59c-.87-1.88-2.49-3.41-3.78-5.09Zm-6-347.06.1-.64-1.67-.34a3.22,3.22,0,0,0,0,.74A12,12,0,0,0,751.9,575.93Zm-2.19-11.38.3.64a6.14,6.14,0,0,0,1-.32c.07,0,0-.41-.06-.63Z" transform="translate(-18.15 -58.1)"/>
    <path d="M534.61,763c-3.81-2.19-7.49-3.61-11.72-1.2-1.53.87-2.39,1.69-2.06,3.5s.61,3.52.75,5.3c.18,2.43.69,4.88-1.84,6.75-1.9,1.4-.92,3.18.18,4.73,2.2,3.1,1.64,10.88-.31,14.35-.67,1.19.06,3.64.89,5.1,2,3.54,1.73,10.34-.59,13.77a4.63,4.63,0,0,0,0,4.06c2.77,5,3.07,9.72,0,14.63-1.45,2.29-.54,4.57,2,6.21,0,2.76.06,5.37,0,8-.06,2,.39,3.91-2.13,5.26-1.85,1-.66,3.28.41,4.34,3.73,3.68,2.14,7.94,1.71,12.08a3.35,3.35,0,0,1-.93,1.69c-2.54,2.79-2.08,4.37,1.58,5.41.23.07.4.35.24.2v13.21c-3.62,1.37-4.09,3.56-1.74,6.23a6.88,6.88,0,0,1,1.6,3.35,40.71,40.71,0,0,1,.37,7.4,4.26,4.26,0,0,1-1.45,3c-2.28,1.51-1.53,2.85-.23,4.38,2.21,2.61,1.79,5-1.18,6.46a43,43,0,0,1-4.08,1.87c-3.15,1.2-4.86.52-6-2.68a15.28,15.28,0,0,1-.65-4.87c-.09-9.24-.07-18.47-.14-27.71q-.42-56.67-.86-113.32-.37-45.9-.83-91.81c-.13-12.13-.53-24.25-.53-36.38,0-6.71.56-13.42.86-20.14.09-2,.65-3.33,2.94-3.78,1.7-.33,3.26-1.36,5.34-2.29.1,3.66-4.27,7.48,2,9-6,3.82-1.1,9.51-2.77,14.31a5.8,5.8,0,0,0,1,.66,13.26,13.26,0,0,0,1.88.5c-.85,1.5-1.58,2.76-2.3,4,1.57,4.28,1.62,8.68,1.15,13.14-.09.8-.4,2,0,2.38,2.58,2.55.87,4.48-.71,6.47-1,1.29-.94,1.88.07,3.62,1.67,2.87,1.95,6.65,2.35,10.09.13,1.11-1.64,2.36-1.72,3.6-.21,3.41.08,6.84,0,10.27,0,4.7-.35,9.4-.27,14.1,0,1.66.82,3.31,1.48,5.72-.81,1.5-2.16,3.67-.61,6.49.51.92-.68,2.67-.81,4.07-.44,4.62-.9,9.25-1.05,13.88-.08,2.43-.13,5.16.85,7.26,1.68,3.62-.25,6-2,8.86h17.36V749l0-14.43a51.1,51.1,0,0,0-.08-7.22c-.67-4.82,1.5-9.77-.68-14.51-.1-.21,0-.55.11-.81,2-6.47.28-13,.14-19.48-.25-10.54-.38-21.07-.28-31.62.11-11.93-.38-23.87-.48-35.8-.08-9.76,0-19.52.06-29.27,0-8.11.14-16.21.19-24.31,0-4.63,0-9.26,0-14.3l-5.48-1.48c2.76-2.12,5.57-1.78,8.16-1.87,5.09-.19,10.19-.25,15.28-.1a51.49,51.49,0,0,1,9,1.11c3.42.72,4.29,2,4.34,5.49.31,22.47.65,44.93.88,67.4q.51,51.69.9,103.39.39,44.87.81,89.74c.28,31.29.59,62.58.77,93.87,0,4.38-.65,8.77-1,13.16-.15,2.06-1.29,2.92-3.26,2.89-5.23-.1-10.49-.53-15.7-.21s-9-.58-8.83-6.92a.61.61,0,0,0-.16-.37c-4-4.87-2.7-10.63-2.75-16.18-.1-10.56-.25-21.12-.35-31.68-.12-12.78-.16-25.57-.31-38.36-.07-6.3-.47-12.6-.42-18.9.1-15.67.33-31.34.61-47A78.73,78.73,0,0,1,534.61,763Z" transform="translate(-18.15 -58.1)"/>
    <path d="M208.23,824.3H195.49v14.76l-1.44.06a65,65,0,0,1-1-7.82c0-3-.71-5.17-4.12-5.49-2.32-.22-3-2-3-3.83-.11-6.14.07-12.28,0-18.42,0-13.56-.23-27.12-.17-40.68,0-5.46.62-10.93.82-16.4.05-1.47-.53-3-.57-4.45-.18-7-.18-14-.43-21-.46-12.91-1.1-25.81-1.55-38.72-.13-3.55.17-7.12.19-10.68.07-15.69.17-31.38.12-47.07,0-3.36,1.12-5.06,4.18-7,2.9-1.85,5.51-1.64,8.32-1.82,5.22-.33,10.47-.68,15.69-.61,6.47.09,12.95.47,19.4,1,3.65.3,4.79,1.69,5,5.3.34,7.84.79,15.68.83,23.53q.51,113.32.92,226.66c.07,14.61.44,29.21.5,43.82a52,52,0,0,1-1.09,10.25c-.8,4.07-2.46,5.16-6.67,5.17-5.1,0-10.21.1-15.32,0-4.5-.07-4.77-.87-6-5.09-3.5-12.31-2-24.85-2.15-37.31-.17-15.84-.12-31.69,0-47.54,0-3.09,1.08-6.17,1.18-9.28C209.27,829.29,208.6,826.89,208.23,824.3Zm-8.58-163.93c-.14.87-.27,1.73-.41,2.6,1.21-.82,2.68-1.67.34-2.54,1.14-1.5,3.45-2.76,1.17-5.21C199.62,657,198.82,658.5,199.65,660.37Zm.3-11.31,1.37-.1,1.41-5.67c-1.52.44-3.14.64-3.16,1A29.08,29.08,0,0,0,200,649.06Zm-.33-7.78,1,.35c.6-1.13,1.51-2.22,1.67-3.4.07-.57-1.27-1.33-2-2l-1,.6C199.43,638.32,199.52,639.8,199.62,641.28Zm.17,118.84c.24.13.45.26.46.25.81-1.23,1.6-2.47,2.45-3.78C200,756.43,199.61,758,199.79,760.12Zm.51-108.75-.68.46,1.43,2.22.74-.5C201.29,652.83,200.79,652.1,200.3,651.37Zm1.09-23-.49-.76-1.57,1.23.39.56ZM203,763.46c-.3-.39-.47-.82-.76-.91s-.66.17-1,.28l.67,1.23Zm-3-144.12V620l1.89-.19,0-.47Zm0,46.34-.67.56.92,1c.16-.15.48-.38.45-.44A11.25,11.25,0,0,0,200,665.68Zm.19-32.84.52.88,1.58-1.13-.37-.62Zm.6,122.31.65-.26c-.11-.2-.19-.51-.36-.57s-.43.13-.64.21C200.57,754.74,200.69,754.94,200.81,755.15Z" transform="translate(-18.15 -58.1)"/>
    <path d="M268,929.75l-2.3-2.48a19.85,19.85,0,0,0-1.88.64c-3,1.35-3.79,1-4.57-2.14a25.41,25.41,0,0,1-.83-4.88c-.32-6.74-.62-13.49-.78-20.24-.4-15.84-.66-31.69-1.07-47.53-.49-19.15-1.08-38.29-1.65-57.44q-.81-27.67-1.65-55.36c-.4-12.39-.93-24.78-1.37-37.17-.24-7,3.34-10.62,10.25-10.36,2.33.09,4.65.57,7,.71a63.79,63.79,0,0,0,14.65-.39c6.22-1,12.86.06,19.27.71,4.23.44,7.36,4.54,7.47,8.79q.49,20.67.94,41.33.88,39.9,1.74,79.78.36,16.53.78,33.06c.48,19.15,1,38.3,1.48,57.44.1,4.14,0,8.28-.07,12.41-.1,3.52-.75,4.19-4.13,4.22-6.05.06-12.1.07-18.15,0-4.76-.09-5.43-.92-5.77-5.54a15.79,15.79,0,0,0-1.17-4.72c-1.44-3.44-2.92-6.72-1.37-10.63.61-1.57,1.62-3.75-.85-5.11-2.91-1.62-5.88-2.44-9.06-.87-2.28,1.13-2.47,3.31-2.07,5.37a14.82,14.82,0,0,1-1.71,10.7c-.95,1.69-.8,4-1.19,6-.23,1.24-.52,2.46-.79,3.69Zm5.21-199.88,1.59-.31c0-3.25.06-6.22-.07-9.18,0-.41-1-.79-1.48-1.18l1.48-5.28c-3.37,1.51-3.66,2.61-1.42,5.23a14.24,14.24,0,0,0,0,10.77c-.9,1.52-.9,1.52,1,1.65Zm3.22-23.12c-1.78-.13-3.28-.72-4-.21-2.51,1.8-.35,3.73.81,5.92C274.19,710.82,275.1,709.17,276.46,706.75Zm-4.25-8.25V699h2.4v-.47ZM276.36,837c-.22.08-.52.1-.61.26s.08.41.14.62l.86-.36Z" transform="translate(-18.15 -58.1)"/>
    <path d="M655.57,516.52l-2.24-1.88c-.31,2.32-.58,4.31-.85,6.31l-.8,0c-.93-5.68-2.82-11.16-2.26-17.12.32-3.39-.13-6.85.14-10.24.4-5,1-10.06,1.83-15,.17-1.06,1.55-1.92,2.37-2.87,1,1,2.78,2,2.85,3,.2,2.9-.4,5.85-.54,8.79-.23,4.66-.4,9.33-.48,14C655.51,506.36,655.57,511.2,655.57,516.52Z" transform="translate(-18.15 -58.1)"/>
    <path d="M188.91,900.36c-.43-.5-1.23-1-1.22-1.52.06-2.81.3-5.63.48-8.45a32.08,32.08,0,0,1,.42-5,18.3,18.3,0,0,1,1.77-3.75c4.38,3.59,4.13,7.79,3.23,11.93-.3,1.35-1.88,2.39-2.78,3.63-.73,1-1.32,2.15-2,3.23Z" transform="translate(-18.15 -58.1)"/>
    <path d="M188.84,900.41c3.4.31,3.81,3.12,3.78,5.43a37.35,37.35,0,0,1-1.59,8.83c-.32,1.19-1.42,2.18-3,3.06-.07-.83-.52-1.94-.15-2.45,2.7-3.73,1.33-7.58.34-11.31-.4-1.52-.61-2.58.65-3.61Z" transform="translate(-18.15 -58.1)"/>
    <path d="M662.72,429.18c-.5,6.1-.27,12.24-1.43,18.26-2.65-1.8-1.69-4-1.59-6.06s.26-4.38.46-6.56S659.64,430.34,662.72,429.18Z" transform="translate(-18.15 -58.1)"/>
    <path d="M518.4,606.17c.4,1.24,1.5,3.06,1.06,3.57-.88,1-2.6,1.35-4,2l-.75-.93c.85-1.52,1.71-3,2.56-4.54Z" transform="translate(-18.15 -58.1)"/>
    <path d="M187.42,881.31v-7.88C190.8,876.07,190.82,876.76,187.42,881.31Z" transform="translate(-18.15 -58.1)"/>
    <path d="M520.31,558.12a11.22,11.22,0,0,1,1,3.2c0,1.68-.6,3.24-3.17,3.11l1-6Z" transform="translate(-18.15 -58.1)"/>
    <path d="M184.67,884.57c-.18-2-.35-4-.53-6.05C186.74,880.83,186.78,881.34,184.67,884.57Z" transform="translate(-18.15 -58.1)"/>
    <path d="M191.36,863.69c.59,1.7,1,2.89,1.43,4.08-.93.05-2.21.5-2.73.06C188.53,866.52,189.28,865.32,191.36,863.69Z" transform="translate(-18.15 -58.1)"/>
    <path d="M193.8,848.06c-4,.93-4.08.8-3-2.72Z" transform="translate(-18.15 -58.1)"/>
    <path d="M830.57,926.43c.39.89.77,1.79,1.16,2.68-.47.17-1.26.59-1.34.48a20.36,20.36,0,0,1-1.34-2.37C829.56,927,830.07,926.7,830.57,926.43Z" transform="translate(-18.15 -58.1)"/>
    <path d="M588,623.05l2.7-1.43.34.56-2.51,1.61Z" transform="translate(-18.15 -58.1)"/>
    <path d="M660.1,449.33a15.93,15.93,0,0,1,1.55-.38,4.67,4.67,0,0,1,.24.67l-1.61.41Z" transform="translate(-18.15 -58.1)"/>
    <path d="M190.26,872a6.21,6.21,0,0,1-.53-.6,9.7,9.7,0,0,1,.8-.77c.15.18.47.44.43.51A5.61,5.61,0,0,1,190.26,872Z" transform="translate(-18.15 -58.1)"/>
    <path d="M190.11,858.69,188.9,860l-.47-.38,1.09-1.5Z" transform="translate(-18.15 -58.1)"/>
    <path d="M206.14,825.66c-.13.19-.26.37-.4.55a3.81,3.81,0,0,1-.5-.4s.13-.28.2-.28A4.11,4.11,0,0,1,206.14,825.66Z" transform="translate(-18.15 -58.1)"/>
    <path d="M670.12,918.91l.25-1.45c.16.43.31.87.47,1.3Z" transform="translate(-18.15 -58.1)"/>
  </g>
  <g class="highlight-fill">
    <path d="M707,206.19c-.77.18-1.82.11-2.25.59-7.11,8-14.06,16.12-21.21,24.07-3.32,3.69-7.49,6.72-10.38,10.7-3.59,5-8.93,8.49-11.36,14.41-.64,1.57-2.88,2.42-3.85,3.94A49.64,49.64,0,0,1,646,272.36a10.27,10.27,0,0,0-3.31,4c-1.87,4.57-8,5.11-9.31,10.06-4.29,1.84-6,5.77-8,9.53-.73,1.34-2.66,2-4.45,3.3-.78,3.1-4.06,7-7.81,8.84a4.8,4.8,0,0,0-1.35.89,7.42,7.42,0,0,0-.84,1.5c-.38-.27-.81-.43-1-.73-3.18-5.16-3.11-5.11,1-9.82a42,42,0,0,0,3.22-5.08c.29-.45.6-1.13,1-1.24,5.78-1.51,7.81-7.12,11.63-10.74a59.27,59.27,0,0,0,9.38-11.7c4.11-6.63,10.18-11.56,14.66-17.89,3.29-4.64,7.72-8.46,11.48-12.79q9.9-11.4,19.58-23c1.31-1.57,2.17-3.5,3.44-5.1.42-.54,1.48-.56,2.48-.89.2-1.8-.9-4.91,3.37-3.67-.62-2.46-.1-4,2.35-4.63.88-.23,1.62-1.36,2.21-2.22,1-1.46,1.67-3.21,2.84-4.53,3.64-4.13,7.46-8.11,11.19-12.16,2.92-3.18,5.4-6.93,8.8-9.45,4.46-3.32,6.79-8.39,11-11.76,1.25-1,2.28-2.43,3.68-3.07,3.57-1.65,7-.45,10.11,1.4a73.49,73.49,0,0,1,6.95,5.2c4.25,3.27,8.72,6.31,12.64,9.93a33.16,33.16,0,0,1,6.32,8.47c1.7,3.14,1,6.44-1.36,9.24-7.94,9.35-15.71,18.84-23.85,28-12.43,14-25.09,27.83-37.68,41.72-3.89,4.28-7.91,8.45-11.76,12.77q-14.45,16.18-28.79,32.48c-7,8-13.92,16-21.08,23.84-4,4.34-5.17,4.2-9.58.37-.31-.27-.63-.53-.95-.79a65.26,65.26,0,0,0-11.63-7.88c-6.26-3.14-11.41-8.51-17-13a17.23,17.23,0,0,1-3.57-4.27c6,1.56,9.87,6.29,15,9.72-.62-4.43,1.81-6.93,4.54-9.41,3.18-2.89,6.13-6,9.18-9.06,1.85-1.83,3.64-3.74,5.59-5.47,1.64-1.45,2.77-3,1.94-4.82,2.08-2.35,3.86-4.45,5.76-6.45,1.06-1.12,3.11-1.91,3.32-3.1.38-2.14,2.33-2.1,3.19-3.28,3.57-4.91,8.93-8.41,11.36-14.22.25-.61.46-1.48.94-1.7,3.72-1.73,5.54-5.21,8-8.19,1.34-1.65,3.6-2.54,5-4.16,5.9-6.92,11.28-14.32,17.54-20.89,4.72-4.94,8.76-10.36,13.14-15.53a4,4,0,0,0,.93-4.52l3.91-.12C708.23,204.14,708,204.18,707,206.19Zm22.56-22.68c1.77-.95,2.57-2.27,1-4.41l-.94,4.47-2.25.76c.22.35.44.7.65,1ZM723,191.84c-4-1.75-4.87-1.17-5,3.59,2.54-.05,4.9-.21,5-3.64,1.14-.83,2.59-1.53,1.58-3.61C722.56,189,722.38,190.26,723,191.84Zm-9.1,5.51-5.48,4.57c2.78,1.62,4.44,2.4,6.18.1C715.89,200.3,716.3,199,713.88,197.35Zm2.66.73.76-.52L716.05,196l-.51.35Z" transform="translate(-18.15 -58.1)"/>
  </g>
</svg>
