<svg id="Layer_1" data-name="Layer 1" xmlns="http://www.w3.org/2000/svg" viewBox="0 0 361.98 323.74">
  <path d="M102.63,360.68q-31.9-43.92-31.89-113.62,0-37.6,10.06-68.34t24.7-49.12h30.32Q124.32,143.87,113,176t-11.37,71.08q0,38.43,10.33,68.33t21,45.29Z" transform="translate(-0.66 -38.06)"/>
  <path d="M272.13,236.78a194.19,194.19,0,0,0-25.43-3.69q-14.23-1.2-40.51,1.84a216.51,216.51,0,0,0-51.44,12.52q-36.48,13.74-62.52,35.69T56.88,320.88L46.2,292.5q12-20.17,37.27-40.42t60.41-33.49Q209.13,194,261.45,208.4Z" transform="translate(-0.66 -38.06)"/>
  <path d="M362.64,92.32l-199,117.42-32-54.26L157.84,140l16.47,27.92L320.86,81.46,304.39,53.54l26.24-15.48Z" transform="translate(-0.66 -38.06)"/>
  <path d="M360.33,360.68h-63V330.21h32.42V160.06H297.33V129.6h63Z" transform="translate(-0.66 -38.06)"/>
  <path d="M57.53,172q-7-26,4.47-45.25t41.21-27.86l16.35-4.73q9-2.59,13.16-7.35A10.84,10.84,0,0,0,135.17,76l-1.68-5.78,27.68-8L162.84,68a10.77,10.77,0,0,0,8,7.76Q177,77.48,185.72,75L201.8,70.3q29.79-8.62,49.6,1.55t28.09,35.82l-27.68,8q-9.08-25.41-36.75-17.39l-18.19,5.27q-16.6,4.82-26.4,2.07T155.06,93.37q.42,22.18-29.89,31L107,129.61Q78.77,137.79,85.21,164Z" transform="translate(-0.66 -38.06)"/>
  <path d="M9.69,319.54a70.21,70.21,0,0,0,12,9.78,42.42,42.42,0,0,0,15,6.63,19.5,19.5,0,0,1,6.84-11.64,20.27,20.27,0,0,1,13.44-4.6q9.6,0,15.79,6.12a20.44,20.44,0,0,1-.5,29.8q-6.72,6.15-19.06,6.17a56.07,56.07,0,0,1-29.93-8.57A71.68,71.68,0,0,1,.66,331.84Zm126.17,35.71a20.41,20.41,0,0,1-6.2-15,19.54,19.54,0,0,1,6.15-14.78A21.22,21.22,0,0,1,151,319.54a20.94,20.94,0,0,1,15.24,6,19.62,19.62,0,0,1,6.2,14.62,20.19,20.19,0,0,1-6.28,15.05,21.78,21.78,0,0,1-30.33.05Z" transform="translate(-0.66 -38.06)"/>
  <path d="M170.69,351.61l14.77-24.74q24,12.74,39-12.23l9.7-16.26q16.17-27.11,37.54-21.07-7.8-7.85-8-18t8.69-25l9.7-16.26q14.78-24.75-7.73-40.09l14.77-24.75q22.69,14.5,27.57,36.43t-10.88,48.32l-8.57,14.38q-4.65,7.77-4.54,14.23a10.74,10.74,0,0,0,5.49,9.67l4.94,3L288.36,303.9,283.42,301a10.82,10.82,0,0,0-11-.36q-5.67,2.85-10.45,10.87l-8.72,14.61q-15.89,26.64-37.5,32.75T170.69,351.61Z" transform="translate(-0.66 -38.06)"/>
</svg>
