<?xml version="1.0" encoding="utf-8"?>
<!-- Generator: Adobe Illustrator 25.1.0, SVG Export Plug-In . SVG Version: 6.00 Build 0)  -->
<svg version="1.1" id="download-icon" xmlns="http://www.w3.org/2000/svg" xmlns:xlink="http://www.w3.org/1999/xlink" x="0px"
	 y="0px" viewBox="0 0 504 504" style="enable-background:new 0 0 504 504;" xml:space="preserve">
<path d="M403,158.61L287.66,43.41c-1.88-1.87-4.42-2.92-7.07-2.92H108.07c-5.52,0-10,4.48-10,10v403.02c0,5.52,4.48,10,10,10h287.86
	c5.52,0,10-4.48,10-10V165.68C405.93,163.03,404.87,160.48,403,158.61z M290.58,137.14c0.01-0.14,0.01-0.28,0.01-0.41V74.61
	l81.14,81.04l-62.15-0.08c-0.13-0.01-0.25,0-0.37,0.01c-7.17,0.26-12.21-1.02-14.97-3.79C291.53,149.06,290.29,144.13,290.58,137.14
	z M118.07,443.51V60.49h152.52v76.04c-0.48,12.68,2.7,22.56,9.47,29.37c6.81,6.85,16.79,10.12,29.67,9.68l76.2,0.1v267.84H118.07z"
	/>
<path d="M162,407.48L162,407.48c0-4.03,3.27-7.3,7.3-7.3H334.7c4.03,0,7.3,3.27,7.3,7.3l0,0c0,4.03-3.27,7.3-7.3,7.3H169.3
	C165.27,414.78,162,411.51,162,407.48z"/>
<g>
	<path d="M253.7,369.22h-3.41c-4.03,0-7.3-3.27-7.3-7.3V196.52c0-4.03,3.27-7.3,7.3-7.3h3.41c4.03,0,7.3,3.27,7.3,7.3v165.41
		C261,365.95,257.73,369.22,253.7,369.22z"/>
	<path d="M246.92,384.98l-2.58-2.58c-2.8-2.8-2.8-7.35,0-10.15l53.49-53.49c2.8-2.8,7.35-2.8,10.15,0l2.58,2.58
		c2.8,2.8,2.8,7.35,0,10.15l-53.49,53.49C254.27,387.79,249.73,387.79,246.92,384.98z"/>
	<path d="M259.65,382.41l-2.58,2.58c-2.8,2.8-7.35,2.8-10.15,0l-53.49-53.49c-2.8-2.8-2.8-7.35,0-10.15l2.58-2.58
		c2.8-2.8,7.35-2.8,10.15,0l53.49,53.49C262.46,375.06,262.46,379.6,259.65,382.41z"/>
</g>
</svg>
