<svg id="download-icon" xmlns="http://www.w3.org/2000/svg" viewBox="0 0 385.28 503.88">
  <path d="M440.23,140.64,296.76,3.47A12.47,12.47,0,0,0,288.12,0H71.31a12.5,12.5,0,0,0-12.5,12.5V491.38a12.5,12.5,0,0,0,12.5,12.5H431.59a12.5,12.5,0,0,0,12.5-12.5V149.68A12.5,12.5,0,0,0,440.23,140.64Zm-143-102.1,104.56,100c-40.58-.09-69.52-9.37-86.23-27.72C301,94.71,294.82,70.46,297.27,38.54ZM83.81,478.88V25H273.54c-5.66,44.72,2.25,79.2,23.58,102.63,13.44,14.76,32.21,25.09,55.78,30.71,14.48,3.44,31.08,5.17,49.61,5.17,5.36,0,10.9-.16,16.58-.45V478.88Z" transform="translate(-58.81)"/>
  <path d="M323.33,306.5a12.5,12.5,0,0,0-17.67-.42l-41.44,39.49V182.94a12.5,12.5,0,0,0-25,0V345.39l-41.15-39.56a12.5,12.5,0,1,0-17.33,18L243,383.71h0l.05,0,.07.07c.24.22.49.44.75.64l.27.22q.32.24.63.45a3.28,3.28,0,0,0,.31.2c.28.18.58.35.88.51l.39.18c.15.07.29.15.44.21l.11,0c.27.12.55.21.83.31l.35.12q.42.12.84.21c.12,0,.24.07.37.09s.57.09.86.13l.35.05a11.71,11.71,0,0,0,1.19.06h.06a11.41,11.41,0,0,0,1.16-.06l.53-.07.65-.1.64-.15.52-.13.67-.23.47-.17.64-.29.46-.22.59-.34.48-.29.51-.37.51-.38.44-.38.31-.27,62.57-59.63A12.51,12.51,0,0,0,323.33,306.5Z" transform="translate(-58.81)"/>
  <g>
    <line x1="97.41" y1="418.63" x2="288.66" y2="418.63"/>
    <path d="M347.47,431.12H156.22a12.5,12.5,0,0,1,0-25H347.47a12.5,12.5,0,0,1,0,25Z" transform="translate(-58.81)"/>
  </g>
</svg>
