<svg id="moon-alternate" xmlns="http://www.w3.org/2000/svg" viewBox="0 0 497.25 497.25">
  <path d="M252,43.37A208.62,208.62,0,0,1,399.52,399.52a208.62,208.62,0,1,1-295-295A207.27,207.27,0,0,1,252,43.37m0-40C114.69,3.37,3.37,114.69,3.37,252S114.69,500.63,252,500.63,500.63,389.31,500.63,252,389.31,3.37,252,3.37Z" transform="translate(-3.37 -3.37)"/>
  <path d="M357.25,119.06a166.47,166.47,0,0,0-67.52-32.37A167.35,167.35,0,0,1,145.5,378.18q1.63,1.38,3.32,2.71A167.33,167.33,0,1,0,357.25,119.06Z" transform="translate(-3.37 -3.37)"/>
</svg>
