<svg id="Moon" xmlns="http://www.w3.org/2000/svg" viewBox="0 0 489.72 446.83">
  <g>
    <path d="M411.56,72.34a225.32,225.32,0,0,0-91.25-43.75c93.7,78.52,108.17,217.9,31.59,314.1a226.17,226.17,0,0,1-226.52,79.84c1.48,1.23,3,2.45,4.49,3.66,97.71,77.79,240,61.63,317.77-36.08S509.27,150.13,411.56,72.34Z" transform="translate(-7.14 -28.59)"/>
    <polygon points="179.75 150.35 171.69 177.3 189.32 199.21 161.2 199.88 145.81 223.41 136.49 196.88 109.34 189.51 131.71 172.44 130.32 144.35 153.46 160.34 179.75 150.35"/>
    <polygon points="44.24 161.15 52.73 187.96 79.64 196.17 56.76 212.53 57.27 240.65 34.64 223.95 8.05 233.12 16.94 206.44 0 183.99 28.13 184.2 44.24 161.15"/>
    <polygon points="218.95 5.11 211.48 32.23 229.58 53.76 201.48 55.03 186.6 78.9 176.71 52.57 149.41 45.79 171.4 28.25 169.4 0.19 192.88 15.68 218.95 5.11"/>
    <polygon points="83.57 52.63 92.63 79.26 119.7 86.9 97.17 103.74 98.27 131.84 75.29 115.62 48.91 125.36 57.23 98.49 39.82 76.4 67.94 76.02 83.57 52.63"/>
    <polygon points="300.45 81.83 291.38 108.45 308.17 131.02 280.04 130.62 263.77 153.56 255.46 126.69 228.61 118.3 251.6 102.09 251.28 73.97 273.8 90.82 300.45 81.83"/>
    <polygon points="147.09 280.7 136.46 306.74 151.89 330.26 123.84 328.2 106.24 350.14 99.53 322.83 73.23 312.87 97.13 298.05 98.47 269.95 119.95 288.11 147.09 280.7"/>
    <polygon points="262.28 241.3 251.44 267.25 266.69 290.89 238.65 288.61 220.88 310.41 214.39 283.05 188.16 272.88 212.18 258.25 213.75 230.16 235.09 248.49 262.28 241.3"/>
  </g>
</svg>
