<?xml version="1.0" encoding="utf-8"?>
<!-- Generator: Adobe Illustrator 25.1.0, SVG Export Plug-In . SVG Version: 6.00 Build 0)  -->
<svg version="1.1" id="Layer_1" xmlns="http://www.w3.org/2000/svg" xmlns:xlink="http://www.w3.org/1999/xlink" x="0px" y="0px"
	 viewBox="0 0 504 504" style="enable-background:new 0 0 504 504;" xml:space="preserve">
<g>
	<path d="M460.51,58.32H43.49c-9.9,0-17.93,8.03-17.93,17.93v351.49c0,9.9,8.03,17.93,17.93,17.93h105.19c0,0,0,0,0,0h112.98h112.98
		c0,0,0,0,0,0h85.88c9.9,0,17.93-8.03,17.93-17.93V76.25C478.45,66.35,470.42,58.32,460.51,58.32z M453.45,420.68h-68.75
		l-54.3-94.05l-56.49-97.84c-5.44-9.43-19.05-9.43-24.49,0l-31.94,55.32l-69.66-120.65c-5.53-9.58-19.36-9.58-24.89,0L51.9,286.47
		l-1.35,2.34V83.32h402.89V420.68z"/>
	<circle cx="367.35" cy="175.67" r="41.95"/>
</g>
</svg>
