<svg id="picture-icon" xmlns="http://www.w3.org/2000/svg" viewBox="0 0 504 504">
  <circle cx="363.34" cy="146.03" r="52.73"/>
  <path d="M485.79,0H18.21A18.21,18.21,0,0,0,0,18.21V485.79A18.21,18.21,0,0,0,18.21,504H485.79A18.21,18.21,0,0,0,504,485.79V18.21A18.21,18.21,0,0,0,485.79,0ZM479,479H406.29a21.52,21.52,0,0,0-2.57-7L332.56,348.7,261.39,225.45a21.3,21.3,0,0,0-36.89,0L153.34,348.7,86.91,463.76a3.8,3.8,0,0,1-5.12,1.3L79,463.45a3.79,3.79,0,0,1-1.39-5.18L188.62,266,125.44,156.58a21.1,21.1,0,0,0-36.54,0L25,267.26V25H479Z"/>
</svg>
