<svg id="Sun" xmlns="http://www.w3.org/2000/svg" viewBox="0 0 499.24 499.88">
  <path d="M252,147.78A104.22,104.22,0,1,1,147.78,252,104.33,104.33,0,0,1,252,147.78m0-40A144.22,144.22,0,1,0,396.22,252,144.22,144.22,0,0,0,252,107.78Z" transform="translate(-2.38 -2.06)"/>
  <path d="M252,98.8a20,20,0,0,1-20-20V22.06a20,20,0,0,1,40,0V78.8A20,20,0,0,1,252,98.8Z" transform="translate(-2.38 -2.06)"/>
  <path d="M252,501.94a20,20,0,0,1-20-20V425.2a20,20,0,0,1,40,0v56.74A20,20,0,0,1,252,501.94Z" transform="translate(-2.38 -2.06)"/>
  <path d="M79.12,272H22.38a20,20,0,0,1,0-40H79.12a20,20,0,0,1,0,40Z" transform="translate(-2.38 -2.06)"/>
  <path d="M481.62,272H424.88a20,20,0,0,1,0-40h56.74a20,20,0,0,1,0,40Z" transform="translate(-2.38 -2.06)"/>
  <path d="M376.16,147.84A20,20,0,0,1,362,113.7l40.12-40.12a20,20,0,0,1,28.28,28.28L390.3,142A19.9,19.9,0,0,1,376.16,147.84Z" transform="translate(-2.38 -2.06)"/>
  <path d="M87.72,436.28a20,20,0,0,1-14.14-34.14L113.7,362A20,20,0,1,1,142,390.3l-40.12,40.12A19.92,19.92,0,0,1,87.72,436.28Z" transform="translate(-2.38 -2.06)"/>
  <path d="M127.84,147.84A19.9,19.9,0,0,1,113.7,142L73.58,101.86a20,20,0,0,1,28.28-28.28L142,113.7a20,20,0,0,1-14.14,34.14Z" transform="translate(-2.38 -2.06)"/>
  <path d="M416.28,436.28a19.9,19.9,0,0,1-14.14-5.86L362,390.3A20,20,0,1,1,390.3,362l40.12,40.12a20,20,0,0,1-14.14,34.14Z" transform="translate(-2.38 -2.06)"/>
</svg>
