<svg id="Web_Dev" data-name="Web Dev" xmlns="http://www.w3.org/2000/svg" viewBox="0 0 504 291.53">
  <path d="M.64,389.18H503.42c-13.58,6-31.86,9.09-52.89,8.51H53.81C29.07,397.81,12.37,395.94.64,389.18Z" transform="translate(0 -106.24)"/>
  <path d="M503.3,380.28H451.46a10.54,10.54,0,0,0,4.09-8.34V116.81A10.59,10.59,0,0,0,445,106.24H58.47A10.59,10.59,0,0,0,47.9,116.81V371.94A10.56,10.56,0,0,0,52,380.28H.7A.7.7,0,0,0,0,381v7.51a.7.7,0,0,0,.7.7H503.3a.7.7,0,0,0,.7-.7V381A.7.7,0,0,0,503.3,380.28ZM62.53,120.87H440.92v247H62.53Z" transform="translate(0 -106.24)"/>
  <g>
    <path d="M160.52,306.42,93.28,249.76l67.24-56.56L176.08,209l-49.48,40.6,49.48,41.1Z" transform="translate(0 -106.24)"/>
    <path d="M226.26,325.58H202.62l69.63-162.41H296Z" transform="translate(0 -106.24)"/>
    <path d="M342.67,193.2l67.24,56.56-67.24,56.66-15.46-15.76L376.59,250l-49.38-41Z" transform="translate(0 -106.24)"/>
  </g>
</svg>
